<svg width="63" height="58" viewBox="0 0 63 58" fill="none" xmlns="http://www.w3.org/2000/svg">
<path d="M32.614 0C33.898 1.109 33.964 4.34101 34.457 6.09601C35.197 8.73001 36.217 11.471 37.611 13.831C42.868 22.728 53.686 25.02 62.928 27.201L58.973 28.326C47.339 31.68 39.18 36.33 35.124 48.472C34.166 51.338 33.879 54.889 32.439 57.496L31.921 57.085C30.599 51.676 28.37 45.416 25.479 40.643C20.205 31.936 9.097 29.627 0 27.213C5.511 26.104 10.544 25.213 15.727 22.905C18.939 21.475 21.95 19.976 24.409 17.391C28.736 12.845 30.416 5.744 32.614 0Z" fill="#8362E8"/>
</svg>
