<svg width="197" height="134" viewBox="0 0 197 134" fill="none" xmlns="http://www.w3.org/2000/svg">
<path d="M134.657 115.519H16.2933V131.115H134.657V115.519Z" fill="#8362E8"/>
<path d="M135.005 131.463H15.9456V115.172H135.005V131.463ZM16.6411 130.767H134.31V115.868H16.6411V130.767Z" fill="#8362E8"/>
<path d="M87.6971 18.7684V52.3806C87.6971 62.746 96.1 71.1489 106.466 71.1489H174.267C184.633 71.1489 193.036 62.746 193.036 52.3806V18.7684C193.036 8.40289 184.633 7.62939e-06 174.267 7.62939e-06H106.466C96.1 7.62939e-06 87.6971 8.40289 87.6971 18.7684Z" fill="#8362E8"/>
<path d="M26.266 16.6677C26.3906 17.8982 27.4729 22.0634 30.0966 27.8806C31.6202 31.2215 33.3669 34.4561 35.3247 37.5625C37.7161 41.3091 40.3275 44.9107 43.1452 48.3483C44.8146 50.451 49.6218 56.4171 54.525 62.347C59.4282 68.2769 64.4622 74.1421 66.6456 75.9527C68.3929 77.4016 71.3095 78.6203 68.1891 74.3007C64.6159 69.355 62.0123 65.9661 58.7987 62.0117C57.1926 60.0342 55.4334 57.9154 53.3244 55.3897C51.2154 52.864 48.7335 49.9419 45.8009 46.3186C42.1353 41.6481 38.8552 36.6876 35.9931 31.4858C34.1742 28.1727 32.5744 24.7484 31.3126 21.8533C30.0508 18.9583 29.1193 16.5926 28.5079 15.4254C26.8517 12.1763 25.9537 13.4833 26.266 16.6677Z" fill="#1A1818"/>
<path d="M69.1761 77.643C68.1494 77.643 66.5064 76.2915 66.4229 76.2226C64.5775 74.6923 60.5974 70.2267 54.2571 62.5717C49.5716 56.9075 44.7874 50.9763 42.8724 48.5681C40.0448 45.1216 37.4259 41.509 35.0297 37.7497C33.0648 34.6299 31.311 31.3822 29.7801 28.0281C27.2322 22.3772 26.0601 18.0812 25.9203 16.706C25.8041 15.5235 25.7498 13.5063 26.6944 13.2281C27.3302 13.0396 28.023 13.7108 28.8195 15.2724C29.2229 16.0411 29.7585 17.3084 30.4353 18.9124C30.7956 19.7652 31.1949 20.7098 31.6338 21.7198C33.1878 25.2847 34.7577 28.5157 36.3005 31.3231C39.1522 36.5078 42.4207 41.4521 46.0735 46.1071C48.1318 48.6467 49.9799 50.8531 51.6104 52.8001C52.306 53.6306 52.9668 54.4187 53.5928 55.1728C55.7088 57.7075 57.4506 59.8047 59.0692 61.7968C62.3955 65.8911 65.0318 69.3412 68.4715 74.1025C69.8341 75.9889 70.2028 76.9933 69.7033 77.4608C69.5578 77.5874 69.3688 77.6527 69.1761 77.643ZM26.6124 16.64C26.748 17.9762 27.9006 22.1713 30.4137 27.7443C31.9313 31.0699 33.67 34.29 35.6181 37.3831C38.0001 41.1173 40.603 44.706 43.4129 48.1299C45.3279 50.5387 50.1086 56.4652 54.7913 62.1259C61.1038 69.7467 65.0534 74.1825 66.8654 75.6849C67.9519 76.5892 69.0098 77.0358 69.238 76.937C69.222 76.937 69.341 76.4904 67.9053 74.5024C64.4746 69.753 61.8446 66.3112 58.528 62.2281C56.9115 60.2387 55.1718 58.1436 53.0565 55.6103C52.4305 54.8563 51.7704 54.0689 51.0748 53.2383C49.4422 51.2907 47.592 49.0822 45.5289 46.5349C41.8498 41.8483 38.5583 36.87 35.687 31.6494C34.1359 28.8267 32.5569 25.5762 30.9939 21.9925C30.5536 20.9783 30.1536 20.0316 29.7926 19.1782C29.1213 17.588 28.5913 16.3332 28.1997 15.5868C27.4345 14.0802 26.9595 13.8562 26.8885 13.8903C26.7452 13.932 26.4162 14.6596 26.6103 16.633L26.6124 16.64Z" fill="#1A1818"/>
<path d="M0.694118 38.777C0.82879 39.2186 0.992625 39.6509 1.18452 40.0708C1.43563 40.6468 1.84185 41.3194 2.30303 42.1367L3.07234 43.4458C3.358 43.9473 3.67005 44.4332 4.0072 44.9017C4.71323 45.8957 5.48534 47.0142 6.37986 48.189C9.9837 52.8745 15.5616 58.3808 22.3214 63.8711L27.4256 68.0341L35.26 74.3063L43.0784 80.5965C45.3641 82.4864 47.2672 83.9756 48.351 84.6935C50.1059 85.8016 53.0483 86.6049 49.7136 82.8926C41.946 74.5302 37.9582 72.0734 24.502 61.3377C20.3273 57.7889 16.3769 53.9843 12.6735 49.9461L11.7874 48.9876L10.9527 47.9977L9.3062 46.0633C8.26282 44.7723 7.32029 43.4896 6.41185 42.3628C5.58688 41.1803 4.83775 40.1132 4.17972 39.2382C3.52169 38.3631 3.07094 37.6098 2.66959 37.1514C0.52787 34.5722 -0.136414 35.9077 0.694118 38.777Z" fill="#1A1818"/>
<path d="M50.7445 85.9643C49.8257 85.8251 48.9468 85.4933 48.1653 84.9905C47.1073 84.2894 45.2737 82.8648 42.8572 80.8678L27.2065 68.3089L22.0995 64.143C15.4177 58.7175 9.7361 53.1284 6.10096 48.4033C5.3845 47.4629 4.73483 46.5412 4.16166 45.7288L3.72066 45.1027C3.37776 44.6265 3.06036 44.1324 2.76978 43.6225L1.70624 41.7966C1.39806 41.2827 1.11643 40.7534 0.862479 40.2106C0.664221 39.7756 0.495287 39.3278 0.356793 38.8702C0.0500389 37.8116 -0.333226 35.971 0.522348 35.5175C1.10247 35.2108 1.88917 35.6726 2.93464 36.9302C3.2119 37.2661 3.4708 37.6168 3.71021 37.9806C3.92863 38.2971 4.17279 38.6511 4.4552 39.0281C5.13896 39.9373 5.9354 41.0725 6.69429 42.1632C7.10191 42.6682 7.52901 43.2253 7.97279 43.7999C8.48335 44.4635 9.01616 45.1514 9.57264 45.8435L12.0482 48.765L12.9247 49.7103C16.6162 53.739 20.5556 57.5334 24.7198 61.0713C27.7616 63.4982 30.3227 65.5043 32.5528 67.2509C40.1347 73.1885 43.9375 76.1684 49.964 82.6575C51.4248 84.2789 51.8547 85.1895 51.4185 85.7063C51.3322 85.7965 51.2271 85.8664 51.1105 85.911C50.994 85.9556 50.8689 85.9738 50.7445 85.9643ZM0.897271 36.122C0.881378 36.1211 0.865535 36.1245 0.851355 36.1317C0.699022 36.2117 0.532779 36.9664 1.02873 38.6803V38.6873C1.1576 39.1126 1.3154 39.5286 1.50103 39.9324C1.69023 40.3651 1.97751 40.868 2.31069 41.4509L3.37008 43.2691C3.64947 43.7601 3.9548 44.2359 4.28478 44.6944L4.73065 45.3246C5.32816 46.1718 5.94652 47.0483 6.65394 47.9783C10.255 52.6596 15.8969 58.209 22.5391 63.6012L27.6433 67.7643L43.2941 80.3259C45.6966 82.3104 47.5093 83.7204 48.5409 84.4035C49.6907 85.1296 50.7229 85.3648 50.8961 85.2493C50.8864 85.2493 50.9817 84.8278 49.4528 83.125C43.4666 76.681 39.677 73.7122 32.1257 67.797C29.8949 66.049 27.3317 64.0408 24.2829 61.6097C20.0923 58.0506 16.1283 54.2329 12.4141 50.1791L11.5293 49.2241L9.03912 46.2859C8.47013 45.5841 7.93661 44.8913 7.42257 44.2235C6.98296 43.6524 6.55725 43.1001 6.13851 42.5791C5.36919 41.4745 4.57623 40.3456 3.90012 39.4441C3.61145 39.0595 3.36103 38.6977 3.13496 38.375C2.9088 38.0312 2.66453 37.6996 2.4032 37.3817C1.53859 36.3355 1.06004 36.122 0.897271 36.122Z" fill="#1A1818"/>
<path d="M72.8999 86.8679C73.1726 87.4939 74.6862 88.9804 76.6339 91.4205C79.1434 94.5258 81.2195 97.9577 82.8051 101.622C82.9261 101.932 83.1195 102.387 83.3143 102.961C83.5457 103.599 83.7415 104.249 83.9007 104.909C84.0569 105.471 84.0636 106.064 83.9201 106.63C83.8563 106.809 83.7423 106.966 83.5918 107.082C83.3658 107.242 83.1047 107.347 82.8302 107.386C82.021 107.495 81.1985 107.45 80.406 107.254C79.5827 107.088 78.7759 106.849 77.9951 106.539C76.524 105.966 75.3887 105.276 74.6792 104.991C74.0973 104.736 73.4534 104.656 72.8269 104.763C72.3657 104.915 72.2009 105.522 73.2686 106.736C74.886 108.508 76.9555 109.807 79.2548 110.492C80.0086 110.716 80.7829 110.865 81.5663 110.935C82.5674 111.026 83.5764 110.895 84.5204 110.549C85.1373 110.315 85.697 109.952 86.162 109.484C86.664 108.972 87.0373 108.349 87.2513 107.665C87.5826 106.423 87.5556 105.113 87.1734 103.886C87.0211 103.291 86.818 102.763 86.6204 102.208C86.4229 101.654 86.1843 101.076 85.9443 100.474C84.7809 97.36 83.2487 94.3971 81.3805 91.648C78.9661 88.1325 75.7101 85.291 74.3029 84.7616C72.3455 84.0104 72.1209 85.3849 72.8999 86.8679Z" fill="#1A1818"/>
<path d="M82.2129 111.305C81.9792 111.305 81.7559 111.294 81.5444 111.282C80.7367 111.211 79.9382 111.059 79.1614 110.827C78.4265 110.609 77.7115 110.328 77.0245 109.988C75.5117 109.239 74.1514 108.216 73.013 106.97C72.3056 106.167 72.0177 105.509 72.1533 105.009C72.1901 104.873 72.2611 104.748 72.3597 104.647C72.4583 104.545 72.5812 104.471 72.7167 104.43C73.419 104.304 74.1428 104.385 74.8 104.662C75.1047 104.785 75.4643 104.967 75.8796 105.178C76.609 105.56 77.3572 105.906 78.1214 106.214C78.8828 106.515 79.6696 106.748 80.4725 106.909C81.2198 107.1 81.9968 107.144 82.761 107.041C82.9817 107.013 83.1924 106.932 83.3752 106.805C83.4786 106.726 83.5561 106.618 83.5978 106.495C83.7139 105.995 83.7012 105.475 83.5609 104.982C83.445 104.472 83.298 103.97 83.1206 103.478L82.9815 103.066C82.8361 102.638 82.6908 102.277 82.5774 101.994L82.4786 101.746C80.9076 98.1144 78.8495 94.713 76.3609 91.6361C75.4922 90.5482 74.7131 89.653 74.0864 88.9337C73.5167 88.352 73.0129 87.7094 72.5839 87.0174C72.0427 85.9817 71.9843 85.0697 72.4274 84.5675C72.7 84.2621 73.2669 83.9902 74.4244 84.434C76.0034 85.0287 79.29 87.9898 81.6655 91.449C83.5249 94.1793 85.0523 97.1216 86.2153 100.213L86.456 100.813C86.6341 101.251 86.8038 101.673 86.9471 102.094L87.0417 102.356C87.2058 102.811 87.3763 103.281 87.5084 103.795C87.9024 105.084 87.9279 106.457 87.5821 107.76C87.352 108.499 86.949 109.172 86.4066 109.724C85.9067 110.227 85.3053 110.618 84.6426 110.87C83.8663 111.163 83.0427 111.31 82.2129 111.305ZM73.2794 105.044C73.1644 105.041 73.0496 105.056 72.9393 105.089C72.844 105.121 72.8308 105.169 72.8245 105.192C72.8065 105.258 72.755 105.629 73.5292 106.504C75.1029 108.228 77.1162 109.492 79.3533 110.159C80.0839 110.377 80.8345 110.52 81.5938 110.588C82.5439 110.673 83.501 110.549 84.3977 110.224C84.9674 110.007 85.4843 109.671 85.9141 109.239C86.3776 108.768 86.7222 108.192 86.9192 107.561C87.2303 106.381 87.2016 105.137 86.8365 103.973C86.7127 103.491 86.5582 103.057 86.3899 102.596L86.2925 102.326C86.1534 101.914 85.9858 101.504 85.8133 101.08L85.5698 100.474C84.4271 97.431 82.9259 94.5355 81.0979 91.8483C78.6167 88.2354 75.4337 85.5567 74.1795 85.0844C73.5737 84.852 73.1257 84.8318 72.9491 85.0294C72.7613 85.2415 72.7619 85.8558 73.2064 86.7044L73.2175 86.7259C73.6276 87.3515 74.095 87.9376 74.6136 88.4767C75.2438 89.2015 76.0291 90.103 76.9056 91.202C79.4359 94.3309 81.5282 97.7899 83.1248 101.484L83.2257 101.735C83.3425 102.027 83.4928 102.4 83.643 102.848L83.7821 103.257C83.9672 103.773 84.121 104.3 84.2426 104.835C84.4122 105.464 84.4122 106.126 84.2426 106.755C84.155 106.993 84.0013 107.201 83.7995 107.356C83.5302 107.549 83.2189 107.675 82.8911 107.724C82.0389 107.846 81.1711 107.801 80.3362 107.592C79.4937 107.422 78.6681 107.177 77.8696 106.859C77.0838 106.544 76.3144 106.189 75.5645 105.796C75.1638 105.592 74.8174 105.416 74.5489 105.309C74.1435 105.151 73.7144 105.061 73.2794 105.044Z" fill="#1A1818"/>
<path d="M66.91 75.8699C67.2578 76.644 70.6467 78.5555 75.5179 79.8702C76.2058 80.0559 78.1396 80.7285 80.1373 81.2308C82.135 81.733 84.187 82.0738 85.0655 81.7288C85.7716 81.4554 86.9123 80.2075 85.6533 79.5725C82.7798 78.0916 81.4798 77.9969 76.7011 76.7456C76.0264 76.5647 74.1886 75.7286 72.3398 74.9371C70.4909 74.1455 68.6246 73.3991 67.8142 73.5215C66.6909 73.6906 66.437 74.9232 66.91 75.8699Z" fill="#1A1818"/>
<path d="M84.0591 82.2165C82.7033 82.1508 81.3591 81.9333 80.0518 81.5682C78.7114 81.2315 77.419 80.8239 76.4758 80.5248C76.0181 80.3808 75.6543 80.2661 75.4282 80.2049C70.7059 78.9305 67.0568 77.0149 66.5943 76.0188C66.4326 75.7134 66.3437 75.3748 66.3344 75.0293C66.3251 74.6839 66.3957 74.341 66.5407 74.0273C66.6594 73.7969 66.8324 73.5987 67.0447 73.4499C67.257 73.3011 67.5022 73.2061 67.7594 73.1732C68.5822 73.0459 70.1125 73.6058 72.4747 74.6116C72.9178 74.8022 73.3609 74.9956 73.7866 75.1806C75.0797 75.744 76.3012 76.2762 76.7895 76.4076C77.8739 76.6914 78.7809 76.9154 79.5669 77.1109C81.7372 77.5368 83.8382 78.2603 85.8106 79.2609C86.0363 79.3479 86.2296 79.5023 86.3642 79.7033C86.4988 79.9042 86.568 80.1418 86.5625 80.3836C86.4935 80.7554 86.3312 81.1036 86.091 81.3956C85.8507 81.6875 85.5403 81.9137 85.1887 82.053C84.825 82.1747 84.4424 82.23 84.0591 82.2165ZM68.0153 73.8514C67.9657 73.851 67.9162 73.8545 67.8672 73.8618C67.7182 73.8777 67.5755 73.9306 67.4521 74.0156C67.3287 74.1006 67.2284 74.2151 67.1604 74.3487C67.0666 74.5662 67.0234 74.8021 67.0338 75.0387C67.0443 75.2753 67.1083 75.5065 67.221 75.7148L67.2272 75.7288C67.4936 76.3249 70.6933 78.2085 75.609 79.5357C75.8414 79.5983 76.2149 79.7159 76.6838 79.8633C77.62 80.159 78.9013 80.5624 80.2222 80.8942C82.5441 81.4847 84.2622 81.6718 84.9383 81.4061C85.1641 81.3137 85.3656 81.1705 85.5271 80.9876C85.6886 80.8047 85.8058 80.5871 85.8697 80.3516C85.8697 80.2821 85.8829 80.0776 85.4962 79.8821C83.572 78.9042 81.5209 78.1993 79.4021 77.7877C78.6133 77.5922 77.7035 77.3703 76.6128 77.0817C76.073 76.9363 74.8856 76.4195 73.5112 75.8206C73.0862 75.6355 72.6452 75.4429 72.2028 75.253C71.0342 74.7549 68.9147 73.8514 68.0153 73.8514Z" fill="#1A1818"/>
<path d="M51.601 104.747C51.8486 104.156 51.9488 102.13 51.857 99.1318C51.8333 98.382 51.7978 97.5716 51.7484 96.7076C51.7408 96.5685 51.7325 96.4294 51.7241 96.2819C51.7241 96.218 51.6963 96.1373 51.7415 96.0733C51.7867 96.0093 51.8709 96.026 51.9453 96.0149L52.0691 96.0017L52.1025 95.9975L52.2771 96.0017L52.6708 96.0121C53.7246 96.0378 54.8195 96.0545 55.9477 96.0594C56.5863 96.0594 57.8258 96.106 59.3658 96.1547L60.5734 96.1908C60.9998 96.2048 61.4178 96.2096 61.7656 96.2375C62.0607 96.2528 62.3528 96.3047 62.6351 96.3919C62.8879 96.4857 63.1203 96.6274 63.3196 96.8092C63.9017 97.3872 64.4367 98.0108 64.9194 98.6741C65.4759 99.3697 66.0198 100.028 66.5332 100.622C67.2732 101.552 68.1295 102.383 69.0811 103.095C70.0758 103.704 72.0916 103.929 70.8277 101.692C70.105 100.412 69.4637 99.3419 68.8224 98.3444C68.5017 97.8457 68.181 97.3657 67.8485 96.8836C67.516 96.4016 67.2023 95.9488 66.7669 95.3826C66.2471 94.6821 65.6089 94.0778 64.8812 93.597C64.4141 93.3026 63.9032 93.0844 63.3675 92.9508C62.8823 92.8343 62.3867 92.7668 61.8881 92.7491C61.4192 92.7289 61.0172 92.7352 60.5873 92.7331H59.2385L56.1452 92.7247C55.5074 92.7247 54.2672 92.635 52.7278 92.516L51.0111 92.3943C50.372 92.3333 49.728 92.4435 49.1456 92.7136C47.8886 93.3973 47.9318 94.8908 48.0688 96.4572C48.1293 97.4074 48.1905 98.3569 48.2489 99.2674C48.3143 100.149 48.3881 100.993 48.4701 101.76C48.5465 102.907 48.7592 104.041 49.1038 105.137C49.8293 106.846 51.0244 106.261 51.601 104.747Z" fill="#1A1818"/>
<path d="M50.2035 106.526C49.7931 106.526 49.2213 106.304 48.7838 105.274C48.4201 104.147 48.1986 102.978 48.1243 101.796C48.0409 101.026 47.9672 100.178 47.9018 99.2919L47.7216 96.4789C47.6027 95.1184 47.4392 93.2451 48.9799 92.4076C49.617 92.1033 50.3249 91.9783 51.0277 92.046L52.7521 92.1677C54.3519 92.2901 55.5393 92.3715 56.1466 92.3764L60.9176 92.3868C61.2348 92.3868 61.5506 92.3868 61.9026 92.4021C62.4246 92.4198 62.9435 92.4898 63.4516 92.6108C64.0244 92.7535 64.5706 92.9869 65.0696 93.3022C65.8301 93.8023 66.4966 94.4324 67.0388 95.1636C67.4227 95.6637 67.7066 96.0678 67.998 96.4852L68.1329 96.6786C68.4682 97.1655 68.791 97.6468 69.1137 98.149C69.7599 99.1549 70.4006 100.223 71.1309 101.513C71.6665 102.46 71.7243 103.148 71.3021 103.554C70.7331 104.105 69.554 103.785 68.8995 103.384C67.9137 102.658 67.0294 101.803 66.2702 100.843C65.7833 100.277 65.2344 99.6188 64.648 98.8857C64.5187 98.7257 64.3893 98.5608 64.2613 98.3988C63.9138 97.9214 63.5239 97.4765 63.0962 97.0695C62.9306 96.9167 62.7372 96.7973 62.5265 96.7175C62.2716 96.6385 62.0078 96.5918 61.7412 96.5784C61.4859 96.5582 61.1952 96.5499 60.8905 96.5415L58.4608 96.4678C57.343 96.4316 56.4547 96.4031 55.9476 96.3982C54.8166 96.3927 53.7218 96.3767 52.6631 96.3509L52.0955 96.3363H52.0774L52.0976 96.6751C52.1456 97.5432 52.1824 98.3563 52.2061 99.1096C52.261 100.874 52.2979 103.963 51.9278 104.866C51.5369 105.885 50.9026 106.502 50.2278 106.514L50.2035 106.526ZM50.7022 92.7353C50.22 92.7159 49.7404 92.815 49.3054 93.024C48.2579 93.593 48.2816 94.902 48.4151 96.4282L48.596 99.2453C48.66 100.12 48.7351 100.96 48.8158 101.724C48.8878 102.837 49.0919 103.937 49.4237 105.002C49.6533 105.542 49.9468 105.814 50.2118 105.83C50.5756 105.823 51.0034 105.339 51.2761 104.624L51.2803 104.613C51.4604 104.184 51.6148 102.521 51.5091 99.1431C51.4854 98.3953 51.45 97.5877 51.402 96.7273L51.3776 96.3022C51.3467 96.1533 51.3763 95.9982 51.4597 95.871C51.5097 95.8113 51.5717 95.7629 51.6417 95.729C51.7117 95.6951 51.7881 95.6764 51.8659 95.6742L52.1101 95.6505L52.6798 95.6651C53.7301 95.6908 54.8236 95.7068 55.949 95.7124C56.4603 95.7124 57.3548 95.743 58.4817 95.782L60.9086 95.8564C61.2251 95.8647 61.5283 95.8731 61.7933 95.8946C62.1176 95.9121 62.4385 95.9701 62.7484 96.0672C63.0421 96.1745 63.3125 96.3372 63.5448 96.5464C64.0086 96.9832 64.431 97.462 64.8066 97.9766C64.9326 98.1358 65.0605 98.2986 65.1885 98.4572C65.77 99.1848 66.3098 99.8358 66.7946 100.394C67.5102 101.298 68.3392 102.106 69.2612 102.798C69.8177 103.139 70.5995 103.27 70.8179 103.062C70.932 102.951 70.9243 102.57 70.5237 101.863C69.8017 100.586 69.168 99.527 68.528 98.533C68.2094 98.0378 67.8909 97.5592 67.5626 97.0841L67.4283 96.8914C67.1424 96.4817 66.8635 96.0824 66.4914 95.5976C65.996 94.9292 65.3878 94.3525 64.694 93.8935C64.2588 93.62 63.7832 93.4169 63.2847 93.2917C62.8215 93.1801 62.3482 93.1156 61.872 93.0991C61.5304 93.0852 61.2251 93.0845 60.9169 93.0845L56.1445 93.074C55.5136 93.074 54.3596 92.9926 52.7013 92.8654L50.9867 92.7436C50.8879 92.7374 50.794 92.7374 50.7022 92.7374V92.7353ZM51.8416 96.0261L51.8924 96.3704C51.921 96.364 51.9478 96.3515 51.971 96.3336L51.8416 96.0261Z" fill="#1A1818"/>
<path d="M83.7293 94.2766C84.5222 94.5201 87.2531 94.591 91.3035 94.5722L98.2956 94.5027L102.374 94.4484C103.732 94.4191 105.09 94.5122 106.43 94.7267C107.648 94.9173 108.789 95.4406 109.728 96.2388C110.356 96.8344 110.821 97.5805 111.08 98.4063C111.412 99.465 111.618 100.559 111.695 101.666C111.893 104.104 112.088 106.668 112.34 108.761C112.464 109.815 112.597 110.769 112.74 111.571C112.81 111.972 112.886 112.336 112.962 112.654C113.027 112.95 113.114 113.24 113.222 113.524C113.315 113.75 113.465 113.948 113.658 114.099C113.739 114.175 113.845 114.22 113.956 114.228C114.068 114.235 114.178 114.204 114.27 114.14C114.33 114.006 114.172 113.912 114.069 113.877C114.04 113.869 114.01 113.867 113.98 113.87C113.953 113.873 113.971 113.87 113.999 113.865C114.021 113.86 114.042 113.854 114.062 113.846C114.133 113.824 114.199 113.791 114.259 113.748C114.325 113.678 114.311 113.695 114.29 113.714C114.243 113.766 114.184 113.804 114.118 113.826C114.048 113.854 113.975 113.873 113.9 113.882C114.006 113.885 114.11 113.917 114.202 113.972C114.264 114.022 114.243 114.033 114.239 113.979C114.236 113.958 114.236 113.937 114.239 113.917L114.243 113.903C114.212 114.099 114.287 113.633 114.279 113.682V113.686V113.7L114.269 113.733C114.399 113.569 114.577 113.449 114.779 113.392C114.89 113.345 115.004 113.306 115.12 113.272C115.214 113.242 115.468 113.188 115.407 113.197C115.418 113.174 115.423 113.149 115.424 113.123C115.437 112.641 115.45 112.178 115.463 111.732C115.471 111.267 115.479 110.818 115.486 110.38C115.496 109.506 115.497 108.679 115.486 107.876C115.467 106.263 115.41 104.734 115.317 103.072C115.27 102.242 115.215 101.333 115.085 100.33C114.95 99.1879 114.677 98.0668 114.273 96.9908C113.744 95.6019 112.859 94.3765 111.707 93.4377C110.379 92.4254 108.824 91.7536 107.178 91.481C105.549 91.1666 103.897 90.9946 102.239 90.967C100.105 90.9127 97.5937 90.8773 95.0632 90.8975C90.0111 90.9322 84.9674 91.2501 83.2723 91.7968C80.9226 92.5376 81.7023 93.7201 83.7293 94.2766Z" fill="#1A1818"/>
<path d="M114.025 114.573C113.811 114.572 113.604 114.499 113.438 114.364C113.202 114.18 113.018 113.938 112.904 113.661C112.803 113.406 112.722 113.143 112.66 112.875L112.625 112.735C112.546 112.405 112.471 112.036 112.397 111.627C112.258 110.854 112.125 109.901 111.995 108.796C111.771 106.936 111.591 104.692 111.416 102.528L111.346 101.688C111.274 100.611 111.074 99.5456 110.75 98.5155C110.508 97.7465 110.076 97.051 109.494 96.4934C108.606 95.7316 107.521 95.236 106.364 95.064C105.043 94.8597 103.708 94.7699 102.372 94.7955L91.3044 94.9214C86.7754 94.945 84.4034 94.8519 83.6299 94.6126C82.277 94.2404 81.4924 93.6297 81.4778 92.9355C81.4639 92.3157 82.0343 91.8163 83.1653 91.4525C85.1185 90.8223 90.7945 90.5649 95.0598 90.5357C97.3003 90.5169 99.7203 90.5392 102.247 90.6053C103.926 90.6315 105.6 90.8059 107.249 91.1263C108.948 91.4099 110.553 92.1053 111.922 93.1518C113.124 94.1291 114.047 95.4063 114.598 96.8544C115.013 97.9558 115.294 99.1036 115.432 100.273C115.56 101.262 115.617 102.146 115.667 103.041C115.765 104.788 115.818 106.32 115.836 107.861C115.845 108.67 115.845 109.5 115.836 110.377L115.774 113.128C115.774 113.142 115.77 113.156 115.769 113.17L115.828 113.452L115.441 113.545C115.379 113.56 115.278 113.583 115.228 113.599C115.124 113.629 115.021 113.665 114.921 113.706C114.825 113.743 114.733 113.789 114.648 113.846L114.601 113.894V113.904C114.625 113.964 114.636 114.029 114.634 114.094L114.663 114.195L114.614 114.22C114.607 114.24 114.6 114.259 114.592 114.278L114.542 114.359C114.477 114.431 114.397 114.487 114.308 114.524C114.218 114.561 114.122 114.578 114.025 114.573ZM102.409 94.0978C103.776 94.0677 105.142 94.1608 106.493 94.3761C107.777 94.5713 108.98 95.1259 109.963 95.9759C110.632 96.611 111.128 97.4053 111.407 98.2846C111.751 99.3681 111.963 100.489 112.04 101.623L112.109 102.468C112.283 104.624 112.463 106.862 112.685 108.709C112.814 109.803 112.947 110.741 113.083 111.5C113.152 111.894 113.226 112.25 113.3 112.563L113.334 112.697C113.387 112.929 113.457 113.157 113.543 113.379C113.572 113.444 113.605 113.507 113.644 113.567L113.815 113.536C113.825 113.534 113.834 113.532 113.844 113.53L113.914 113.517H113.917L113.937 113.511V113.209L114.167 113.274L114.947 111.715L114.738 113.022C114.821 112.991 114.913 112.961 115.016 112.929C115.032 112.923 115.055 112.916 115.08 112.909L115.137 110.359C115.147 109.489 115.148 108.666 115.137 107.862C115.119 106.332 115.068 104.808 114.969 103.073C114.919 102.191 114.864 101.32 114.739 100.36C114.608 99.2451 114.343 98.15 113.949 97.0986C113.442 95.7657 112.594 94.5899 111.488 93.6902C110.206 92.7137 108.704 92.0662 107.114 91.8044C105.505 91.4909 103.871 91.3208 102.231 91.296C99.7091 91.2327 97.301 91.2118 95.0668 91.2264C89.5988 91.2633 84.9015 91.6188 83.3809 92.1091C82.4843 92.3978 82.172 92.724 82.1762 92.9153C82.1824 93.2012 82.7493 93.6443 83.8212 93.9378L83.8324 93.9413C84.841 94.2522 89.7045 94.2279 91.3023 94.2196L102.37 94.0936L102.409 94.0978Z" fill="#1A1818"/>
<path d="M84.9931 82.2501C85.1879 82.5798 86.0261 82.9616 87.2294 83.3414C88.4314 83.7351 89.9721 84.1128 91.581 84.7389C92.5585 85.1948 93.4485 85.8187 94.2103 86.5822C94.6798 87.0472 95.1174 87.5433 95.5201 88.0672C95.8086 88.4884 96.1497 88.8711 96.535 89.2059C96.9165 89.4492 97.345 89.6092 97.7926 89.6755C98.2594 89.7318 98.7199 89.5565 98.7338 88.8046C98.7505 87.3762 98.2708 85.9864 97.3766 84.8724C96.265 83.5351 94.8418 82.4913 93.2323 81.8327C91.9916 81.1601 90.6926 80.6013 89.351 80.1633C87.6607 79.6499 85.9927 79.4294 85.3583 79.7543C84.4742 80.2168 84.477 81.4689 84.9931 82.2501Z" fill="#1A1818"/>
<path d="M97.9471 90.0328C97.881 90.0327 97.8151 90.0285 97.7495 90.0203C97.248 89.9487 96.7678 89.7699 96.3417 89.4958C95.9746 89.1967 95.6514 88.8473 95.3818 88.458L95.2426 88.2813C94.8499 87.7694 94.4227 87.2849 93.9641 86.831C93.2365 86.1039 92.3895 85.507 91.46 85.0663C90.3986 84.6539 89.3628 84.3478 88.4481 84.0772C87.973 83.9381 87.5258 83.8059 87.1175 83.6717C85.2735 83.0895 84.8492 82.6874 84.6955 82.4342C84.5131 82.1555 84.3892 81.8428 84.3312 81.5148C84.2732 81.1869 84.2823 80.8506 84.3581 80.5262C84.4114 80.2971 84.5136 80.0822 84.6577 79.8963C84.8017 79.7103 84.9843 79.5577 85.1928 79.4488C86.0129 79.0279 87.9272 79.3722 89.447 79.8327C90.6533 80.2097 91.821 80.7002 92.9347 81.2976C93.1155 81.3901 93.2644 81.466 93.375 81.5181C95.0293 82.204 96.4932 83.2798 97.6417 84.6538C98.5869 85.8278 99.0942 87.2939 99.0767 88.8009C99.086 88.9814 99.0564 89.1617 98.9899 89.3297C98.9234 89.4977 98.8216 89.6495 98.6914 89.7748C98.483 89.9486 98.2183 90.0404 97.9471 90.0328ZM86.2487 79.9544C85.9988 79.9392 85.7486 79.9776 85.5148 80.0671C85.3931 80.1312 85.2867 80.2211 85.2034 80.3306C85.12 80.44 85.0615 80.5664 85.0321 80.7008C84.981 80.9322 84.9768 81.1716 85.0196 81.4046C85.0625 81.6377 85.1517 81.8599 85.2818 82.0579L85.2909 82.0732C85.3131 82.1094 85.5538 82.4488 87.3317 83.0095C87.7379 83.143 88.1782 83.2724 88.6471 83.4101C89.5743 83.6842 90.6246 83.9944 91.7077 84.4152C92.7304 84.8868 93.6608 85.5369 94.4553 86.3351C94.9355 86.81 95.3829 87.3171 95.7943 87.8529L95.9334 88.0316C96.1618 88.3619 96.4318 88.6614 96.7368 88.9227C97.0705 89.1325 97.444 89.2712 97.8337 89.3303C97.9744 89.3586 98.1206 89.3303 98.2406 89.2517C98.346 89.125 98.3984 88.9625 98.3867 88.7982C98.4009 87.4479 97.946 86.1346 97.0998 85.0823C96.0241 83.7904 94.6469 82.7833 93.0898 82.1497C92.9702 82.0934 92.8116 82.0106 92.6245 81.9181C91.5487 81.3404 90.4208 80.8655 89.2557 80.4998C88.2839 80.1806 87.2727 79.9971 86.2508 79.9544H86.2487Z" fill="#1A1818"/>
<path d="M16.9625 116.345C18.8788 116.953 30.4701 117.536 45.6054 117.339C49.8868 117.283 70.3134 117.634 74.8076 116.541C76.6071 116.103 78.8643 114.614 74.578 114.301C64.7626 113.583 60.8054 113.8 45.6715 113.997C41.3901 114.053 20.8822 113.017 16.6258 113.821C13.6759 114.377 14.5029 115.622 16.9625 116.345Z" fill="#1A1818"/>
<path d="M39.8154 117.725C27.8513 117.725 18.6209 117.232 16.861 116.678C15.9178 116.4 14.3479 115.794 14.3959 114.833C14.4265 114.191 15.1353 113.748 16.5612 113.479C19.5425 112.917 30.2379 113.24 38.0459 113.476C41.4306 113.578 44.359 113.667 45.666 113.649C48.0025 113.619 50.0726 113.588 51.9388 113.56C62.084 113.407 66.286 113.347 74.6025 113.954C76.4688 114.093 77.3243 114.446 77.3793 115.105C77.4551 116.01 75.7829 116.661 74.8891 116.879C71.2595 117.762 57.3602 117.714 49.8959 117.688C47.9879 117.68 46.4708 117.676 45.6104 117.688C43.6252 117.713 41.6859 117.725 39.8154 117.725ZM23.3362 113.861C21.1167 113.802 18.8958 113.903 16.6906 114.162C15.4385 114.398 15.0977 114.727 15.0908 114.867C15.081 115.05 15.5512 115.569 17.06 116.012H17.0669C18.7781 116.554 29.6445 117.194 45.6006 116.99C46.4638 116.978 47.9844 116.983 49.8987 116.99C57.3415 117.015 71.1774 117.064 74.7249 116.201C75.8747 115.923 76.6844 115.358 76.6858 115.158C76.6858 115.158 76.5119 114.787 74.5524 114.643C66.2666 114.038 62.0735 114.1 51.9458 114.251C50.0788 114.279 48.0087 114.31 45.6716 114.34C44.3381 114.355 41.5523 114.271 38.0201 114.166C33.4014 114.031 27.7623 113.861 23.3362 113.861Z" fill="#1A1818"/>
<path d="M91.0781 116.795C92.5388 117.306 101.157 117.258 112.401 116.686C113.991 116.606 118.585 116.537 123.2 116.415C127.816 116.293 132.456 116.102 134.141 115.565C135.487 115.133 137.205 113.652 134.001 113.325C126.665 112.614 123.688 112.812 112.376 113.343C110.776 113.425 106.138 113.347 101.503 113.439C96.8682 113.531 92.2418 113.777 90.6788 114.293C88.5135 115.004 89.2111 116.204 91.0781 116.795Z" fill="#1A1818"/>
<path d="M97.3212 117.5C93.9392 117.5 91.6869 117.377 90.9669 117.127C89.7323 116.736 88.9936 116.095 88.9894 115.412C88.9894 114.989 89.2592 114.395 90.5697 113.965C92.4478 113.343 98.2212 113.152 101.496 113.093C103.861 113.046 106.264 113.044 108.192 113.042C110.086 113.042 111.582 113.037 112.358 112.998L114.049 112.918C124.038 112.447 127.053 112.304 134.034 112.98C134.539 113.032 136.071 113.189 136.168 114.105C136.254 114.934 135.035 115.644 134.245 115.898C132.48 116.461 127.623 116.641 123.208 116.765C121.341 116.814 119.478 116.855 117.815 116.89C115.326 116.945 113.359 116.988 112.416 117.035C106.337 117.343 101.118 117.5 97.3212 117.5ZM125.46 113.214C122.524 113.214 119.234 113.37 114.082 113.613L112.391 113.693C111.6 113.733 110.096 113.734 108.193 113.737C106.267 113.737 103.869 113.742 101.509 113.789C96.0065 113.887 92.0987 114.192 90.7882 114.623C89.9729 114.891 89.6843 115.203 89.685 115.407C89.685 115.686 90.1559 116.14 91.1812 116.465L91.1909 116.468C92.5869 116.955 101.302 116.902 112.381 116.339C113.334 116.291 115.303 116.248 117.801 116.194C119.462 116.158 121.324 116.117 123.19 116.068C127.556 115.945 132.356 115.77 134.033 115.233C134.89 114.959 135.499 114.399 135.476 114.175C135.476 114.172 135.422 113.819 133.965 113.67C131.141 113.372 128.303 113.219 125.463 113.212L125.46 113.214Z" fill="#1A1818"/>
<path d="M32.9792 131.816C35.9257 132.526 53.8774 133.843 77.3236 133.583C80.6374 133.545 90.2065 133.568 99.8077 133.285C109.407 133.022 119.038 132.451 122.476 131.75C125.232 131.194 128.616 129.553 121.989 129.529C114.398 129.487 109.083 129.54 102.744 129.693C96.4056 129.832 89.0408 130.1 77.3598 130.24C74.055 130.276 64.4809 130.031 54.9187 129.702C45.3557 129.394 35.8046 129.006 32.5117 129.273C27.9417 129.656 29.1847 130.951 32.9792 131.816Z" fill="#1A1818"/>
<path d="M71.208 133.964C50.9663 133.964 35.7657 132.844 32.8964 132.155C30.4103 131.588 29.1763 130.922 29.2285 130.177C29.2765 129.496 30.2781 129.112 32.4769 128.924C35.2794 128.696 42.6652 128.943 50.4864 129.203L54.9235 129.349C65.3135 129.705 74.3305 129.919 77.35 129.889C85.6658 129.788 91.9038 129.621 96.9162 129.487C98.9925 129.432 100.904 129.381 102.731 129.34C109.28 129.182 114.679 129.132 121.985 129.177C125.579 129.189 126.123 129.664 126.173 130.177C126.283 131.295 122.926 132.009 122.543 132.087C119.389 132.731 110.467 133.339 99.8147 133.629C92.4192 133.846 84.975 133.883 80.5281 133.908C79.1794 133.914 78.0866 133.919 77.3242 133.928C75.2423 133.954 73.1994 133.964 71.208 133.964ZM35.7698 129.534C34.4002 129.534 33.2935 129.56 32.5346 129.621C30.1383 129.823 29.9213 130.236 29.9199 130.241C29.9659 130.406 30.7901 130.963 33.0536 131.48H33.0577C36.0884 132.21 54.461 133.49 77.3166 133.236C78.0817 133.228 79.1745 133.223 80.5247 133.216C84.9688 133.194 92.4074 133.157 99.7924 132.938C110.409 132.647 119.283 132.046 122.399 131.408C123.487 131.256 124.528 130.864 125.445 130.259C125.282 130.154 124.61 129.884 121.977 129.875C114.679 129.834 109.284 129.88 102.741 130.039C100.914 130.079 99.0044 130.13 96.9301 130.185C91.9149 130.32 85.6734 130.486 77.3528 130.587C74.2699 130.62 65.4582 130.409 54.8957 130.048L50.4579 129.901C44.8083 129.713 39.3785 129.534 35.7698 129.534Z" fill="#1A1818"/>
<path d="M82.459 67.8484C82.9039 67.9815 83.3745 68.0039 83.83 67.9138C84.7045 67.8117 85.5655 67.6158 86.3981 67.3295C88.9629 66.4098 91.2899 64.929 93.2093 62.9953L93.8854 62.3108C94.1755 62.0243 94.5205 61.6806 94.8669 61.2675C95.2597 60.8366 95.6285 60.3845 95.9715 59.9132C96.1545 59.6641 96.3471 59.4151 96.528 59.1522L97.0392 58.3356C97.6784 57.2981 98.189 56.1867 98.5598 55.026C98.8435 54.2478 98.9356 53.4127 98.8283 52.5914C98.6259 51.7337 97.4072 50.5742 96.6921 51.9299C95.8303 53.4602 95.2314 54.4834 94.5094 55.7354C93.5453 57.4468 92.3775 59.035 91.0314 60.4654C89.7007 61.6038 88.2179 62.551 86.6256 63.2798C84.6265 64.2773 82.4994 64.8616 81.8177 65.4146C80.8807 66.2166 81.3064 67.3859 82.459 67.8484Z" fill="#1A1818"/>
<path d="M83.1803 68.3076C82.888 68.3191 82.5964 68.2718 82.3227 68.1684C81.9888 68.0544 81.6898 67.8565 81.4542 67.5938C81.2187 67.3311 81.0545 67.0124 80.9774 66.6681C80.9356 66.3826 80.9704 66.0912 81.0783 65.8236C81.1863 65.556 81.3634 65.322 81.5916 65.1454C82.2766 64.7097 83.014 64.3624 83.7862 64.1118C84.616 63.7876 85.5551 63.4204 86.4705 62.9634C88.0271 62.2497 89.4782 61.3254 90.7831 60.2165C92.0125 58.9201 93.0844 57.483 93.9765 55.9351L94.4092 55.2076C95.0457 54.1071 95.6077 53.1368 96.3882 51.7547C96.4842 51.5038 96.6594 51.2911 96.8872 51.1487C97.115 51.0064 97.3831 50.9422 97.6507 50.9659C98.0193 51.0611 98.3551 51.2548 98.622 51.5264C98.8889 51.7979 99.0768 52.137 99.1656 52.5073C99.2949 53.3867 99.2014 54.2846 98.8937 55.1185C98.5134 56.3107 97.9895 57.4522 97.3335 58.5179L96.8215 59.3352C96.6824 59.5341 96.5509 59.715 96.418 59.8917L96.2518 60.1156C95.9026 60.5958 95.5271 61.0563 95.127 61.495C94.7709 61.9214 94.4162 62.2733 94.1296 62.5564L93.4569 63.2381C91.4958 65.2067 89.1225 66.716 86.508 67.6572C85.6491 67.9539 84.7601 68.1552 83.8571 68.2575C83.6329 68.2889 83.4068 68.3056 83.1803 68.3076ZM97.5052 51.6517C97.3981 51.6517 97.202 51.7018 96.9989 52.0879C96.2129 53.479 95.6487 54.4528 95.0109 55.556L94.5713 56.2954C93.6529 57.8874 92.5497 59.3653 91.2846 60.6985C89.924 61.8693 88.4052 62.8425 86.773 63.5894C85.8382 64.0561 84.8831 64.4304 84.0401 64.7601C83.3403 64.9906 82.6686 65.2988 82.0375 65.6789C81.9027 65.7783 81.7971 65.9119 81.7316 66.0659C81.666 66.22 81.6429 66.3887 81.6647 66.5547C81.7248 66.7815 81.841 66.9895 82.0025 67.1596C82.164 67.3298 82.3657 67.4566 82.5891 67.5285L82.6044 67.5355C82.9905 67.6383 83.3952 67.6505 83.7869 67.5709C84.6412 67.473 85.4823 67.2819 86.2952 67.0013C88.8054 66.0944 91.0837 64.6429 92.9666 62.7512L93.6399 62.0695C93.9181 61.7913 94.2604 61.4546 94.6019 61.0463C94.9889 60.6221 95.3523 60.1769 95.6905 59.7129L95.8623 59.4806C95.9896 59.3101 96.119 59.1376 96.2414 58.9575L96.745 58.1527C97.3686 57.1399 97.8671 56.0552 98.2294 54.9224C98.5027 54.2107 98.5941 53.442 98.4951 52.686C98.4387 52.4506 98.3239 52.233 98.1614 52.0535C97.9989 51.874 97.7938 51.7382 97.5651 51.6587C97.5453 51.6552 97.5253 51.6529 97.5052 51.6517Z" fill="#1A1818"/>
<path d="M12.4907 71.531C16.7812 72.8501 20.7364 75.0796 24.0864 78.0671C27.4364 81.0547 30.1022 84.73 31.9018 88.8421" fill="#8362E8"/>
<path d="M13.0485 73.1831C13.3648 73.4995 13.7262 73.7672 14.1211 73.9774C14.6852 74.296 15.4177 74.7224 16.3045 75.1954C18.5578 76.4437 20.7271 77.8378 22.7985 79.369C24.3136 80.6151 25.7181 81.9898 26.9964 83.4778C28.686 85.3621 30.1342 87.4837 31.0538 88.0958C31.789 88.5563 33.6337 88.8929 33.0223 87.0288C32.4278 85.2217 31.5268 83.5304 30.3589 82.0289C28.7984 80.0935 27.0034 78.3596 25.0154 76.8669C23.3713 75.4445 21.6233 74.1469 19.786 72.9848C17.407 71.5241 14.7318 70.5948 13.6961 70.7471C12.2646 70.9182 12.3202 72.2315 13.0485 73.1831Z" fill="#8362E8"/>
<path d="M32.2836 88.8046C31.7846 88.7911 31.2977 88.6472 30.8716 88.3872C29.9997 87.6489 29.2226 86.8055 28.558 85.8762C28.0085 85.1966 27.3853 84.4259 26.7412 83.7066C25.4761 82.2359 24.0878 80.876 22.5913 79.6416C20.5319 78.1223 18.3764 76.7377 16.1383 75.4966C15.458 75.1349 14.8647 74.7968 14.3687 74.5137L13.9514 74.2779C13.5111 74.0483 13.1116 73.7477 12.7689 73.3883C12.5176 73.1066 12.3434 72.7649 12.2631 72.3961C12.1827 72.0273 12.1991 71.644 12.3105 71.2834C12.4289 71.025 12.6175 70.805 12.8549 70.6485C13.0922 70.4921 13.3688 70.4055 13.653 70.3986C14.8174 70.2261 17.5997 71.2333 19.9661 72.6843C21.5683 73.6692 23.0891 74.7809 24.5139 76.0085C24.8116 76.2548 25.0523 76.4551 25.2248 76.5873C27.2383 78.0943 29.0541 79.8487 30.6295 81.8091C31.8198 83.3421 32.7397 85.0671 33.3493 86.9098C33.6637 87.8676 33.3889 88.333 33.1044 88.5556C32.8663 88.7279 32.5774 88.8155 32.2836 88.8046ZM13.9514 71.0768C13.8816 71.0761 13.8118 71.0805 13.7427 71.09C13.5807 71.0877 13.4212 71.1298 13.2814 71.2117C13.1416 71.2936 13.0269 71.4122 12.9497 71.5547C12.8918 71.8032 12.8954 72.062 12.9601 72.3088C13.0248 72.5556 13.1488 72.7829 13.3212 72.9709L13.3268 72.9786C13.6236 73.2492 13.9503 73.4851 14.3006 73.6818L14.7054 73.9113C15.1965 74.1896 15.7843 74.5262 16.4632 74.8852C18.7315 76.1421 20.9156 77.5453 23.0017 79.0858C24.5389 80.3457 25.9627 81.7381 27.2566 83.2468C27.9084 83.9744 28.5379 84.7521 29.0915 85.4386C29.7167 86.3058 30.4383 87.0992 31.2423 87.8036C31.6597 88.0666 32.4102 88.2161 32.6732 88.0081C32.8818 87.8447 32.7712 87.3904 32.6878 87.1345C32.1064 85.3645 31.224 83.7081 30.0793 82.2382C28.5396 80.3237 26.7651 78.6104 24.7977 77.1389C24.6224 77.0046 24.3734 76.7987 24.0673 76.5441C22.669 75.3397 21.1768 74.2486 19.6051 73.2811C17.3723 71.9067 14.9899 71.0768 13.9514 71.0768Z" fill="#8362E8"/>
<path d="M159.871 67.196C161.471 68.1795 171.881 70.5876 184.518 76.4403L185.093 76.7123L185.324 76.8083C185.476 76.8834 185.777 77.0065 185.76 77.3014C185.712 77.5546 185.431 77.6618 185.189 77.8336L182.526 79.407C180.608 80.5436 178.594 81.7525 176.692 82.9274C172.89 85.2771 169.54 87.4897 168.323 88.7091C167.095 89.9403 166.028 92.2969 169.639 90.5336C173.281 88.7557 175.915 87.3611 178.798 85.7042C180.24 84.8764 181.745 83.9826 183.468 82.9434L186.237 81.2656L187.109 80.7404C187.555 80.4719 188.035 80.2167 188.449 79.9113C188.851 79.6528 189.194 79.3135 189.458 78.9149C189.721 78.5164 189.899 78.0673 189.979 77.5964C190.019 77.1785 189.961 76.7571 189.809 76.3659C189.623 75.916 189.342 75.5113 188.986 75.1792C188.547 74.7724 188.05 74.4334 187.51 74.1734L186.606 73.7317L186.025 73.4576C181.915 71.401 177.697 69.5666 173.389 67.9625C167.863 65.9411 162.106 64.6369 160.056 64.6612C157.211 64.6967 157.79 66.0642 159.871 67.196Z" fill="#D7FD49"/>
<path d="M167.704 91.513C167.563 91.5253 167.42 91.5017 167.29 91.4444C167.16 91.3871 167.047 91.2981 166.961 91.1854C166.474 90.5002 167.36 89.1821 168.074 88.4635C169.16 87.3742 171.918 85.4663 176.506 82.631C178.198 81.5877 180.108 80.433 182.345 79.1079L185.009 77.5345C185.046 77.5059 185.111 77.4649 185.175 77.4253C185.267 77.3675 185.406 77.2806 185.415 77.2361C185.407 77.2361 185.252 77.1616 185.202 77.1373L184.367 76.7554C177.798 73.7707 171.045 71.2104 164.148 69.09C162.626 68.6722 161.138 68.14 159.697 67.4978C158.318 66.7452 157.623 65.9286 157.789 65.2545C157.94 64.6466 158.702 64.3287 160.053 64.3099H160.113C162.2 64.3099 167.866 65.569 173.51 67.6328C177.547 69.1258 181.502 70.8334 185.357 72.7481L187.662 73.8611C188.234 74.137 188.761 74.4969 189.226 74.9288C189.617 75.2951 189.925 75.7407 190.13 76.2358C190.302 76.6781 190.369 77.1544 190.325 77.627C190.241 78.1473 190.049 78.6442 189.762 79.0859C189.474 79.5275 189.097 79.9039 188.655 80.1909C188.332 80.4205 187.997 80.6325 187.651 80.826L183.646 83.2425C181.74 84.3923 180.298 85.2444 178.97 86.0074C176.014 87.7046 173.355 89.107 169.788 90.8473C169.147 91.2114 168.438 91.4381 167.704 91.513ZM160.117 65.0048H160.063C158.881 65.0215 158.502 65.274 158.463 65.4222C158.412 65.6309 158.792 66.2158 160.035 66.8913L160.051 66.901C161.452 67.5108 162.893 68.0222 164.364 68.4313C171.289 70.5604 178.07 73.1315 184.666 76.1287L185.51 76.514C185.681 76.5715 185.83 76.6801 185.937 76.8252C186.044 76.9703 186.104 77.1448 186.109 77.3251C186.075 77.4756 186.007 77.6164 185.91 77.7369C185.814 77.8573 185.692 77.9544 185.552 78.0207C185.5 78.0527 185.447 78.0854 185.396 78.1222L182.706 79.7116C180.474 81.0333 178.567 82.1859 176.88 83.2292C172.401 85.9956 169.607 87.9245 168.574 88.9609C167.783 89.7532 167.419 90.6303 167.53 90.7868C167.53 90.7903 167.841 91.0323 169.49 90.2262C173.038 88.4934 175.688 87.096 178.629 85.4085C179.951 84.6483 181.391 83.7975 183.29 82.6519L187.304 80.2285C187.627 80.0481 187.941 79.8505 188.243 79.6365C188.609 79.4063 188.921 79.1018 189.161 78.7429C189.4 78.384 189.562 77.9787 189.635 77.5532C189.666 77.1961 189.615 76.8366 189.486 76.5022C189.318 76.0982 189.065 75.7347 188.746 75.4359C188.331 75.0531 187.863 74.734 187.355 74.4892L185.055 73.3762C181.222 71.4722 177.289 69.7739 173.275 68.2887C167.874 66.3118 162.15 65.0048 160.117 65.0048Z" fill="#D7FD49"/>
<path d="M111.45 81.5445C112.369 82.0634 115.902 83.3099 121.322 83.7836C124.416 84.0484 127.525 84.0995 130.626 83.9366C134.081 83.7829 137.827 83.3802 141.763 82.8557C146.209 82.2547 167.43 79.9606 171.956 78.2975C173.764 77.6311 175.92 75.8629 171.437 76.105C161.169 76.6615 157.087 77.3904 141.424 79.5308C136.446 80.1018 131.439 80.3824 126.428 80.371C123.443 80.3471 120.463 80.1562 117.499 79.7993C116.194 79.6483 115.029 79.457 114.045 79.3214C113.277 79.1794 112.502 79.0781 111.723 79.0181C108.701 78.7225 109.047 80.1471 111.45 81.5445Z" fill="#D7FD49"/>
<path d="M126.922 84.3749C124.939 84.3749 123.055 84.2935 121.288 84.1308C116.145 83.6814 112.417 82.4913 111.277 81.8472H111.273C110.384 81.3303 108.938 80.3245 109.241 79.3855C109.44 78.7706 110.284 78.5334 111.755 78.6739C112.541 78.7338 113.323 78.836 114.098 78.9799C114.407 79.0224 114.741 79.0718 115.093 79.1232C115.836 79.2331 116.654 79.3535 117.537 79.4557C120.488 79.8106 123.457 80.0007 126.429 80.0254C131.424 80.0373 136.416 79.7586 141.379 79.1907C143.895 78.8471 146.116 78.5396 148.11 78.2621C158.49 76.8236 162.787 76.2275 171.417 75.7628C173.364 75.6606 174.293 75.902 174.428 76.5523C174.611 77.4427 172.967 78.3004 172.074 78.6301C168.387 79.9851 153.839 81.7414 146.026 82.6847C144.153 82.9107 142.667 83.0902 141.807 83.2063C137.267 83.808 133.718 84.1523 130.64 84.2894C129.369 84.3443 128.127 84.3749 126.922 84.3749ZM111.623 81.2448C112.36 81.6621 115.717 82.9469 121.352 83.4394C124.431 83.7038 127.524 83.7547 130.61 83.5917C133.67 83.4526 137.199 83.1124 141.718 82.5128C142.578 82.3967 144.067 82.2172 145.944 81.9904C153.73 81.0507 168.222 79.3006 171.835 77.9727C173.018 77.5387 173.756 76.8841 173.747 76.6866C173.747 76.6866 173.522 76.3423 171.456 76.4543C162.855 76.9175 158.567 77.5116 148.208 78.9479C146.213 79.2262 143.992 79.5322 141.471 79.8766C136.476 80.4519 131.453 80.7339 126.425 80.721C123.427 80.6961 120.433 80.5045 117.456 80.1471C116.568 80.0449 115.742 79.9232 114.995 79.8126C114.647 79.7604 114.312 79.7117 113.998 79.6686C113.241 79.5286 112.478 79.4285 111.711 79.3688C110.331 79.2297 109.94 79.4905 109.902 79.6004C109.848 79.775 110.19 80.4115 111.623 81.2427V81.2448Z" fill="#D7FD49"/>
<path d="M97.1174 20.7217C93.6659 20.3634 92.2073 21.8513 92.0348 23.5152C91.4679 28.9637 106.913 28.0045 105.833 38.4007C105.306 43.4751 101.4 46.2609 94.5361 45.5514C89.5863 45.0367 85.8907 42.1715 84.5405 39.3822C84.3684 39.0241 84.2941 38.6267 84.3253 38.2306C84.3565 37.8344 84.4921 37.4536 84.7182 37.1268C84.9444 36.8 85.253 36.539 85.6128 36.3702C85.9725 36.2014 86.3706 36.1309 86.7664 36.1658C87.1184 36.2135 87.4559 36.337 87.7555 36.5279C88.0552 36.7187 88.3098 36.9723 88.5019 37.2711C90.067 39.2007 92.1245 40.8436 94.9945 41.142C98.7799 41.5351 100.739 40.4771 101.007 37.8992C101.638 31.8253 86.1668 33.0343 87.2088 23.0136C87.6373 18.8958 90.9531 15.71 97.5668 16.3972C101.726 16.8299 105.185 18.7441 106.602 21.2879C106.829 21.7083 106.926 22.1863 106.881 22.6617C106.813 23.2512 106.515 23.79 106.051 24.1596C105.587 24.5292 104.995 24.6995 104.405 24.633C103.722 24.4924 103.117 24.0991 102.711 23.5319C101.264 21.9288 99.2678 20.9263 97.1174 20.7217Z" fill="white"/>
<path d="M125.717 29.4972L119.161 46.0522C118.971 46.5513 118.622 46.9737 118.167 47.2536C117.712 47.5335 117.177 47.6552 116.646 47.5999C116.137 47.5499 115.657 47.3383 115.277 46.996C114.896 46.6537 114.635 46.1987 114.532 45.6974L109.897 21.1244C109.836 20.8755 109.82 20.6179 109.849 20.3634C109.916 19.7237 110.234 19.1367 110.733 18.7313C111.233 18.3258 111.872 18.1351 112.512 18.2008C113.023 18.2477 113.504 18.4581 113.885 18.8007C114.267 19.1434 114.527 19.6 114.628 20.1026L117.678 38.078L124.227 21.1842C124.426 20.6951 124.779 20.284 125.232 20.0126C125.685 19.7412 126.214 19.6241 126.739 19.679C127.265 19.7339 127.758 19.9577 128.145 20.317C128.533 20.6762 128.793 21.1514 128.887 21.6711L131.822 39.5477L138.504 22.5837C138.706 22.1127 139.054 21.7193 139.498 21.4624C139.941 21.2054 140.456 21.0986 140.965 21.1578C141.604 21.2246 142.191 21.5427 142.596 22.0421C143.002 22.5416 143.192 23.1815 143.126 23.8212C143.102 24.0765 143.033 24.3256 142.923 24.5571L133.334 47.6507C133.122 48.1284 132.761 48.5247 132.306 48.7804C131.85 49.0362 131.324 49.1377 130.806 49.0696C130.288 49.0016 129.806 48.7678 129.431 48.4031C129.057 48.0384 128.811 47.5624 128.73 47.0462L125.717 29.4972Z" fill="white"/>
<path d="M148.754 48.4979C148.68 49.1314 148.359 49.71 147.861 50.1086C147.363 50.5072 146.728 50.6937 146.094 50.6278C145.459 50.5618 144.877 50.2488 144.471 49.7563C144.066 49.2639 143.871 48.6316 143.928 47.9964L146.406 24.1635C146.472 23.5236 146.79 22.9363 147.29 22.5308C147.789 22.1253 148.429 21.9348 149.069 22.0012C149.709 22.0677 150.296 22.3855 150.702 22.885C151.107 23.3844 151.298 24.0244 151.231 24.6643L148.754 48.4979Z" fill="white"/>
<path d="M159.485 40.7012L158.568 49.5191C158.535 49.8359 158.44 50.143 158.289 50.4231C158.137 50.7031 157.932 50.9505 157.685 51.1512C157.437 51.3519 157.153 51.5019 156.848 51.5927C156.543 51.6835 156.222 51.7133 155.906 51.6803C155.589 51.6474 155.282 51.5524 155.002 51.4008C154.722 51.2491 154.474 51.0438 154.274 50.7966C154.073 50.5493 153.923 50.265 153.832 49.9597C153.741 49.6545 153.712 49.3344 153.744 49.0176L156.187 25.5165C156.253 24.8769 156.571 24.29 157.071 23.8846C157.57 23.4793 158.21 23.2886 158.849 23.3546L166.794 24.1803C171.663 24.686 175.249 27.7925 174.643 33.6152C174.046 39.3552 169.967 41.7905 165.017 41.2764L159.485 40.7012ZM160.813 27.9316L159.934 36.3746L165.092 36.9116C167.671 37.1794 169.37 35.7987 169.652 33.097C169.937 30.3515 168.508 28.7315 165.971 28.4679L160.813 27.9316Z" fill="white"/>
<path d="M182.995 37.763L190.855 38.5803C191.134 38.6093 191.404 38.6928 191.651 38.8262C191.897 38.9596 192.115 39.1401 192.291 39.3576C192.468 39.5751 192.6 39.8252 192.679 40.0937C192.759 40.3622 192.785 40.6438 192.757 40.9224C192.728 41.201 192.644 41.4711 192.511 41.7174C192.377 41.9638 192.197 42.1814 191.979 42.3579C191.762 42.5344 191.512 42.6664 191.243 42.7463C190.975 42.8261 190.693 42.8524 190.414 42.8234L182.554 42.0061L181.758 49.6575L192.781 50.8032C193.354 50.8629 193.881 51.148 194.244 51.5958C194.608 52.0436 194.778 52.6175 194.719 53.1911C194.659 53.7648 194.374 54.2912 193.926 54.6546C193.478 55.0181 192.904 55.1887 192.331 55.129L178.896 53.7323C178.256 53.6655 177.669 53.3474 177.264 52.8481C176.858 52.3487 176.668 51.7088 176.734 51.0689L179.142 27.9016C179.209 27.2619 179.527 26.6749 180.027 26.2695C180.526 25.864 181.166 25.6733 181.806 25.7391L194.783 27.0885C195.068 27.1181 195.343 27.2032 195.594 27.3392C195.845 27.4752 196.067 27.6594 196.247 27.8811C196.427 28.1029 196.561 28.3579 196.643 28.6316C196.724 28.9053 196.751 29.1924 196.721 29.4764C196.692 29.7605 196.607 30.0359 196.471 30.287C196.335 30.5382 196.15 30.76 195.929 30.94C195.707 31.1199 195.452 31.2544 195.178 31.3358C194.905 31.4172 194.617 31.4439 194.333 31.4144L183.769 30.316L182.995 37.763Z" fill="white"/>
<path d="M41.5965 12.707C41.4172 13.2599 41.3436 13.8416 41.3794 14.4217C41.3775 15.5393 41.461 16.6555 41.6292 17.7605C42.177 21.1796 43.2467 24.4942 44.801 27.5884C45.9058 29.9274 47.2019 32.1711 48.6761 34.2967C50.5772 37.0095 52.9742 39.3314 54.2026 39.7751C55.1952 40.157 57.0295 39.8892 55.7663 38.1753C54.3542 36.1852 53.379 34.8177 52.193 33.1803C50.5765 30.9956 49.1329 28.688 47.8755 26.2787C46.9306 24.059 46.1952 21.7558 45.6788 19.3993C44.9464 16.4083 44.5847 13.3602 44.0929 12.3286C43.3779 10.8964 42.1759 11.3367 41.5965 12.707Z" fill="#8362E8"/>
<path d="M55.0474 40.2712C54.7161 40.2714 54.3875 40.2123 54.0771 40.0966C52.7381 39.6097 50.2903 37.203 48.392 34.493C46.9846 32.4801 45.7455 30.3546 44.6873 28.1381L44.4905 27.7423C42.9164 24.6158 41.8351 21.2648 41.2845 17.8079C41.1133 16.6844 41.0286 15.5493 41.0313 14.4127C40.9947 13.7868 41.0785 13.1596 41.2783 12.5653C41.3902 12.1873 41.607 11.8488 41.9035 11.5889C42.1999 11.329 42.5639 11.1584 42.9532 11.0969C43.2899 11.0753 43.9236 11.2117 44.4035 12.1681C44.7985 13.2952 45.0816 14.4586 45.2487 15.6412C45.4636 16.7687 45.7071 18.0479 46.0138 19.3118C46.5232 21.643 47.2496 23.9215 48.1834 26.1174C49.3135 28.2991 50.6075 30.3919 52.0543 32.3777L52.4716 32.9738C53.6541 34.6078 54.628 35.976 56.0442 37.9668C56.721 38.8863 56.5791 39.4539 56.3398 39.7669C56.1755 39.9419 55.9742 40.0779 55.7506 40.1651C55.527 40.2524 55.2868 40.2886 55.0474 40.2712ZM42.9957 11.7918H42.9783C42.5999 11.8043 42.1839 12.2168 41.9196 12.8421L41.9133 12.856C41.7589 13.3625 41.6967 13.8926 41.7297 14.4211C41.7273 15.5225 41.8096 16.6225 41.9759 17.7112C42.5157 21.0937 43.5748 24.3724 45.1158 27.4314L45.3141 27.8299C46.3551 30.0135 47.5746 32.1074 48.9603 34.0902C50.9435 36.9199 53.2869 39.0714 54.3233 39.4463C54.8708 39.655 55.5976 39.6083 55.7945 39.3496C55.9274 39.1764 55.816 38.8223 55.4891 38.3758C54.0743 36.3829 53.0984 35.0161 51.9131 33.3794L51.4923 32.7812C50.0257 30.7676 48.7142 28.6455 47.5692 26.4332C46.6112 24.1874 45.866 21.8567 45.3433 19.4718C45.031 18.1954 44.7868 16.9071 44.5691 15.7706C44.4062 14.6502 44.1429 13.5467 43.7824 12.4735C43.6516 12.2217 43.3789 11.7918 42.9957 11.7918Z" fill="#8362E8"/>
<path d="M107.404 100.115H91.4454V108.942H107.404V100.115Z" fill="#D7FD49"/>
<path d="M171.915 7.44005C171.798 10.5763 171.839 13.7164 172.036 16.8486C172.036 17.3098 172.219 17.7521 172.545 18.0782C172.872 18.4043 173.314 18.5875 173.775 18.5875C174.236 18.5875 174.679 18.4043 175.005 18.0782C175.331 17.7521 175.514 17.3098 175.514 16.8486C175.317 13.7173 175.276 10.5781 175.393 7.44283C175.389 6.98275 175.205 6.54254 174.88 6.21721C174.554 5.89187 174.114 5.70749 173.654 5.70386C173.196 5.7131 172.759 5.89929 172.435 6.22343C172.11 6.54756 171.924 6.98452 171.915 7.44283V7.44005Z" fill="#D7FD49"/>
<path d="M168.737 13.1975L178.936 13.7373C179.396 13.7344 179.837 13.5502 180.162 13.2248C180.488 12.8993 180.672 12.4587 180.675 11.9984C180.665 11.5402 180.479 11.1035 180.155 10.7795C179.831 10.4555 179.394 10.2691 178.936 10.2594L168.737 9.7196C168.276 9.7227 167.836 9.90691 167.51 10.2324C167.185 10.5578 167.001 10.9983 166.998 11.4586C167.007 11.9167 167.194 12.3534 167.518 12.6774C167.842 13.0014 168.278 13.1878 168.737 13.1975Z" fill="#D7FD49"/>
<path d="M107.853 53.1501C107.366 53.669 107.486 56.0271 108.125 59.1176C108.215 59.5572 108.312 60.8336 108.454 62.1294C108.597 63.4253 108.802 64.7483 109.343 65.2826C109.777 65.6999 111.251 66.3732 111.574 65.4356C111.9 64.5441 112.046 63.5967 112.003 62.6484C111.907 61.4086 111.727 60.1769 111.464 58.9617C111.371 58.4887 111.415 57.099 111.277 55.7161C111.139 54.3333 110.838 52.9734 110.309 52.5985C109.583 52.0726 108.417 52.5199 107.853 53.1501Z" fill="#D7FD49"/>
<path d="M110.85 66.2569C110.203 66.2142 109.589 65.9597 109.102 65.5328C108.476 64.9144 108.267 63.5323 108.109 62.1704C108.055 61.6834 108.008 61.1965 107.964 60.7576C107.895 60.053 107.837 59.4443 107.784 59.187C107.455 57.5948 106.778 53.7976 107.596 52.9156C108.308 52.1212 109.648 51.6927 110.512 52.3125C111.218 52.8133 111.506 54.4215 111.625 55.6812C111.695 56.415 111.721 57.1552 111.739 57.7499C111.741 58.1314 111.764 58.5125 111.809 58.8913C112.075 60.1243 112.257 61.3739 112.354 62.6315C112.4 63.6231 112.248 64.6139 111.906 65.546C111.855 65.7132 111.76 65.8636 111.631 65.9821C111.502 66.1007 111.345 66.183 111.174 66.2208C111.068 66.2461 110.959 66.2583 110.85 66.2569ZM109.543 52.7159C108.997 52.7408 108.483 52.98 108.113 53.3816L108.106 53.3872C107.839 53.6716 107.715 55.4141 108.465 59.0465C108.526 59.3407 108.584 59.9361 108.657 60.6901C108.7 61.1256 108.746 61.6076 108.796 62.0917C108.897 62.9459 109.084 64.5402 109.584 65.0348C109.975 65.3792 110.483 65.5617 111.003 65.5453C111.06 65.5342 111.112 65.5073 111.155 65.4679C111.197 65.4284 111.227 65.3779 111.241 65.3221C111.553 64.4715 111.693 63.5672 111.652 62.6621C111.556 61.4389 111.378 60.2234 111.119 59.0242C111.065 58.6091 111.038 58.1908 111.039 57.7721C111.021 57.1886 110.998 56.4616 110.928 55.7494C110.759 53.9408 110.38 53.0748 110.105 52.8808C109.94 52.7684 109.743 52.7107 109.543 52.7159Z" fill="#D7FD49"/>
<path d="M104.686 59.6676C105.055 60.2581 107.44 60.7395 110.598 60.4111C111.492 60.3186 115.727 60.4911 116.715 59.3601C117.111 58.9073 117.652 57.4006 116.776 57.1252C114.768 56.4936 113.934 56.7454 110.774 57.073C109.881 57.1662 105.662 56.3078 104.737 57.1495C104.098 57.731 104.207 58.9685 104.686 59.6676Z" fill="#D7FD49"/>
<path d="M108.583 60.8662C106.465 60.8662 104.801 60.4912 104.395 59.8582C103.825 59.0187 103.729 57.5955 104.504 56.8916C105.2 56.2593 107.057 56.3942 109.229 56.6203C109.73 56.6873 110.234 56.723 110.738 56.7274C111.225 56.6766 111.659 56.6279 112.048 56.5841C114.217 56.3386 115.113 56.2363 116.882 56.7928C117.042 56.8416 117.187 56.9308 117.303 57.0519C117.419 57.1729 117.502 57.3218 117.544 57.4842C117.599 57.855 117.577 58.2329 117.479 58.5947C117.382 58.9565 117.211 59.2945 116.978 59.5877C116.157 60.5274 113.722 60.6651 111.503 60.7208C111.117 60.7305 110.807 60.7375 110.635 60.7556C109.953 60.8276 109.268 60.8645 108.583 60.8662ZM106.488 57.1246C105.966 57.0663 105.438 57.1646 104.971 57.407C104.49 57.8445 104.579 58.8935 104.971 59.4708L104.979 59.4826C105.217 59.8638 107.348 60.398 110.561 60.0655C110.747 60.0461 111.073 60.037 111.483 60.0266C112.874 59.9918 115.763 59.9195 116.451 59.1314C116.772 58.7155 116.922 58.1934 116.873 57.6706C116.863 57.6193 116.838 57.5717 116.803 57.5334C116.767 57.4952 116.721 57.4677 116.671 57.4543C115.042 56.9437 114.247 57.0321 112.124 57.2721C111.733 57.3166 111.299 57.3653 110.808 57.416C110.255 57.4238 109.703 57.3882 109.155 57.3096C108.398 57.2331 107.356 57.1232 106.488 57.1232V57.1246Z" fill="#D7FD49"/>
</svg>
