<svg width="131" height="125" viewBox="0 0 131 125" fill="none" xmlns="http://www.w3.org/2000/svg">
<path d="M19.1041 96.3541C19.1041 76.2934 19.1041 28.6458 19.1041 28.6458C19.1041 20.0163 26.4355 13.0208 35.4791 13.0208H95.5208V80.7291C95.5208 80.7291 49.7598 80.7291 35.4791 80.7291C26.4729 80.7291 19.1041 87.7192 19.1041 96.3541Z" stroke="#333333" stroke-width="10" stroke-linejoin="round"/>
<path d="M95.5208 80.7292C95.5208 80.7292 38.6278 80.7292 35.4791 80.7292C26.4355 80.7292 19.1041 87.7248 19.1041 96.3543C19.1041 104.984 26.4355 111.979 35.4791 111.979C41.5081 111.979 70.6193 111.979 111.896 111.979V18.2292" stroke="#333333" stroke-width="10" stroke-linecap="round" stroke-linejoin="round"/>
<path d="M38.2084 96.3542H92.7917" stroke="#333333" stroke-width="10" stroke-linecap="round" stroke-linejoin="round"/>
</svg>
