<svg width="450" height="362" viewBox="0 0 450 362" fill="none" xmlns="http://www.w3.org/2000/svg">
<mask id="mask0_306_44" style="mask-type:alpha" maskUnits="userSpaceOnUse" x="0" y="0" width="450" height="362">
<rect width="450" height="362" fill="#D9D9D9"/>
</mask>
<g mask="url(#mask0_306_44)">
<path d="M167.096 260.169C165.936 258.384 172.728 239.179 174.99 237.851C178.328 235.889 178.207 241.171 174.703 250.306C170.743 260.631 168.927 262.986 167.096 260.169ZM190.002 245.972C184.149 236.185 182.871 230.586 187.052 233.042C189.92 234.727 200.872 253.772 199.865 255.322C197.984 258.215 196.458 256.768 190.002 245.972ZM207.856 233.93C197.393 231.4 191.527 227.213 198.503 227.256C202.44 227.281 219.837 231.619 221.203 232.917C224.215 235.78 217.586 236.284 207.856 233.93Z" fill="#282728"/>
</g>
</svg>
