<svg width="867" height="367" viewBox="0 0 867 367" fill="none" xmlns="http://www.w3.org/2000/svg">
<mask id="mask0_258_8" style="mask-type:alpha" maskUnits="userSpaceOnUse" x="-15" y="0" width="882" height="367">
<rect x="-15" width="881.454" height="367" fill="#D9D9D9"/>
</mask>
<g mask="url(#mask0_258_8)">
<path d="M25.4749 -520.791V-823.263H268.256H511.038V-520.791V-218.319H268.256H25.4749V-520.791ZM112.38 -312.013C114.477 -312.282 118.182 -313.209 119.529 -313.8C122.773 -315.227 124.642 -316.45 126.936 -318.649C128.703 -320.344 130.767 -323.207 131.029 -324.326C131.057 -324.449 131.264 -325.07 131.488 -325.707C131.88 -326.822 132.42 -329.199 132.305 -329.304C132.204 -329.397 123.909 -331.295 123.579 -331.3C123.401 -331.304 121.446 -331.722 119.235 -332.231L115.215 -333.156L115.052 -332.356C114.724 -330.746 113.694 -329.07 112.464 -328.143C111.818 -327.657 110.922 -327.143 110.922 -327.259C110.922 -327.291 110.6 -327.232 110.207 -327.128C109.379 -326.907 107.84 -326.881 107.007 -327.074C105.769 -327.359 104.459 -328.108 103.63 -329.003C102.121 -330.633 101.791 -331.812 101.791 -335.585C101.791 -339.375 102.085 -340.357 103.765 -342.171C105.093 -343.605 106.794 -344.206 109.176 -344.081C111.088 -343.98 112.834 -343.003 113.938 -341.415C114.421 -340.721 114.948 -339.368 115.081 -338.481C115.134 -338.126 115.249 -337.836 115.335 -337.836C115.422 -337.836 117.086 -338.204 119.033 -338.653C120.981 -339.102 122.704 -339.47 122.863 -339.471C123.022 -339.471 124.739 -339.838 126.679 -340.285C128.618 -340.732 130.657 -341.163 131.209 -341.241C131.762 -341.319 132.272 -341.42 132.344 -341.464C132.535 -341.582 132.349 -342.731 131.883 -344.31C131.121 -346.892 130.515 -348.11 128.968 -350.17C127.544 -352.066 124.689 -354.656 123.195 -355.407C122.928 -355.54 122.189 -355.931 121.552 -356.275C117.352 -358.543 111.836 -359.638 106.629 -359.237C104.223 -359.051 103.466 -358.925 100.769 -358.259C98.8473 -357.784 98.3138 -357.585 96.2719 -356.579C92.5808 -354.76 89.8235 -352.475 87.8824 -349.627C87.4748 -349.029 87.0797 -348.471 87.0049 -348.389C86.6002 -347.942 85.6387 -345.722 85.1787 -344.173C84.3467 -341.372 84.2006 -339.981 84.2143 -334.988C84.2244 -331.26 84.2626 -330.501 84.4977 -329.334C85.3232 -325.238 87.2204 -321.696 90.1274 -318.826C92.0451 -316.932 93.2139 -316.086 95.6588 -314.825C98.6789 -313.267 101.23 -312.445 104.381 -312.013C106.209 -311.762 110.422 -311.762 112.38 -312.013V-312.013ZM148.808 -316.135L149.421 -318.28H154.327H159.233L159.962 -316.134L160.691 -313.987H169.877C174.928 -313.987 179.062 -314.025 179.062 -314.071C179.062 -314.118 174.635 -323.659 169.225 -335.273C160.452 -354.108 159.322 -356.462 158.766 -357.054C157.694 -358.195 155.883 -358.804 154.317 -358.549C152.705 -358.287 151.135 -357.206 150.413 -355.862C150.056 -355.199 132.181 -314.225 132.181 -314.072C132.181 -314.025 135.784 -313.988 140.188 -313.988L148.194 -313.99L148.808 -316.135ZM150.579 -327.019C150.579 -327.234 154.321 -338.518 154.393 -338.518C154.468 -338.518 157.814 -327.26 157.806 -327.036C157.801 -326.913 150.579 -326.897 150.579 -327.019ZM197.596 -317.925V-321.863L200.628 -321.844C203.107 -321.828 203.866 -321.87 204.791 -322.073C210.867 -323.406 215.514 -327.72 217.601 -333.962C218.823 -337.62 219.044 -342.149 218.229 -346.89C217.635 -350.353 216.031 -353.512 213.996 -355.227C209.461 -359.05 202.674 -359.706 186.027 -357.929C184.273 -357.742 182.786 -357.556 182.722 -357.517C182.658 -357.477 182.605 -347.667 182.605 -335.716V-313.987H190.1H197.596L197.596 -317.925ZM197.459 -339.163V-344.322L198.486 -345.133C199.715 -346.106 201.545 -347.191 202.296 -347.393C203.047 -347.596 204.021 -347.477 204.52 -347.121C205.538 -346.397 205.97 -344.472 205.588 -342.361C205.012 -339.178 202.988 -337.085 197.561 -334.061C197.505 -334.03 197.459 -336.326 197.459 -339.163ZM243.93 -322.541V-331.095L249.467 -344.108C252.511 -351.264 255.033 -357.258 255.07 -357.426L255.137 -357.733H248.46C243.282 -357.733 241.753 -357.695 241.647 -357.563C241.573 -357.469 240.733 -355.522 239.781 -353.236C238.829 -350.95 238.006 -349.033 237.951 -348.976C237.896 -348.92 237.052 -350.851 236.076 -353.269L234.301 -357.665L226.221 -357.7L218.142 -357.735L218.205 -357.427C218.24 -357.258 220.701 -351.281 223.673 -344.145L229.076 -331.171V-322.579V-313.987H236.503H243.931L243.93 -322.541ZM273.912 -317.925V-321.863L276.944 -321.844C279.424 -321.828 280.183 -321.87 281.107 -322.073C287.183 -323.406 291.831 -327.72 293.917 -333.962C295.14 -337.62 295.36 -342.149 294.546 -346.89C293.951 -350.353 292.347 -353.512 290.312 -355.227C285.778 -359.05 278.991 -359.706 262.343 -357.929C260.59 -357.742 259.103 -357.556 259.038 -357.517C258.974 -357.477 258.921 -347.667 258.921 -335.716V-313.987H266.417H273.912V-317.925H273.912ZM273.776 -339.163V-344.322L274.802 -345.133C276.032 -346.106 277.861 -347.191 278.613 -347.393C279.363 -347.596 280.337 -347.477 280.836 -347.121C281.854 -346.397 282.286 -344.472 281.904 -342.361C281.329 -339.178 279.304 -337.085 273.878 -334.061C273.822 -334.03 273.776 -336.326 273.776 -339.163ZM308.254 -316.135L308.868 -318.28H313.774H318.68L319.409 -316.134L320.138 -313.987H329.323C334.375 -313.987 338.508 -314.025 338.508 -314.072C338.508 -314.118 334.082 -323.659 328.672 -335.273C319.899 -354.108 318.769 -356.462 318.213 -357.054C317.141 -358.195 315.33 -358.804 313.764 -358.549C312.152 -358.287 310.581 -357.206 309.86 -355.862C309.503 -355.199 291.628 -314.225 291.628 -314.072C291.628 -314.025 295.231 -313.988 299.635 -313.988L307.641 -313.99L308.254 -316.135ZM310.026 -327.019C310.026 -327.234 313.768 -338.518 313.839 -338.518C313.914 -338.518 317.261 -327.26 317.252 -327.036C317.248 -326.913 310.026 -326.897 310.026 -327.019ZM359.768 -322.541V-331.095L365.304 -344.108C368.349 -351.264 370.87 -357.258 370.907 -357.426L370.974 -357.733H364.298C359.12 -357.733 357.59 -357.695 357.485 -357.563C357.41 -357.469 356.57 -355.522 355.619 -353.236C354.667 -350.95 353.843 -349.033 353.788 -348.976C353.733 -348.92 352.89 -350.851 351.913 -353.269L350.138 -357.665L342.059 -357.7L333.979 -357.735L334.043 -357.427C334.078 -357.258 336.538 -351.281 339.51 -344.145L344.914 -331.171V-322.579V-313.987H352.341H359.768L359.768 -322.541ZM179.493 -367.39C197.532 -367.438 212.327 -367.513 212.37 -367.556C212.501 -367.687 211.541 -371 210.972 -372.381C210.179 -374.309 209.359 -375.647 208.246 -376.833C206.94 -378.226 205.879 -378.773 203.933 -379.058C199.884 -379.65 187.934 -380.145 174.631 -380.272C168.553 -380.329 168.475 -380.339 167.704 -381.117C167.112 -381.714 166.889 -382.255 166.888 -383.09C166.887 -384.407 167.732 -385.462 169.045 -385.782C169.345 -385.856 170.05 -385.954 170.612 -386C173.338 -386.225 179.478 -387.785 183.55 -389.287C197.879 -394.571 207.427 -403.319 211.208 -414.63C214.323 -423.944 213.557 -434.652 209.112 -443.952C204.587 -453.42 196.854 -460.883 187.238 -465.061C184.498 -466.252 184.083 -466.491 183.63 -467.143C183.27 -467.66 183.218 -467.85 183.218 -468.664C183.218 -469.478 183.269 -469.667 183.627 -470.175C183.852 -470.494 184.312 -470.904 184.649 -471.084C185.833 -471.72 187.204 -471.356 191.422 -469.287C198.1 -466.011 203.61 -461.607 208.244 -455.844C216.861 -445.125 220.415 -431.223 217.894 -418.105C215.95 -407.987 210.288 -399.173 201.478 -392.549C198.512 -390.32 194.542 -387.959 191.054 -386.35C190.342 -386.022 189.711 -385.713 189.651 -385.665C189.591 -385.616 190.818 -385.534 192.377 -385.481C196.013 -385.359 200.97 -385.039 203.319 -384.775C206.578 -384.407 208.195 -383.892 210.131 -382.605C211.038 -382.003 212.822 -380.337 213.233 -379.71L213.435 -379.401H224.322C230.31 -379.401 235.208 -379.438 235.208 -379.482C235.208 -379.526 234.572 -380.522 233.793 -381.696C227.697 -390.891 223.832 -401.164 222.48 -411.769C221.911 -416.231 221.846 -422.656 222.327 -426.758C223.875 -439.942 228.989 -451.677 237.79 -462.244C240.457 -465.446 245.466 -470.354 246.588 -470.864C248.267 -471.627 250.265 -470.499 250.438 -468.69C250.561 -467.415 250.438 -467.245 246.789 -463.625C241.808 -458.684 239.029 -455.192 235.922 -449.971C228.323 -437.205 225.819 -422.317 228.819 -407.747C230.723 -398.506 234.824 -389.474 240.701 -381.583C241.454 -380.571 242.355 -379.437 242.703 -379.061C243.052 -378.686 243.629 -377.994 243.986 -377.523C245.498 -375.527 250.523 -370.673 253.671 -368.166L254.621 -367.409H280.297H305.973L305.897 -369.555C305.814 -371.927 305.586 -373.028 304.856 -374.586C304.324 -375.724 303.62 -376.596 302.828 -377.098C301.743 -377.786 299.09 -378.49 296.21 -378.854C294.801 -379.033 290.282 -379.263 288.399 -379.253C287.287 -379.247 287.005 -379.293 286.468 -379.57C285.687 -379.972 285.154 -380.719 284.889 -381.786C284.299 -384.163 283.594 -389.021 283.319 -392.614C283.14 -394.951 283.138 -400.726 283.316 -403.114C284.053 -413.02 286.588 -422.255 291.009 -431.141C293.833 -436.818 296.747 -441.276 300.895 -446.268C302.661 -448.393 305.237 -451.103 305.853 -451.483C307.792 -452.682 310.33 -451 309.971 -448.754C309.833 -447.892 309.587 -447.526 308.05 -445.9C303.926 -441.537 300.427 -436.753 297.367 -431.298C296.977 -430.602 296.881 -430.518 296.44 -430.48C295.998 -430.442 295.932 -430.384 295.784 -429.893C295.693 -429.593 294.788 -427.477 293.772 -425.191C292.756 -422.905 291.803 -420.636 291.653 -420.149C291.504 -419.662 291.26 -418.957 291.111 -418.582C290.093 -416.013 288.795 -409.397 288.33 -404.409C288.098 -401.913 288.101 -393.563 288.336 -391.19C288.52 -389.32 289.132 -384.815 289.256 -384.41C289.318 -384.208 289.503 -384.171 290.444 -384.168C292.29 -384.163 296.325 -383.803 298.695 -383.431C301.295 -383.023 301.985 -382.992 301.985 -383.282C301.985 -383.536 303.914 -382.884 305.293 -382.163C307.674 -380.92 309.74 -378.148 310.729 -374.872L311.048 -373.817L327.521 -373.815L343.995 -373.814L343.919 -375.96C343.835 -378.332 343.607 -379.433 342.878 -380.991C342.346 -382.129 341.642 -383.001 340.85 -383.503C339.764 -384.192 337.112 -384.896 334.232 -385.26C332.823 -385.438 328.304 -385.668 326.421 -385.658C323.748 -385.644 323.073 -386.506 322.362 -390.849C321.666 -395.102 322.012 -397.823 323.994 -403.673C329.855 -420.972 333.072 -437.008 334.31 -455.105C334.591 -459.206 334.546 -474.127 334.24 -478.204C333.467 -488.509 332.087 -497.749 329.98 -506.735C329.296 -509.653 329.257 -510.292 329.583 -513.384C330.109 -518.369 330.602 -520.195 332.014 -522.404C332.348 -522.925 332.456 -523.2 332.342 -523.233C332.248 -523.26 331.368 -523.379 330.388 -523.499C320.969 -524.645 313.894 -528.215 309.691 -533.942C308.023 -536.215 306.902 -539.288 306.336 -543.138C306.091 -544.804 306.074 -545.845 306.074 -560.134C306.074 -569.919 306.126 -575.98 306.221 -577.101C306.314 -578.195 306.539 -579.511 306.825 -580.63C308.6 -587.576 312.299 -591.859 318.347 -593.971C323.762 -595.862 331.062 -596.795 340.416 -596.792C346.545 -596.79 351.372 -596.518 357.978 -595.8C359.355 -595.65 360.504 -595.551 360.533 -595.579C360.672 -595.718 346.838 -604.474 340.416 -608.312C323.68 -618.313 307.128 -624.773 293.873 -626.476C282.529 -627.934 268.944 -626.365 256.777 -622.191C252.279 -620.649 250.567 -619.874 249.468 -618.883C248.784 -618.266 248.188 -618.027 247.336 -618.027C246.613 -618.027 245.811 -618.346 245.404 -618.796C245.279 -618.935 244.992 -619.459 244.767 -619.959C244.25 -621.111 242.992 -622.987 241.701 -624.529C237.992 -628.958 232.729 -632.198 228.359 -632.741C223.59 -633.333 218.03 -629.751 215.569 -624.502C214.155 -621.484 214.082 -618.33 215.343 -614.756C216.161 -612.44 217.883 -609.411 219.645 -607.192C221.808 -604.469 223.789 -602.634 226.606 -600.746C228.347 -599.579 228.811 -599.03 228.902 -598.024C228.958 -597.409 228.466 -593.33 228.065 -591.086C225.432 -576.358 222.805 -565.532 218.813 -552.953C216.701 -546.298 213.126 -536.542 212.396 -535.439C212.204 -535.148 211.785 -534.76 211.465 -534.576C211.144 -534.391 208.429 -533.463 205.431 -532.512C174.928 -522.846 160.416 -516.895 148.467 -509.153C135.874 -500.995 126.324 -490.306 118.987 -476.16C111.382 -461.495 107.151 -444.374 105.853 -423.011C105.618 -419.147 105.618 -405.338 105.852 -401.138C106.467 -390.118 107.518 -380.301 109.238 -369.505L109.594 -367.273L128.144 -367.288C138.347 -367.296 161.453 -367.342 179.492 -367.39L179.493 -367.39ZM283.923 -582.743C283.014 -582.955 282.44 -583.549 281.751 -584.994C281.411 -585.708 280.892 -586.646 280.598 -587.079C279.367 -588.891 277.072 -590.496 274.927 -591.045C273.599 -591.384 271.384 -591.409 270.105 -591.098C268.125 -590.617 266.209 -589.429 264.593 -587.679C264.165 -587.216 263.538 -586.703 263.2 -586.539C261.458 -585.695 259.33 -587.045 259.33 -588.994C259.33 -589.931 259.863 -590.863 261.145 -592.163C265.933 -597.022 273.025 -598.33 279.065 -595.469C282.015 -594.072 284.612 -591.602 286.155 -588.726C286.99 -587.172 287.292 -586.298 287.293 -585.443C287.296 -583.577 285.73 -582.322 283.923 -582.743ZM101.383 -379.584L102.405 -379.742L102.447 -380.253C102.47 -380.534 102.303 -382.435 102.075 -384.477C101.324 -391.219 100.787 -398.367 100.616 -403.898L100.522 -406.93H99.9577H99.3935L98.4255 -405.329C93.4749 -397.138 90.9648 -389.459 91.5515 -384.299C91.7643 -382.428 92.121 -381.54 93.0088 -380.668C93.7907 -379.901 94.5451 -379.593 96.1356 -379.389C97.1317 -379.262 99.9883 -379.368 101.383 -379.584ZM338.781 -528.765C343.487 -529.083 347.658 -530.25 351.251 -532.253C353.132 -533.302 354.325 -534.245 356.075 -536.065C357.936 -538 360.752 -541.726 361.67 -543.466C361.831 -543.771 361.822 -543.786 361.519 -543.71C359.027 -543.085 355.771 -543.066 353.476 -543.663C350.201 -544.515 347.349 -546.355 345.353 -548.903C345.043 -549.299 344.753 -549.624 344.709 -549.624C344.665 -549.624 344.375 -549.299 344.065 -548.903C340.13 -543.879 333.209 -541.93 326.857 -544.057C323.8 -545.08 320.326 -547.429 319.575 -548.982C318.766 -550.652 319.889 -552.676 321.721 -552.852C322.687 -552.945 323.224 -552.717 324.573 -551.64C325.883 -550.595 327.965 -549.501 329.378 -549.115C330.773 -548.734 333.634 -548.769 334.965 -549.183C336.833 -549.763 338.242 -550.712 339.61 -552.31C340.435 -553.273 341.072 -554.468 341.658 -556.152C342.358 -558.165 343.159 -558.881 344.709 -558.881C346.26 -558.881 347.06 -558.165 347.76 -556.152C348.346 -554.468 348.983 -553.273 349.808 -552.31C351.177 -550.711 352.585 -549.763 354.453 -549.183C355.785 -548.769 358.645 -548.734 360.04 -549.115C361.889 -549.62 364.257 -550.999 365.908 -552.534C366.797 -553.361 368.627 -560.938 369.236 -566.309C369.727 -570.645 369.873 -577.262 369.575 -581.663C369.391 -584.363 368.93 -588.479 368.797 -588.6C368.526 -588.848 359.653 -590.042 354.738 -590.492C348.666 -591.049 347.225 -591.11 340.416 -591.105C335.022 -591.1 333.22 -591.052 331.422 -590.864C323.695 -590.056 319.162 -588.803 316.625 -586.772C313.98 -584.654 312.553 -581.651 311.564 -576.121C311.342 -574.88 311.325 -573.903 311.365 -565.218C311.456 -545.611 311.62 -542.961 312.951 -539.585C315.331 -533.548 323.279 -529.438 333.867 -528.768C336.211 -528.619 336.625 -528.619 338.781 -528.765ZM303.893 -630.577C303.893 -632.115 303.028 -635.365 302.062 -637.457C300.187 -641.514 296.385 -644.865 292.995 -645.446C292.164 -645.588 291.86 -645.58 290.941 -645.39C286.808 -644.536 282.125 -640.8 278.59 -635.538C277.535 -633.968 276.91 -632.74 276.91 -632.236V-631.751L278.171 -631.851C282.731 -632.211 289.098 -632.158 292.923 -631.727C295.435 -631.444 299.333 -630.787 301.372 -630.303C302.272 -630.09 303.207 -629.908 303.451 -629.899L303.894 -629.883L303.893 -630.577ZM374.069 327.145C355.771 325.221 341.679 313.714 338.26 297.906C337.419 294.015 337.191 290.649 337.329 284.161C337.52 275.218 338.428 271.01 341.427 265.166C343.176 261.76 345.235 259.059 348.448 255.959C354.973 249.663 363.878 245.715 373.909 244.673C377.489 244.301 386.267 244.512 389.173 245.04C394.627 246.032 399.858 247.801 403.799 249.987C411.856 254.456 417.643 260.899 420.312 268.372C421.072 270.501 421.996 274.908 421.733 275.15C421.628 275.248 419.168 275.834 416.267 276.455C413.366 277.075 408.025 278.227 404.398 279.015C398.722 280.248 392.228 281.615 392.049 281.615C392.018 281.615 391.87 280.989 391.719 280.224C391.494 279.077 389.419 270.187 379.386 270.633C371.375 270.99 368.897 277.914 368.633 278.728C362.994 305.991 388.287 307.039 391.803 290.883C401.385 290.697 411.64 294.659 421.153 296.849C422.777 297.235 419.632 306.547 415.952 311.474C413.954 314.149 409.95 317.93 407.128 319.805C401.19 323.753 394.46 326.175 386.999 327.048C383.701 327.434 377.275 327.482 374.069 327.145ZM421.661 323.673C421.661 323.372 453.379 250.751 453.911 249.833C454.221 249.298 454.976 248.398 455.589 247.834C459.221 244.486 465.016 244.558 468.36 247.992C469.404 249.065 470.861 252.092 486.684 286.066C496.139 306.366 503.946 323.164 504.033 323.394C504.183 323.791 503.321 323.814 488.006 323.814H471.82L470.537 320.037L469.254 316.261H460.623H451.991L450.912 320.036L449.834 323.811L435.747 323.814C428 323.814 421.661 323.752 421.661 323.674V323.673ZM466.748 300.856C466.771 300.477 460.872 280.656 460.736 280.656C460.605 280.656 454.029 300.473 454.029 300.867C454.029 301.095 466.734 301.085 466.748 300.857L466.748 300.856ZM510.614 285.452C510.614 264.352 510.704 247.089 510.815 247.089C510.925 247.089 512.948 246.878 515.31 246.62C526.935 245.349 533.456 244.923 541.38 244.917C545.464 244.914 548.317 245.032 550.199 245.281C565.426 247.295 572.284 254.759 573.669 270.826C574.427 279.608 573.275 286.737 570.053 293.202C565.718 301.904 558.297 307.764 549.291 309.597C547.59 309.944 546.161 310.019 541.963 309.984L536.748 309.941V316.877V323.814H523.681H510.614V285.452ZM539.794 286.682C546.664 282.655 549.905 278.893 550.809 273.894C551.286 271.258 551.107 268.989 550.291 267.321C549.384 265.468 548.541 264.95 546.458 264.962C545.013 264.971 544.545 265.093 543.094 265.838C542.166 266.314 540.504 267.389 539.401 268.226C538.296 269.063 537.194 269.895 536.95 270.076C536.534 270.386 536.508 270.936 536.508 279.501C536.508 284.504 536.589 288.552 536.688 288.497C536.787 288.442 538.185 287.625 539.794 286.682ZM592.373 308.977V294.14L582.752 271.034C577.46 258.326 573.078 247.74 573.013 247.509C572.903 247.113 573.689 247.089 587.132 247.089H601.369L604.465 254.768C606.168 258.992 607.645 262.363 607.746 262.261C607.848 262.158 609.324 258.73 611.025 254.642L614.118 247.209L626.04 247.147C637.852 247.086 637.96 247.089 637.81 247.563C637.727 247.826 633.296 258.31 627.963 270.861L618.267 293.682V308.748V323.814H605.32H592.373L592.373 308.977ZM644.881 285.452C644.881 264.352 644.971 247.089 645.082 247.089C645.192 247.089 647.215 246.878 649.577 246.62C661.203 245.349 667.723 244.923 675.647 244.917C679.731 244.914 682.585 245.032 684.466 245.281C699.693 247.295 706.551 254.759 707.937 270.826C708.694 279.608 707.542 286.737 704.321 293.202C699.986 301.904 692.564 307.764 683.558 309.597C681.857 309.944 680.428 310.019 676.23 309.984L671.015 309.941V316.877V323.814H657.948H644.881L644.881 285.452ZM674.062 286.682C680.932 282.655 684.172 278.893 685.076 273.894C685.553 271.258 685.374 268.989 684.558 267.321C683.652 265.468 682.809 264.95 680.725 264.962C679.281 264.971 678.813 265.093 677.361 265.838C676.433 266.314 674.772 267.389 673.668 268.226C672.564 269.063 671.461 269.895 671.218 270.076C670.801 270.386 670.775 270.936 670.775 279.501C670.775 284.504 670.856 288.552 670.955 288.497C671.054 288.442 672.452 287.625 674.062 286.682ZM702.184 323.673C702.184 323.372 733.902 250.751 734.434 249.833C734.745 249.298 735.499 248.398 736.112 247.834C739.744 244.486 745.539 244.558 748.883 247.992C749.927 249.065 751.384 252.092 767.207 286.066C776.662 306.366 784.469 323.164 784.556 323.394C784.706 323.791 783.844 323.814 768.529 323.814H752.343L751.061 320.037L749.778 316.261H741.146H732.515L731.436 320.036L730.357 323.811L716.271 323.814C708.523 323.814 702.185 323.752 702.185 323.674L702.184 323.673ZM747.271 300.856C747.294 300.477 741.395 280.656 741.259 280.656C741.128 280.656 734.553 300.473 734.553 300.867C734.553 301.095 747.257 301.085 747.271 300.857V300.856ZM796.172 308.977V294.14L786.551 271.034C781.259 258.326 776.877 247.74 776.812 247.509C776.701 247.113 777.488 247.089 790.931 247.089H805.167L808.264 254.768C809.967 258.992 811.443 262.363 811.545 262.261C811.647 262.158 813.122 258.73 814.824 254.642L817.917 247.209L829.839 247.147C841.651 247.086 841.759 247.089 841.609 247.563C841.526 247.826 837.094 258.31 831.762 270.861L822.066 293.682V308.748V323.814H809.119H796.172V308.977ZM276.036 111.362C277.26 110.552 277.472 109.002 276.631 107.01C275.161 103.529 271.739 100.168 268.232 98.7594C266.24 97.9597 265.171 97.7432 262.85 97.669C261.045 97.6114 260.529 97.6441 259.306 97.8943C256.166 98.5368 253.499 99.9886 251.189 102.312C249.403 104.108 249.015 104.938 249.359 106.216C249.576 107.022 250.454 107.903 251.256 108.119C252.416 108.431 253.461 108.001 254.527 106.77C257.301 103.568 261.754 102.339 265.613 103.71C268.191 104.627 270.516 106.824 271.578 109.348C272.356 111.195 273.19 111.852 274.656 111.769C275.278 111.734 275.631 111.63 276.036 111.362ZM99.5334 327.282C99.3366 326.963 97.9969 317.808 97.3465 312.336C96.6295 306.305 96.2264 301.717 95.7417 294.075C95.5066 290.368 95.506 274.383 95.7411 270.975C96.5269 259.58 97.7007 251.514 99.8463 242.766C105.494 219.738 117.084 201.068 133.316 188.849C141.076 183.008 151.155 177.719 164.102 172.694C172.013 169.624 180.912 166.576 195.612 161.901C198.32 161.04 200.747 160.246 201.007 160.138C201.951 159.743 202.412 159.072 203.304 156.79C208.313 143.974 212.644 129.418 215.62 115.401C217.048 108.677 218.834 98.4181 218.831 96.9631C218.828 95.7747 218.22 94.9407 216.586 93.8859C209.107 89.0571 203.452 79.5955 204.382 73.4664C205.155 68.3691 209.331 63.642 214.409 62.1165C217.97 61.0467 222.114 62.169 226.754 65.4597C229.868 67.6685 233.128 71.4046 234.713 74.5806C235.392 75.9411 235.901 76.3728 236.945 76.4731C237.75 76.5505 238.472 76.3287 239.047 75.8274C240.287 74.745 241.626 74.1066 245.747 72.6323C258.091 68.2161 272.045 66.5431 283.905 68.0577C297.388 69.7796 313.976 76.3484 331.466 86.8914C334.975 89.0066 336.661 90.05 341.639 93.1883C346.646 96.3444 350.564 98.9299 350.397 98.9675C350.289 98.992 349.021 98.8852 347.579 98.7301C341.226 98.0467 336.204 97.7653 330.376 97.7657C322.143 97.7657 316.431 98.3665 310.82 99.8205C306.656 100.9 304.338 102.09 301.977 104.364C299.313 106.929 297.755 109.828 296.627 114.323C296.229 115.907 296.212 116.105 296.085 120.645C296.013 123.223 295.976 131.042 296.004 138.021C296.052 150.399 296.061 150.748 296.352 152.276C296.95 155.416 297.782 157.699 299.12 159.874C300.223 161.665 303.029 164.437 305.198 165.878C309.321 168.616 314.659 170.395 320.837 171.09C321.661 171.183 322.353 171.272 322.374 171.289C322.395 171.305 322.127 171.802 321.777 172.393C320.974 173.752 320.441 175.086 320.166 176.425C319.85 177.971 319.413 181.533 319.319 183.339C319.237 184.896 319.245 184.956 319.995 188.254C324.408 207.676 325.602 226.934 323.62 246.718C322.083 262.069 318.599 277.532 313.222 292.874C312.483 294.982 311.91 298.093 311.91 299.999C311.91 301.922 312.651 306.277 313.139 307.226C313.274 307.488 313.559 307.869 313.772 308.071C314.471 308.734 314.998 308.861 317.051 308.862C321.542 308.863 326.425 309.409 328.877 310.183C331.366 310.969 332.717 312.5 333.449 315.361C333.77 316.616 334.043 319.454 333.921 320.275L333.834 320.855L317.4 320.821L300.967 320.786L300.599 319.627C300.116 318.107 299.661 317.116 298.927 315.986C297.266 313.433 295.282 312.06 291.894 311.119C290.524 310.738 286.463 310.114 284.791 310.027C284.154 309.994 282.76 309.924 281.693 309.871C280.082 309.792 279.744 309.739 279.693 309.557C279.596 309.208 279.221 306.75 279.005 305.045C278.64 302.168 278.482 298.56 278.565 294.961C278.669 290.41 279.012 287.293 279.894 282.9C280.862 278.078 281.802 275.259 284.35 269.541C285.319 267.366 286.154 265.362 286.205 265.088C286.256 264.814 286.347 264.57 286.407 264.546C286.466 264.522 287.022 263.613 287.642 262.526C290.47 257.567 293.854 252.974 297.732 248.83C299.53 246.909 299.837 246.401 299.83 245.355C299.822 244.279 299.275 243.408 298.284 242.897C297.74 242.616 296.524 242.669 295.897 243.001C294.644 243.666 290.195 248.734 287.2 252.907C280.877 261.718 276.343 272.246 274.372 282.696C273.43 287.691 273.139 290.988 273.139 296.664C273.139 302.47 273.455 305.939 274.451 311.033C274.885 313.254 275.121 313.879 275.749 314.476C276.448 315.139 276.976 315.267 279.028 315.267C283.52 315.268 288.403 315.814 290.855 316.588C293.344 317.375 294.695 318.905 295.427 321.766C295.748 323.021 296.02 325.859 295.898 326.68L295.812 327.259H270.287H244.762L244.232 326.902C242.412 325.676 236.401 320.047 234.537 317.823C231.358 314.03 230.775 313.292 229.344 311.246C222.551 301.535 218.569 290.669 217.609 279.221C217.432 277.116 217.432 272.191 217.609 270.09C218.486 259.668 221.899 250.115 227.93 241.199C230.783 236.981 234.11 233.163 238.366 229.227C239.104 228.545 239.819 227.767 239.955 227.5C240.565 226.305 240.406 225.194 239.495 224.282C238.403 223.191 237.04 223.184 235.6 224.262C234.475 225.104 229.448 230.191 227.881 232.073C224.484 236.152 221.86 240.005 219.592 244.243C211.385 259.583 209.684 276.973 214.746 293.807C216.76 300.506 219.67 306.686 223.68 312.78L225.227 315.131L215.794 315.133C210.606 315.134 205.73 315.174 204.958 315.221L203.554 315.307L202.388 314.057C199.964 311.459 197.778 310.367 194.028 309.881C191.849 309.599 187.847 309.316 183.24 309.118L179.334 308.95L182.15 307.554C188.063 304.624 192.061 301.822 196.227 297.687C199.989 293.954 202.148 291.003 204.255 286.717C207.243 280.64 208.527 275.007 208.527 267.978C208.527 264.413 208.32 262.289 207.646 258.96C205.008 245.922 196.777 234.364 185.102 227.301C182.225 225.562 177.59 223.421 176.228 223.203C174.507 222.928 172.801 224.602 173.11 226.264C173.244 226.988 173.705 227.727 174.264 228.114C174.536 228.302 175.307 228.675 175.978 228.942C177.954 229.728 180.887 231.22 182.745 232.384C193.919 239.385 201.161 250.627 202.775 263.481C203.04 265.592 202.998 271.033 202.701 273.089C201.522 281.237 198.154 288.013 192.47 293.668C186.917 299.194 179.343 303.503 170.111 306.39C166.672 307.466 162.661 308.356 160.181 308.593C158.64 308.741 157.98 309.033 157.313 309.862C156.923 310.348 156.892 310.465 156.892 311.451C156.892 312.437 156.923 312.555 157.313 313.04C157.545 313.328 157.995 313.709 158.315 313.888C158.869 314.197 159.004 314.211 161.233 314.191C167.013 314.139 181.832 314.55 187.964 314.932C194.874 315.364 196.254 315.708 197.975 317.429C199.656 319.112 201.255 322.421 202.15 326.072C202.275 326.58 202.353 327.019 202.325 327.046C202.296 327.073 180.38 327.133 153.621 327.179C126.863 327.225 103.766 327.298 102.294 327.342C100.532 327.395 99.5894 327.374 99.5325 327.283L99.5334 327.282ZM85.3121 314.797C83.4637 314.374 82.5117 313.518 81.9671 311.791C81.5381 310.429 81.5471 307.008 81.9858 304.871C82.8858 300.485 85.1498 295.064 88.2737 289.816C89.2989 288.093 89.4705 287.874 89.7924 287.874H90.1552L90.2462 290.156C90.51 296.768 91.0106 303.407 91.754 310.153C92.0101 312.475 92.1754 314.418 92.1215 314.469C91.6959 314.877 86.7097 315.117 85.3121 314.797ZM323.153 165.764C313.788 164.927 307.087 161.862 303.856 156.938C303.011 155.65 302.413 154.09 302.019 152.14C301.395 149.058 301.367 148.283 301.208 129.926C301.122 119.929 301.155 119.31 301.963 115.93C303.354 110.11 305.87 107.116 310.616 105.631C315.708 104.038 321.693 103.342 330.308 103.34C336.271 103.339 340.015 103.535 346.253 104.176C351.219 104.686 358.469 105.701 358.684 105.916C358.956 106.189 359.458 111.456 359.598 115.515C359.92 124.834 358.901 133.234 356.599 140.229L356.056 141.877L354.809 142.859C353.236 144.099 352.246 144.651 350.614 145.201C348.981 145.751 346.678 145.894 345.026 145.546C341.567 144.819 338.844 142.15 337.588 138.256C337.019 136.492 336.059 135.656 334.601 135.656C333.143 135.656 332.183 136.492 331.614 138.256C330.604 141.386 328.877 143.505 326.288 144.79C324.771 145.543 323.548 145.776 321.518 145.699C318.863 145.599 316.843 144.798 314.433 142.89C313.133 141.861 312.381 141.554 311.546 141.71C310.47 141.912 309.587 142.704 309.316 143.711C308.894 145.279 309.87 146.642 312.758 148.518C315.4 150.235 318.124 151.121 321.246 151.282C324.68 151.458 327.974 150.531 330.76 148.606C331.707 147.951 333.53 146.195 334.271 145.222L334.61 144.778L335.106 145.427C335.834 146.381 337.609 148.056 338.604 148.726C339.758 149.504 341.719 150.414 342.982 150.759C345.287 151.388 348.183 151.472 350.522 150.978C351.109 150.854 351.622 150.786 351.662 150.826C351.779 150.944 349.241 154.675 347.986 156.229C346.4 158.192 343.953 160.543 342.532 161.469C339.382 163.523 335.426 164.939 331.064 165.573C329.361 165.821 324.97 165.927 323.153 165.764ZM291.196 63.9542C288.813 63.4095 285.127 62.8028 282.474 62.5185C279.978 62.2511 272.55 62.1723 269.016 62.3756L267.074 62.4873V62.1642C267.074 61.7978 268.163 59.9037 269.249 58.3797C272.958 53.1755 277.959 49.5331 281.724 49.2937C282.652 49.2346 282.965 49.2759 283.822 49.5704C285.929 50.2943 288.407 52.1909 289.967 54.273C291.78 56.693 293.502 61.2898 293.51 63.7287C293.513 64.5113 293.598 64.5032 291.196 63.9542Z" fill="#292929"/>
</g>
</svg>
