<svg width="329" height="349" viewBox="0 0 329 349" fill="none" xmlns="http://www.w3.org/2000/svg">
<mask id="mask0_11_68" style="mask-type:alpha" maskUnits="userSpaceOnUse" x="0" y="0" width="329" height="349">
<rect width="239.781" height="277.54" transform="matrix(-0.922667 0.385597 0.385597 0.922667 221.238 0)" fill="#D9D9D9"/>
</mask>
<g mask="url(#mask0_11_68)">
<path d="M241.426 283.932C258.403 272.134 272.081 258.222 281.999 242.668C287.892 233.426 287.769 232.602 279.767 227.674C265.839 219.097 248.26 203.665 233.247 186.836L225.401 178.041L219.956 189.456C208.062 214.392 191.894 233.641 172.393 246.083C169.231 248.1 166.418 250.131 166.141 250.596C165.4 251.842 213.469 279.875 227.705 286.498C233.617 289.249 233.836 289.208 241.426 283.932ZM161.514 245.446C161.774 244.208 158.95 242.537 157.571 243.113C157.111 243.306 157.137 244.427 157.629 245.605C158.538 247.779 161.046 247.677 161.514 245.446ZM178.465 233.805C194.096 220.911 209.191 200.017 216.974 180.504C219.152 175.043 219.147 174.952 216.517 171.941C210.213 164.721 210.964 164.541 206.287 174.394C201.134 185.25 191.966 199.724 183.105 210.994C175.577 220.569 164.014 232.332 160.779 233.708C159.603 234.209 158.738 234.855 158.86 235.146C159.063 235.631 169.224 241.284 169.566 241.102C169.65 241.057 173.654 237.774 178.465 233.805ZM152.495 230.864C152.221 230.822 151.03 230.585 149.848 230.338C148.009 229.953 147.783 230.088 148.28 231.278C148.637 232.132 149.657 232.335 150.928 231.804C152.064 231.329 152.77 230.906 152.495 230.864ZM169.102 217.548C186.644 198.105 203.138 171.532 204.747 160.119C205.289 156.275 194.844 131.693 189.039 123.149C183.986 115.712 175.996 106.969 172.09 104.603C168.757 102.584 162.423 102.899 158.417 105.283C153.581 108.161 143.668 119.448 136.367 130.39C132.767 135.784 127.586 142.942 124.852 146.296C122.118 149.651 119.928 153.214 119.984 154.216C120.133 156.861 126.15 161.117 131.235 162.173C134.377 162.825 137.134 162.584 140.913 161.325C147.138 159.252 152.958 153.837 160.937 142.696C165.902 135.763 168.404 134.099 170.129 136.581C171.604 138.705 169.779 142.079 162.121 151.387C156.759 157.905 154.926 160.964 154.065 164.829C152.483 171.939 153.793 178.459 158.104 184.935C162.159 191.026 162.432 193.055 159.309 193.911C154.588 195.204 146.925 181.539 146.967 171.902C146.98 169.019 146.875 166.658 146.734 166.655C146.594 166.652 143.818 167.241 140.566 167.964C132.949 169.658 125.316 168.297 119.78 164.261C115.786 161.348 101.628 157.02 95.0624 156.705C89.4934 156.437 84.796 160.162 81.6272 167.358C76.9398 178.004 77.2649 183.861 82.7809 188.141C88.4479 192.539 114.608 203.289 122.182 204.332C130.174 205.433 134.368 190.627 128.195 183.103C124.774 178.935 118.69 175.705 110.498 173.711C103.021 171.89 101.775 170.917 103.4 168.171C105.654 164.363 121.289 168.705 130.057 175.575C136.782 180.843 139.554 189.763 137.041 198.045C134.38 206.815 128.195 211.38 119.996 210.628L115.719 210.236L120.423 212.576C132.068 218.37 137.075 220.279 148.02 223.101C154.455 224.759 160.317 225.868 161.045 225.563C161.774 225.259 165.399 221.652 169.102 217.548ZM114.858 149.825C115.86 147.723 118.769 143.43 121.323 140.284L125.965 134.565L121.314 132.238C89.7335 116.443 59.6976 105.615 47.16 105.505C43.5951 105.474 42.8352 105.749 41.1029 107.696C38.702 110.396 37.1704 117.93 38.1342 122.299C38.9334 125.922 42.6294 130.341 46.8375 132.705C48.404 133.584 55.0591 135.502 61.6267 136.966C75.8274 140.131 95.7205 146.659 103.526 150.716C111.132 154.668 112.604 154.552 114.858 149.825ZM134.144 122.39C135.818 119.76 139.534 115.083 142.404 111.996C145.273 108.91 147.464 106.009 147.272 105.55C146.592 103.922 128.232 89.2674 120.604 84.2627C106.128 74.7656 86.2793 66.5767 77.5343 66.4932C74.5204 66.4645 73.5632 66.8296 71.4361 68.8191C67.981 72.0508 66.3782 77.7262 67.4108 83.0731C68.8101 90.3197 71.1196 92.1285 87.9417 99.1535C103.961 105.844 126.629 120.494 128.727 125.513C129.786 128.047 130.984 127.357 134.144 122.39Z" fill="#FDFBF5"/>
<path d="M287.146 233.485C287.765 231.63 287.718 231.614 286.651 233.312C285.53 235.095 285.318 236.009 286.103 235.681C286.301 235.598 286.771 234.61 287.146 233.485ZM212.969 190.029C213.587 188.174 213.541 188.158 212.473 189.856C211.352 191.639 211.141 192.553 211.926 192.225C212.124 192.142 212.593 191.154 212.969 190.029ZM206.196 175.251L207.208 172.565L205.744 175.093C204.368 177.469 204.093 178.394 204.856 178.075C205.037 178 205.64 176.729 206.196 175.251ZM116.839 209.457C113.206 208.019 112.594 207.986 113.944 209.299C114.451 209.791 116.041 210.317 117.479 210.469C119.973 210.732 119.943 210.685 116.839 209.457ZM203.303 166.902C203.922 165.047 203.876 165.031 202.808 166.729C202.16 167.759 201.691 168.747 201.766 168.925C202.06 169.63 202.654 168.849 203.303 166.902ZM115.68 174.717C115.606 174.539 114.573 174.178 113.385 173.916C111.427 173.482 111.406 173.527 113.16 174.389C115.002 175.296 115.975 175.422 115.68 174.717ZM67.9289 84.7948C67.4661 83.816 67.1552 83.7075 67.1363 84.5181C67.1192 85.2516 67.4619 85.9762 67.8978 86.1284C68.3336 86.2805 68.3476 85.6804 67.9289 84.7948Z" fill="#D1D0CB"/>
<path d="M218.574 192.717C219.192 190.863 219.146 190.847 218.078 192.544C217.43 193.574 216.961 194.563 217.036 194.741C217.33 195.446 217.924 194.665 218.574 192.717ZM222.744 183.931C223.363 182.077 223.316 182.061 222.249 183.758C221.601 184.788 221.132 185.777 221.206 185.955C221.501 186.66 222.094 185.879 222.744 183.931ZM147.767 165.712C147.57 165.241 146.955 165.045 146.399 165.277C145.844 165.51 145.816 165.974 146.337 166.31C146.858 166.645 147.473 166.841 147.705 166.744C147.936 166.647 147.964 166.183 147.767 165.712ZM116.35 168.277C114.626 167.614 113 167.161 112.738 167.271C112.476 167.381 113.672 168.013 115.396 168.676C117.12 169.339 118.746 169.791 119.008 169.682C119.27 169.572 118.074 168.94 116.35 168.277ZM82.2781 165.663L83.916 161.708L81.8676 165.52C79.9583 169.072 79.605 170.05 80.3418 169.742C80.506 169.674 81.3773 167.838 82.2781 165.663ZM49.9853 134.133C48.6421 133.588 47.3284 133.231 47.0662 133.341C46.8039 133.45 47.6883 133.986 49.0315 134.532C50.3747 135.077 51.6883 135.434 51.9506 135.324C52.2128 135.214 51.3285 134.679 49.9853 134.133Z" fill="#B2B0AC"/>
<path d="M220.628 188.337L221.639 185.651L220.175 188.179C218.799 190.555 218.524 191.48 219.287 191.161C219.468 191.086 220.071 189.815 220.628 188.337ZM73.9442 111.04C70.3764 109.764 67.2428 108.81 66.9805 108.92C66.7182 109.029 69.4227 110.163 72.9905 111.439C76.5583 112.715 79.692 113.669 79.9543 113.559C80.2166 113.45 77.512 112.316 73.9442 111.04ZM91.6814 69.0383C91.6071 68.8605 90.5741 68.4998 89.3859 68.2369C87.4279 67.8036 87.4068 67.848 89.1609 68.7108C91.0031 69.6169 91.976 69.7433 91.6814 69.0383Z" fill="#908F8C"/>
<path d="M231.631 296.014C230.876 296.05 229.803 296.498 229.247 297.01C228.69 297.522 229.308 297.492 230.619 296.944C231.931 296.396 232.386 295.977 231.631 296.014ZM222.026 300.006C221.235 300.047 220.425 300.421 220.227 300.838C220.029 301.255 220.677 301.222 221.667 300.765C222.76 300.259 222.902 299.962 222.026 300.006ZM292.155 237.428C292.774 235.574 292.727 235.558 291.66 237.255C290.539 239.038 290.327 239.953 291.112 239.625C291.31 239.542 291.78 238.553 292.155 237.428ZM152.517 249.669C152.054 248.691 151.744 248.582 151.725 249.393C151.708 250.126 152.05 250.851 152.486 251.003C152.922 251.155 152.936 250.555 152.517 249.669ZM202.095 170.928L204.344 165.712L201.706 170.792C199.252 175.516 198.842 176.564 199.563 176.263C199.719 176.197 200.858 173.797 202.095 170.928ZM126.013 204.301C125.221 204.341 124.411 204.715 124.213 205.132C124.015 205.549 124.663 205.516 125.653 205.059C126.747 204.554 126.888 204.256 126.013 204.301ZM149.887 181.931C149.395 180.753 148.977 180.361 148.959 181.061C148.94 181.76 149.343 182.724 149.854 183.202C150.364 183.681 150.379 183.108 149.887 181.931ZM135.842 183.272C135.232 181.867 134.82 181.482 134.927 182.417C135.033 183.351 135.532 184.501 136.036 184.972C136.539 185.442 136.452 184.678 135.842 183.272ZM205.429 141.111C203.66 136.87 202.728 135.095 203.359 137.166C203.99 139.238 205.437 142.708 206.575 144.878C207.714 147.047 207.198 145.352 205.429 141.111ZM127.005 166.966C126.931 166.788 125.898 166.427 124.71 166.164C122.752 165.731 122.731 165.775 124.485 166.638C126.327 167.544 127.3 167.671 127.005 166.966ZM77.0313 163.831L78.6691 159.877L76.6208 163.688C74.7115 167.24 74.3582 168.218 75.095 167.91C75.2591 167.842 76.1305 166.006 77.0313 163.831ZM98.3726 114.538C98.2983 114.36 97.2653 113.999 96.0771 113.736C94.1191 113.303 94.098 113.347 95.8521 114.21C97.6943 115.116 98.6672 115.243 98.3726 114.538ZM87.7612 115.954C87.6868 115.776 86.6538 115.415 85.4656 115.152C83.5077 114.719 83.4866 114.763 85.2407 115.626C87.083 116.532 88.0558 116.659 87.7612 115.954ZM33.0055 124.544C32.5428 123.565 32.2319 123.457 32.213 124.267C32.1959 125.001 32.5386 125.725 32.9744 125.877C33.4103 126.03 33.4243 125.429 33.0055 124.544ZM70.4685 104.064C70.3941 103.886 69.3612 103.525 68.1729 103.262C66.215 102.829 66.1939 102.873 67.948 103.736C69.7903 104.642 70.7631 104.769 70.4685 104.064ZM63.0558 89.4306C62.5636 88.2528 62.1458 87.8614 62.1273 88.5609C62.1089 89.2604 62.5116 90.224 63.0223 90.7023C63.533 91.1806 63.548 90.6083 63.0558 89.4306ZM98.24 71.3282C98.1657 71.1503 97.1327 70.7897 95.9445 70.5268C93.9865 70.0935 93.9654 70.1379 95.7195 71.0006C97.5618 71.9067 98.5346 72.0332 98.24 71.3282ZM95.4617 64.5684C89.9289 62.4382 88.7885 62.1161 89.0573 62.7592C89.1147 62.8967 91.9185 63.8756 95.2879 64.9346L101.414 66.86L95.4617 64.5684ZM68.2104 72.9386L69.2218 70.2521L67.7578 72.7806C66.382 75.1569 66.1067 76.0817 66.8699 75.7627C67.0509 75.6871 67.6541 74.4163 68.2104 72.9386Z" fill="#4C514E"/>
<path d="M224.888 298.811C224.096 298.851 223.286 299.225 223.088 299.642C222.89 300.059 223.538 300.026 224.528 299.569C225.622 299.064 225.763 298.766 224.888 298.811ZM287.504 234.341C288.123 232.487 288.076 232.471 287.009 234.168C286.361 235.198 285.892 236.187 285.966 236.365C286.261 237.07 286.854 236.289 287.504 234.341ZM96.4899 195.817C96.4156 195.639 95.3826 195.278 94.1944 195.016C92.2364 194.582 92.2154 194.627 93.9695 195.489C95.8117 196.396 96.7846 196.522 96.4899 195.817ZM116.634 174.318C116.56 174.141 115.527 173.78 114.338 173.517C112.38 173.084 112.359 173.128 114.113 173.991C115.956 174.897 116.929 175.023 116.634 174.318ZM102.175 72.7021C102.101 72.5242 101.068 72.1636 99.8796 71.9007C97.9216 71.4674 97.9006 71.5118 99.6547 72.3745C101.497 73.2807 102.47 73.4071 102.175 72.7021Z" fill="#2F2F2F"/>
<path d="M234.23 294.426C247.098 287.983 261.164 277.061 272.822 264.46C282.229 254.292 294.884 233.577 293.586 230.472C293.218 229.592 289.959 227.037 286.344 224.796C275.434 218.032 265.471 210.32 254.873 200.437C245.423 191.625 228.064 172.877 227.003 170.338C226.739 169.705 225.203 168.909 223.591 168.569C221.812 168.193 218.884 166.018 216.144 163.037C212.161 158.705 210.91 156.377 205.548 143.318C196.942 122.361 189.488 111.116 178.5 102.512C171.339 96.905 166.575 96.2606 157.877 99.7219L152.181 101.989L146.461 96.8328C129.215 81.2863 108.828 69.1363 90.9237 63.734C80.5247 60.5963 76.7294 60.3247 71.981 62.3786C59.5653 67.749 57.3319 86.7721 68.0754 95.6445C69.9615 97.2021 76.4038 100.504 82.3916 102.982C94.0125 107.792 104.585 113.487 113.374 119.672C119.672 124.103 119.42 124.916 112.749 121.686C87.653 109.536 61.6272 100.881 48.2567 100.238C41.5534 99.9153 40.8391 100.171 37.0942 104.229C31.9062 109.85 30.6154 118.873 33.8743 126.734C37.623 135.779 42.0114 138.22 63.8611 143.417C82.5188 147.855 91.5067 150.988 88.8234 152.117C79.1508 156.188 70.4304 173.431 72.8427 183.715C74.1112 189.123 77.101 192.199 84.9772 196.199C88.3964 197.936 94.8832 202.252 99.3922 205.791C108.676 213.077 120.834 219.787 133.561 224.65L142.231 227.963L142.676 232.106C143.114 236.186 143.186 236.265 147.374 237.275L151.628 238.301L151.6 242.749C151.567 248.05 153.174 252.344 155.398 252.9C156.283 253.121 161.516 255.902 167.025 259.08L177.042 264.859L175.845 270.241C172.902 283.463 175.265 292.936 183.006 298.955C193.754 307.311 211.657 305.729 234.23 294.426ZM229.611 288.217C227.377 287.352 222.621 285.133 219.04 283.285C209.439 278.33 163.4 251.434 163.643 250.921C163.758 250.679 166.276 249.03 169.239 247.255C189.848 234.916 211.057 209.522 221.596 184.568C223.821 179.298 225.363 176.782 225.972 177.424C226.49 177.969 231.253 183.167 236.557 188.975C251.519 205.359 269.754 220.738 285.691 230.412L288.726 232.255L284.02 240.426C274.327 257.26 259.082 273.167 241.231 285.074C233.65 290.131 234.18 289.988 229.611 288.217ZM156.942 245.767C155.946 241.253 156.248 240.965 160.22 242.645C164.467 244.441 164.708 244.909 162.206 246.503C157.832 249.289 157.715 249.273 156.942 245.767ZM162.749 238.744L156.862 235.98L162.522 231.312C177.294 219.131 197.041 192.832 206.004 173.404L210.478 163.704L215.343 169.306L220.207 174.907L215.263 185.5C209.166 198.562 201.435 210.964 193.556 220.32C187.669 227.311 174.476 239.006 170.606 240.664C169.368 241.194 166.451 240.481 162.749 238.744ZM148.025 232.446C145.833 230.316 147.904 228.977 152.135 229.787L156.266 230.579L152.713 232.064C150.366 233.044 148.774 233.174 148.025 232.446ZM154.304 225.48C144.089 223.409 125.068 216.33 116.451 211.391L108.439 206.799L114.78 208.392C125.675 211.13 129.499 209.968 134.142 202.508C139.509 193.883 137.325 182.439 129.067 175.919C123.45 171.483 116.143 168.399 109.948 167.849C101.844 167.129 100.841 170.986 108.798 172.277C113.951 173.113 121.941 176.513 125.947 179.574C129.521 182.305 132.565 189.728 132.029 194.405C131.59 198.229 127.862 204.215 125.236 205.313C123.309 206.118 92.1797 195.078 85.6706 191.281C76.0944 185.694 74.9706 178.775 81.5636 165.994C85.1406 159.06 88.8504 156.222 94.5405 156.066C100.281 155.908 116.165 160.423 119.821 163.252C126.288 168.254 136.661 169.347 144.916 165.897L148.402 164.44L147.838 168.952C146.741 177.734 154.882 194.936 159.267 193.103C161.517 192.163 161.359 190.481 158.724 187.299C157.535 185.862 155.523 181.67 154.254 177.982C152.438 172.707 152.147 170.183 152.89 166.152C153.851 160.943 154.722 159.495 164.683 146.542C168.662 141.369 170.097 138.721 169.586 137.497C168.49 134.874 166.539 136.291 161.595 143.301C155.151 152.435 147.851 159.638 142.966 161.681C135.384 164.851 127.579 163.58 121.703 158.219C117.932 154.779 118.269 152.99 124.04 145.811C128.732 139.974 129.734 138.59 138.841 125.355C150.151 108.919 160.238 101.036 168.118 102.476C172.65 103.304 179.435 108.898 185.852 117.096C190.143 122.577 192.626 127.122 198.482 140.208C205.426 155.726 205.748 156.725 205.292 161.338C204.336 171.009 186.001 200.254 169.494 218.436C165.792 222.515 162.276 226.055 161.681 226.304C161.085 226.552 157.766 226.182 154.304 225.48ZM108.42 153.732C106.182 152.868 103.241 151.502 101.882 150.696C97.0312 147.818 80.0725 142.298 65.9109 138.988C57.9922 137.137 49.6579 134.836 47.3903 133.875C42.0603 131.617 37.5529 125.923 37.0377 120.8C36.2421 112.886 39.4907 105.547 44.1524 104.727C53.6015 103.065 92.6071 116.417 120.905 131.002C128.025 134.671 128.084 133.994 119.795 143.823C117.199 146.903 114.788 150.622 114.438 152.088C113.619 155.517 113.282 155.609 108.42 153.732ZM126.835 124.906C118.865 116.185 100.557 104.938 83.2555 98.1354C72.8665 94.0506 69.7909 91.7194 67.4731 86.1731C64.5738 79.2356 66.1937 72.1354 71.6999 67.6461C74.1565 65.6432 75.1243 65.4162 79.5362 65.8083C91.3613 66.859 116.743 79.1362 132.133 91.2499C140.912 98.1596 147.852 104.258 148.383 105.528C148.618 106.09 146.646 108.782 144.002 111.51C141.357 114.239 137.461 119.09 135.343 122.29C133.225 125.49 131.23 128.248 130.91 128.419C130.591 128.589 128.757 127.009 126.835 124.906Z" fill="#292929"/>
<path d="M63.3926 442.906C65.3074 433.31 63.3759 424.461 66.6722 415.921C67.3999 414.036 68.133 413.693 69.407 412.903C71.9896 411.302 75.255 407.681 78.6919 403.371C82.5758 398.501 84.9169 396.377 93.5813 391.426C100.296 387.588 102.104 386.636 102.94 384.727C104.055 382.184 102.3 379.061 100.204 378.828C98.9852 378.692 97.1853 379.417 92.9311 381.593C86.9277 384.664 77.8185 388.555 76.4133 388.667C75.8831 388.708 76.0976 388.954 75.8681 388.405C75.4345 387.368 79.9642 381.038 86.1687 372.222C89.1816 367.941 88.6598 366.281 87.9454 364.572C87.4222 363.32 83.2987 361.58 81.7719 362.218C81.086 362.505 77.3284 364.83 75.5109 367.11C65.4642 379.712 65.4862 381.295 63.8003 381.83C61.7643 382.477 62.1859 379.065 64.5381 367.175C65.6943 361.331 64.5845 358.672 61.4197 357.939C60.2401 357.665 58.429 358.698 57.8723 358.93C57.3155 359.163 55.3625 360.49 54.4966 362.258C50.349 370.725 44.3329 387.995 45.1485 389.947C45.4573 390.685 46.2894 392.289 45.5638 392.593C44.5918 392.999 45.7859 392.195 44.4641 388.209C42.7223 382.956 37.5571 378.794 34.8404 378.255C32.8077 377.851 29.758 379.995 28.6489 381.561C27.8041 382.753 27.0616 382.172 33.7673 396.252C38.3683 405.914 38.0077 407.013 40.5792 409.333C43.1739 411.674 46.2136 410.097 45.0376 410.588C44.7554 410.706 44.9894 408.432 44.1289 407.756C43.2683 407.079 39.0474 407.205 38.8583 407.284C38.6692 407.363 37.7933 414.968 37.2644 420.146C36.7354 425.325 35.7239 434.145 35.3879 439.319L34.201 448.772L39.5684 450.202C45.6828 451.83 55.0138 453.824 60.7644 449.971L62.171 449.029L63.3926 442.906ZM59.0673 409.074C58.8136 408.919 64.2411 407.425 64.5861 406.474C65.3546 404.357 60.4958 386.342 58.6488 384.416C57.9072 383.643 57.161 392.772 55.6564 392.053C53.15 390.855 49.6384 394.118 50.9037 393.589C51.6773 393.266 55.9788 395.373 58.105 397.116C61.2825 399.722 58.028 401.684 56.6638 405.361C56.3212 406.285 59.7356 409.482 59.0673 409.074ZM71.1546 387.573C65.887 385.003 61.0569 386.617 57.3624 386.546C54.5132 386.492 63.2272 388.855 64.264 387.959C65.3672 387.005 57.4474 386.539 62.5501 388.199C67.7762 389.899 76.4706 390.716 76.441 391.846C76.407 393.144 76.4398 390.151 71.1546 387.573Z" fill="#FAF8F2"/>
<path d="M70.4984 447.216C73.3115 445.317 74.9744 443.051 75.4636 440.45C76.2331 436.358 73.5249 432.423 67.7479 429.239C66.2712 428.425 64.9685 427.542 64.8532 427.277C64.6215 426.745 66.3507 420.267 67.6937 416.633C68.3034 414.983 69.0799 414.005 70.4034 413.221C72.764 411.823 77.1227 407.501 80.1525 403.555C83.6364 399.018 85.4559 397.639 95.5852 391.859C102.409 387.965 104.026 386.317 104.161 383.122C104.235 381.341 103.991 380.592 102.919 379.323C100.858 376.881 100.101 377.056 88.4312 382.666C82.8836 385.333 77.899 387.699 77.3544 387.923C76.2027 388.396 80.2694 381.488 85.852 373.487C89.8662 367.734 90.1785 366.869 89.1381 364.379C87.8615 361.325 82.5157 359.871 79.7395 361.823C79.1321 362.25 75.3694 366.623 71.378 371.541C67.3866 376.46 64.006 380.447 63.8654 380.402C63.5327 380.295 64.603 372.624 65.7837 366.655C66.3762 363.659 66.4816 361.407 66.0753 360.428C64.7938 357.339 60.7754 356.103 57.061 357.655C55.3744 358.36 54.8089 359.042 53.1331 362.391C50.9975 366.659 48.0885 374.52 46.0691 381.481L44.7825 385.916L43.4123 383.68C41.0809 379.876 39.1526 377.93 37.0404 377.25C33.4075 376.08 28.1483 378.264 26.6156 381.579C25.804 383.335 25.8345 383.46 28.1926 388.014C29.5152 390.569 32.1607 396.243 34.0715 400.624L37.5457 408.588L36.7686 416.984L35.9915 425.38L30.3102 428.055C23.2635 431.373 21.1025 433.53 20.4592 437.889C19.6237 443.551 29.195 450.326 40.466 452.049C51.7961 453.782 63.579 451.886 70.4984 447.216ZM58.3212 449.946C51.6082 451.286 41.9219 450.895 36.7608 449.076L34.6131 448.319L36.0459 438.153C36.8339 432.562 37.8863 424.003 38.3844 419.134C38.8826 414.265 39.4433 410.217 39.6305 410.138C39.8176 410.06 40.6749 410.549 41.5354 411.226C42.396 411.902 43.4657 412.302 43.9127 412.115C44.9401 411.686 45.0027 411.787 42.2888 409.498C39.1079 406.815 37.9724 405.044 35.5208 398.942C34.3499 396.028 32.0988 391.336 30.5182 388.515C27.8701 383.79 27.6897 383.284 28.2219 382.087C29.0488 380.226 31.8307 378.637 34.3011 378.615C37.7295 378.585 39.4572 380.378 42.3294 386.949C44.2044 391.238 44.9847 392.565 45.5044 392.348C45.8833 392.19 46.0769 391.343 45.9346 390.466C45.5142 387.877 49.5413 375.16 54.0036 364.986C56.779 358.659 58.005 357.706 61.8013 358.928C64.7583 359.879 65.0455 361.393 63.6629 368.743C61.4289 380.62 61.4498 383.801 63.7556 382.838C64.5898 382.489 69.0496 377.295 75.9771 368.604C78.2076 365.805 80.6284 363.276 81.3738 362.964C83.3515 362.138 86.8104 363.329 87.5465 365.091C88.3118 366.922 88.0231 367.624 84.424 372.684C82.7881 374.985 79.8717 379.402 77.9432 382.502C72.4265 391.367 73.7584 391.573 88.9651 384.206C96.907 380.358 99.4292 379.295 100.205 379.47C101.777 379.823 102.781 382.926 101.959 384.889C101.324 386.404 100.428 387.064 93.4128 391.18C84.1952 396.589 82.4598 397.972 78.1506 403.345C74.5326 407.856 70.4107 411.771 68.3526 412.65C64.6879 414.216 60.68 435.85 62.164 446.054C62.3972 447.659 62.4443 449.028 62.2685 449.097C62.093 449.166 60.3165 449.548 58.3212 449.946ZM61.392 406.742C61.7482 405.489 61.6862 403.626 61.2356 402.033C60.6127 399.831 60.0678 399.053 57.9276 397.309C55.2287 395.111 51.9717 393.681 50.7889 394.175C49.6894 394.635 50.1919 395.136 53.118 396.498C55.9296 397.807 58.8199 400.305 59.5526 402.058C59.7848 402.614 59.7965 404.334 59.5787 405.881C59.1278 409.083 59.1989 409.495 60.1341 409.099C60.5019 408.943 61.068 407.883 61.392 406.742ZM76.5693 391.553C76.3405 391.006 72.0164 388.822 67.6151 387.03C63.9299 385.53 56.5517 384.234 55.1159 384.834C53.7224 385.416 54.8957 386.408 56.8496 386.299C59.5581 386.148 67.2787 388.45 71.604 390.697C74.7701 392.343 77.0644 392.738 76.5693 391.553ZM102.073 410.395C104.448 407.067 104.709 406.24 103.347 406.348C102.325 406.429 97.6225 412.552 97.961 413.362C98.4231 414.468 99.9532 413.364 102.073 410.395ZM89.4559 413.528C93.9575 409.005 97.8717 403.356 97.357 402.124C96.8008 400.794 95.9924 401.415 94.1187 404.613C93.1886 406.2 90.4843 409.449 88.109 411.832C85.1481 414.804 83.8846 416.423 84.09 416.982C84.5276 418.175 85.3725 417.631 89.4559 413.528ZM24.2811 405.79C24.3584 405.46 23.1379 403.27 21.5691 400.922C18.0368 395.636 15.5016 388.694 15.3005 383.756C15.2243 381.886 14.9682 380.238 14.7315 380.093C12.4391 378.691 12.5844 386.21 14.9809 392.998C16.4783 397.239 19.1907 402.048 21.9195 405.299C23.159 406.775 24.0087 406.952 24.2811 405.79ZM11.7753 400.122C11.5783 399.242 10.6991 396.445 9.82179 393.906C8.37425 389.717 8.14727 389.339 7.36814 389.826C6.24347 390.53 6.56721 392.388 8.7712 397.88C10.2357 401.529 10.7207 402.311 11.354 402.047C11.8222 401.851 11.9906 401.082 11.7753 400.122Z" fill="#292929"/>
</g>
</svg>
