<svg width="1393" height="469" viewBox="0 0 1393 469" fill="none" xmlns="http://www.w3.org/2000/svg">
<path d="M1103.11 1053.97C1187.18 1033.8 1292.17 958.999 1363.8 868.241C1391.31 833.382 1422.51 778.76 1434.24 744.915C1442.23 721.867 1443.73 711.719 1443.73 680.616C1443.73 639.05 1444.2 640.289 1409.74 591.203C1360 520.351 1352.55 515.338 1297.5 515.617C1262.33 515.795 1254.42 517.182 1226.27 528.106C1068.21 589.447 915.272 768.74 915.667 892.219C915.764 922.299 923.143 940.737 950.457 979.144C999.579 1048.22 1008.7 1054.84 1056.66 1056.29C1074.63 1056.83 1095.54 1055.79 1103.11 1053.97ZM1021.71 1025.02C1011.08 1019.96 987.781 994.342 987.873 987.816C987.891 986.699 1000.66 985.583 1016.26 985.335C1079.04 984.337 1161.26 944.004 1237.29 876.918C1290.41 830.047 1361.75 738.056 1358.76 720.302C1358.14 716.649 1354.37 713.13 1350.37 712.482C1344.78 711.577 1339.25 717.437 1326.51 737.75C1304.57 772.753 1247.72 836.761 1212.25 866.399C1103.14 957.575 987.243 987.865 950.335 934.849C937.721 916.73 935.019 896.782 941.074 866.485C964.822 747.666 1102.83 599.947 1234.66 552.232C1275.1 537.593 1320.55 535.943 1342.04 548.332C1368.44 563.551 1377.6 591.173 1370.15 633.096C1366.86 651.627 1367.07 655.923 1371.51 660.943C1379.98 670.512 1388.21 661.434 1391.88 638.471C1393.65 627.44 1396.35 618.416 1397.88 618.416C1403.94 618.416 1421.14 651.067 1423.15 666.359C1427.38 698.632 1412.65 746.79 1382.89 797.998C1359.15 838.842 1302.7 904.767 1263.09 937.891C1171.94 1014.12 1073.46 1049.67 1021.71 1025.02ZM1072.99 847.055C1080.12 838.975 1081.6 838.703 1091.92 843.56C1111.39 852.728 1126.97 853.002 1144.02 844.478C1156.97 838.003 1159.87 834.714 1159.87 826.494C1159.87 813.519 1152.84 810.673 1139.71 818.341C1122.67 828.301 1106.95 826.255 1094.77 812.492C1075.53 790.755 1083.2 756.693 1109.54 746.868C1123.76 741.569 1132.75 745.087 1152.39 763.626C1175.06 785.031 1199.16 787.047 1224.1 769.629C1244.88 755.116 1256.18 714.008 1245.56 691.575C1242.35 684.803 1243.43 681.909 1252.77 672.274C1259.68 665.144 1262.99 658.704 1261.7 654.91C1260.57 651.594 1259.65 648.148 1259.65 647.254C1259.65 642.089 1243.39 646.931 1236.62 654.109C1228.89 662.322 1228.25 662.383 1216.5 656.053C1199.78 647.041 1179 647.799 1162.92 658.007C1149.19 666.728 1145.99 676.321 1154.23 684.05C1157.77 687.37 1162.58 686.615 1174.01 680.943C1192.26 671.894 1204.45 673.894 1215.86 687.804C1226.97 701.354 1229.37 714.014 1223.71 729.314C1213.04 758.179 1186.74 762.986 1162.86 740.439C1145.4 723.963 1136.25 719.491 1119.97 719.491C1081.67 719.491 1054.18 758.802 1063.44 800.338C1067.11 816.803 1066.81 818.394 1058.23 828.512C1041.83 847.86 1056.27 866.002 1072.99 847.055ZM920.12 678.871C937.29 671.952 942.562 666.378 974.277 621.611C1004.51 578.929 1010.81 559.463 1005.2 526.032C987.55 420.865 874.684 293.822 755.603 245.081C728.89 234.147 719.914 232.352 690.232 232.008C644.735 231.479 636.196 236.649 601.071 285.993C567.57 333.055 563.385 344.012 565.432 379.314C568.901 439.157 612.12 513.835 681.63 580.093C766.168 660.676 864.355 701.343 920.12 678.871ZM846.78 653.219C785.954 636.779 725.515 594.893 667.868 529.229C613.268 467.036 587.138 415.356 587.131 369.545C587.129 352.988 589.058 345.032 595.586 334.673L604.044 321.252L608.539 339.233C613.437 358.827 619.278 363.944 628.268 356.517C633.301 352.358 633.594 348.85 630.488 329.867C622.491 280.988 641.221 256.391 686.438 256.391C747.278 256.391 826.819 302.132 895.497 376.613C980.503 468.801 1009.67 569.287 958.442 593.472C919.967 611.636 846.866 587.949 774.909 534.002C741.899 509.253 681.812 443.705 666.065 415.265C652.256 390.325 636.856 385.323 636.935 405.804C637.024 428.637 712.866 517.932 766.277 558.089C820.239 598.66 883.693 626.191 923.242 626.191C938.852 626.191 939.683 626.688 936.235 633.966C929.349 648.504 907.662 659.76 884.626 660.753C879.895 660.957 862.864 657.567 846.78 653.219ZM886.069 499.605C893.13 491.626 892.929 488.899 884.656 480.439C878.933 474.587 878.119 470.164 879.716 453.596C882.789 421.716 864.354 390.855 851.15 405.774C845.354 412.322 845.351 413.199 851.085 424.488C859.987 442.014 858.823 456.933 847.789 466.74C841.243 472.558 835.876 474.284 829.725 472.551C807.873 466.392 802.974 445.969 817.534 421.726C843.379 378.695 807.558 323.147 764.718 339.823C752.052 344.754 750.446 344.566 744.117 337.415C730.865 322.441 716.466 339.973 729.32 355.432C735.313 362.641 736.049 366.32 733.504 376.347C727.256 400.963 739.844 431.815 756.137 431.815C765.666 431.815 767.101 418.974 758.935 406.775C747.693 389.982 759.53 361.84 777.836 361.84C800.657 361.84 810.456 388.041 796.172 410.867C773.644 446.866 791.134 492.851 828.914 496.952C838.597 498.004 849.041 496.809 853.445 494.146C859.586 490.432 862.257 490.614 866.849 495.058C877.158 505.034 880.553 505.837 886.069 499.605ZM1250.62 384.964C1274.38 378.252 1319.2 351.945 1347.39 328.169C1419.59 267.269 1461.48 180.889 1440.66 135.804C1431.21 115.337 1399.48 74.3868 1388.53 68.513C1353.66 49.8195 1286.29 72.4342 1227.23 122.657C1150.72 187.722 1111.27 273.447 1136.67 319.468C1150.38 344.318 1171.66 372.57 1181.89 379.516C1193.68 387.518 1231.09 390.483 1250.62 384.964ZM1193.32 357.297C1185.02 352.379 1189.12 346.29 1200.74 346.29C1252.85 346.29 1355.82 267.596 1390.43 201.32C1396.94 188.841 1397.07 187.225 1391.99 181.486C1383.86 172.294 1381.87 173.37 1368.23 194.378C1316.28 274.334 1212.93 338.371 1169.18 317.714C1146.5 307.007 1144.73 285.99 1162.93 243.271C1190.82 177.801 1266.12 109.986 1331.65 91.3242C1357.72 83.8988 1374.45 86.0481 1386.01 98.3068C1393.54 106.284 1394.29 109.83 1393.26 132.476C1392.14 157.107 1392.33 157.745 1400.62 157.745C1406.12 157.745 1410.55 154.499 1413.18 148.537L1417.24 139.329L1421.39 148.083C1435.07 176.978 1398.15 249.053 1344.53 298.085C1313.03 326.9 1262.48 356.77 1236.96 361.654C1219.36 365.024 1203.74 363.464 1193.32 357.297ZM1223.46 268.659C1224.91 266.017 1231.84 265.372 1242.16 266.919C1263.17 270.068 1281.28 260.882 1279.65 247.906C1278.54 239.119 1267.97 236.865 1255.92 242.847C1252.67 244.457 1247.24 242.601 1242.5 238.265C1236.31 232.607 1235.04 228.668 1236.82 220.661C1240.22 205.387 1253.43 203.002 1266.39 215.325C1280.79 229.015 1294.5 231.637 1309.53 223.578C1324.23 215.695 1332.76 199.006 1331.38 180.831C1330.82 173.577 1332.26 165.503 1334.58 162.888C1340.3 156.424 1339.87 146.11 1333.64 140.268C1329.51 136.393 1326.93 136.603 1320.54 141.336C1314.77 145.61 1310.88 146.15 1306.37 143.302C1298.2 138.135 1277.68 142.095 1269.55 150.407C1261.75 158.376 1261.54 161.271 1268.22 168.809C1272.38 173.51 1275.3 173.76 1283.79 170.141C1291.32 166.926 1295.89 166.855 1300.17 169.887C1312.24 178.436 1307.91 202.452 1294.31 202.452C1291.12 202.452 1283.27 198.078 1276.86 192.733C1262.07 180.407 1240.36 179.576 1227.68 190.85C1217.42 199.973 1209.99 222.095 1213.27 233.769C1214.74 239.03 1213.37 244.601 1209.36 249.608C1204.64 255.503 1204.04 258.89 1206.84 263.908C1211.27 271.855 1220.3 274.437 1223.46 268.659Z" fill="#7DB91D"/>
<path d="M192.659 557.349C145.42 546.015 86.4314 503.989 46.1867 452.996C30.7292 433.41 13.1996 402.72 6.60815 383.704C2.11933 370.754 1.27816 365.052 1.27816 347.577C1.27816 324.222 1.01361 324.918 20.3749 297.339C48.3215 257.53 52.5042 254.713 83.4368 254.87C103.199 254.97 107.644 255.749 123.459 261.887C212.263 296.352 298.196 397.09 297.974 466.468C297.919 483.369 293.773 493.729 278.426 515.308C250.827 554.117 245.704 557.838 218.757 558.651C208.656 558.955 196.912 558.37 192.659 557.349ZM238.39 541.086C244.367 538.238 257.456 523.847 257.404 520.18C257.394 519.553 250.218 518.926 241.455 518.786C206.183 518.226 159.983 495.564 117.267 457.871C87.4223 431.536 47.3347 379.85 49.0169 369.875C49.3631 367.822 51.4854 365.845 53.7332 365.481C56.8723 364.972 59.9804 368.265 67.1352 379.678C79.4638 399.345 111.405 435.308 131.333 451.961C192.638 503.189 257.758 520.208 278.495 490.42C285.583 480.24 287.101 469.032 283.699 452.009C270.355 385.25 192.816 302.252 118.744 275.442C96.0199 267.218 70.4876 266.29 58.4117 273.251C43.5769 281.802 38.4297 297.322 42.6164 320.877C44.4671 331.289 44.3493 333.703 41.8533 336.523C37.0946 341.9 32.4699 336.799 30.4058 323.897C29.4144 317.699 27.8975 312.629 27.035 312.629C23.6333 312.629 13.9657 330.974 12.8396 339.566C10.463 357.699 18.7378 384.757 35.4587 413.529C48.7952 436.478 80.5152 473.518 102.768 492.129C153.984 534.962 209.316 554.936 238.39 541.086ZM209.579 441.092C205.572 436.552 204.744 436.4 198.946 439.129C188.005 444.28 179.253 444.434 169.671 439.644C162.392 436.006 160.763 434.158 160.763 429.54C160.763 422.249 164.717 420.65 172.091 424.959C181.668 430.555 190.5 429.406 197.344 421.673C208.153 409.459 203.844 390.321 189.042 384.801C181.057 381.824 176.003 383.8 164.969 394.217C152.229 406.243 138.693 407.376 124.678 397.59C113.001 389.435 106.651 366.338 112.621 353.734C114.424 349.929 113.816 348.303 108.571 342.89C104.689 338.883 102.827 335.265 103.551 333.133C104.184 331.27 104.701 329.334 104.701 328.832C104.701 325.93 113.841 328.65 117.64 332.683C121.988 337.298 122.345 337.332 128.946 333.775C138.343 328.712 150.018 329.138 159.05 334.873C166.766 339.773 168.565 345.163 163.934 349.506C161.945 351.372 159.242 350.947 152.818 347.76C142.569 342.676 135.716 343.8 129.306 351.615C123.062 359.228 121.718 366.341 124.897 374.938C130.894 391.156 145.668 393.857 159.087 381.189C168.894 371.932 174.037 369.419 183.182 369.419C204.703 369.419 220.149 391.506 214.948 414.844C212.886 424.095 213.052 424.989 217.872 430.674C227.09 441.545 218.976 451.738 209.579 441.092ZM295.472 346.596C285.825 342.709 282.862 339.577 265.043 314.424C248.054 290.443 244.515 279.505 247.668 260.722C257.586 201.632 321.001 130.252 387.907 102.866C402.917 96.723 407.96 95.7144 424.637 95.5207C450.2 95.2239 454.997 98.1286 474.733 125.853C493.556 152.295 495.907 158.452 494.758 178.287C492.808 211.91 468.525 253.869 429.47 291.097C381.971 336.373 326.804 359.222 295.472 346.596ZM336.679 332.183C370.854 322.946 404.813 299.412 437.202 262.518C467.88 227.574 482.561 198.537 482.565 172.798C482.567 163.495 481.483 159.025 477.815 153.204L473.063 145.664L470.537 155.767C467.785 166.776 464.503 169.651 459.452 165.478C456.624 163.141 456.46 161.17 458.205 150.504C462.698 123.041 452.174 109.221 426.769 109.221C392.585 109.221 347.894 134.921 309.306 176.769C261.545 228.566 245.157 285.025 273.94 298.613C295.558 308.819 336.63 295.51 377.06 265.2C395.607 251.295 429.368 214.465 438.215 198.486C445.974 184.473 454.627 181.663 454.582 193.17C454.532 205.999 411.92 256.171 381.91 278.733C351.591 301.529 315.938 316.997 293.718 316.997C284.947 316.997 284.48 317.276 286.417 321.366C290.286 329.534 302.471 335.859 315.414 336.416C318.072 336.531 327.641 334.626 336.679 332.183ZM314.604 245.873C310.636 241.391 310.749 239.858 315.398 235.105C318.613 231.817 319.07 229.332 318.173 220.023C316.447 202.111 326.805 184.771 334.223 193.153C337.48 196.833 337.482 197.325 334.26 203.668C329.258 213.515 329.912 221.898 336.112 227.408C339.79 230.677 342.805 231.647 346.261 230.673C358.539 227.212 361.291 215.737 353.111 202.116C338.59 177.939 358.716 146.728 382.786 156.098C389.903 158.868 390.805 158.763 394.361 154.745C401.807 146.332 409.897 156.182 402.675 164.868C399.307 168.919 398.894 170.985 400.324 176.619C403.835 190.45 396.762 207.785 387.608 207.785C382.254 207.785 381.447 200.57 386.036 193.716C392.352 184.28 385.701 168.468 375.416 168.468C362.593 168.468 357.088 183.19 365.114 196.015C377.771 216.242 367.944 242.078 346.717 244.383C341.276 244.974 335.408 244.302 332.934 242.806C329.483 240.719 327.983 240.822 325.402 243.319C319.61 248.924 317.703 249.375 314.604 245.873ZM109.777 181.461C96.4291 177.69 71.2454 162.909 55.4062 149.55C14.8363 115.333 -8.69542 66.7993 3.00218 41.4679C8.31266 29.9679 26.1371 6.95965 32.2923 3.65943C51.8817 -6.84377 89.7334 5.86257 122.916 34.0808C165.906 70.6381 188.07 118.804 173.802 144.661C166.097 158.624 154.143 174.497 148.394 178.4C141.771 182.896 120.752 184.562 109.777 181.461ZM141.969 165.916C146.635 163.153 144.33 159.731 137.802 159.731C108.523 159.731 50.6693 115.517 31.2241 78.2787C27.5628 71.2672 27.4911 70.3589 30.3446 67.1349C34.9155 61.9702 36.0299 62.5746 43.6984 74.3782C72.8848 119.303 130.952 155.282 155.537 143.676C168.28 137.66 169.271 125.851 159.047 101.849C143.377 65.0641 101.069 26.9616 64.2513 16.4761C49.6018 12.3041 40.1991 13.5117 33.7042 20.3994C29.4778 24.8814 29.0552 26.8737 29.6319 39.598C30.2591 53.4369 30.1547 53.7956 25.4996 53.7956C22.4073 53.7956 19.9191 51.9718 18.441 48.622L16.1582 43.4484L13.8285 48.367C6.13878 64.6016 26.8875 105.098 57.0105 132.647C74.7128 148.837 103.112 165.62 117.449 168.364C127.34 170.257 136.118 169.381 141.969 165.916ZM125.036 116.114C124.224 114.629 120.33 114.267 114.531 115.136C102.725 116.906 92.5477 111.744 93.466 104.453C94.0878 99.5164 100.029 98.25 106.799 101.611C108.622 102.516 111.678 101.473 114.34 99.0367C117.815 95.8576 118.528 93.6442 117.529 89.1453C115.623 80.5637 108.198 79.2238 100.916 86.1472C92.8255 93.8392 85.1224 95.3128 76.6763 90.7843C68.4156 86.3552 63.6237 76.9784 64.4023 66.7668C64.7131 62.6911 63.9035 58.1544 62.6032 56.6852C59.3887 53.0532 59.6285 47.2582 63.1291 43.9756C65.4508 41.7985 66.8986 41.9165 70.4905 44.5757C73.7343 46.9772 75.9194 47.2805 78.45 45.6803C83.041 42.7773 94.575 45.0025 99.1418 49.6723C103.521 54.1502 103.639 55.7765 99.8903 60.0118C97.5527 62.653 95.9097 62.7935 91.1419 60.7601C86.9064 58.9537 84.3433 58.914 81.9378 60.6177C75.1559 65.4208 77.5847 78.9145 85.2311 78.9145C87.0208 78.9145 91.4329 76.4572 95.0357 73.4539C103.343 66.5285 115.539 66.0615 122.666 72.3959C128.433 77.5215 132.607 89.951 130.765 96.5107C129.934 99.4661 130.707 102.597 132.96 105.41C135.613 108.722 135.948 110.625 134.377 113.444C131.888 117.91 126.812 119.36 125.036 116.114Z" fill="#7DB91D"/>
</svg>
