<svg width="1440" height="1024" viewBox="0 0 1440 1024" fill="none" xmlns="http://www.w3.org/2000/svg">
<path d="M71.6522 -1821V1822M145.891 -1821V1822M220.129 -1821V1822M294.368 -1821V1822M368.606 -1821V1822M442.845 -1821V1822M517.083 -1821V1822M591.322 -1821V1822M665.561 -1821V1822M739.799 -1821V1822M814.038 -1821V1822M888.276 -1821V1822M962.515 -1821V1822M1036.75 -1821V1822M1110.99 -1821V1822M1185.23 -1821V1822M1259.47 -1821V1822M1333.71 -1821V1822M1407.95 -1821V1822M1482.18 -1821V1822M1556.42 -1821V1822M1630.66 -1821V1822M1704.9 -1821V1822M1779.14 -1821V1822M1853.38 -1821V1822M1927.62 -1821V1822M2001.85 -1821V1822M2076.09 -1821V1822M2150.33 -1821V1822M2224.57 -1821V1822M2298.81 -1821V1822M2373.05 -1821V1822M2447.29 -1821V1822M2521.52 -1821V1822M2595.76 -1821V1822M2670 -1821V1822M2744.24 -1821V1822M2818.48 -1821V1822M2892.72 -1821V1822M2966.96 -1821V1822M3041.19 -1821V1822M3115.43 -1821V1822M3189.67 -1821V1822M3263.91 -1821V1822M3338.15 -1821V1822M3412.39 -1821V1822M3486.63 -1821V1822M3560.86 -1821V1822M3635.1 -1821V1822M3709.34 -1821V1822M3783.58 -1821V1822M3857.82 -1821V1822M3932.06 -1821V1822M4006.29 -1821V1822M4080.53 -1821V1822M4154.77 -1821V1822M4229.01 -1821V1822M4303.25 -1821V1822M4377.49 -1821V1822M4451.73 -1821V1822M4525.96 -1821V1822M0 -1777.15H4598M0 -1672.58H4598M0 -1568.01H4598M0 -1463.45H4598M0 -1358.88H4598M0 -1254.31H4598M0 -1149.74H4598M0 -1045.18H4598M0 -940.608H4598M0 -836.041H4598M0 -731.473H4598M0 -626.906H4598M0 -522.338H4598M0 -417.77H4598M0 -313.203H4598M0 -208.635H4598M0 -104.068H4598M0 0.50003H4598M0 105.068H4598M0 209.635H4598M0 314.203H4598M0 418.77H4598M0 523.338H4598M0 627.906H4598M0 732.473H4598M0 837.041H4598M0 941.608H4598M0 1046.18H4598M0 1150.74H4598M0 1255.31H4598M0 1359.88H4598M0 1464.45H4598M0 1569.01H4598M0 1673.58H4598M0 1778.15H4598" stroke="#F8F5FF" stroke-width="2" stroke-miterlimit="10"/>
</svg>
