<svg width="450" height="362" viewBox="0 0 450 362" fill="none" xmlns="http://www.w3.org/2000/svg">
<mask id="mask0_306_10" style="mask-type:alpha" maskUnits="userSpaceOnUse" x="0" y="0" width="450" height="362">
<rect width="450" height="362" fill="#D9D9D9"/>
</mask>
<g mask="url(#mask0_306_10)">
<path d="M58.5708 350.143C46.7898 346.535 28.7183 341.798 20.6743 330.188L16.87 324.698L18.1045 316.065C19.568 305.83 33.9737 290.516 39.7303 274.516C42.8224 265.922 49.4511 249.249 49.3549 252.998C49.1913 259.366 64.3316 252.25 69.7781 257.275C86.096 272.329 108.106 270.28 114.347 289.226L117.512 298.832L106.825 313.704C87.9368 339.989 77.7248 352.246 74.78 352.167C73.2049 352.123 65.7779 352.35 58.5708 350.143ZM116.251 291.329C116.251 290.371 120.742 287.813 121.694 288.372C122.646 288.931 122.955 291.906 122.955 292.305C122.955 292.704 122.048 294.774 121.096 294.774C120.145 294.774 116.251 292.287 116.251 291.329ZM100.175 287.406C86.8775 282.989 71.5941 273.372 60.2082 262.257C52.4123 254.647 52.0629 253.927 53.8298 249.108L55.6991 244.01L63.634 251.342C74.9414 261.79 93.5449 266.865 107.604 273.056C119.627 278.35 124.098 284.826 119.865 286.922L111.374 291.127L100.175 287.406ZM102.77 270.777C88.9391 264.002 67.858 248.7 61.1824 240.591C57.5613 236.192 56.6629 232.959 55.9214 221.659C54.9413 206.723 56.8672 184.72 60.8303 178.914C64.1159 174.102 73.4255 168.232 88.9145 173.241C95.6428 175.416 105.52 172.619 110.865 173.756C123.017 176.341 139.803 193.435 136.879 200.147C135.681 202.897 115.408 213.079 113.698 213.949C109.151 216.263 92.5809 247.553 83.0007 244.812C78.4049 243.497 78.4652 203.096 77.676 203.56C75.0173 205.122 94.5605 197.229 98.9133 199.115C101.292 200.145 78.7362 218.415 78.7362 219.939C78.7362 221.463 86.5288 218.266 88.5293 219.989C94.58 225.195 97.3259 231.956 96.7104 240.131C96.244 246.326 96.6973 247.841 99.1654 248.3C102.386 248.899 78.2502 234.441 89.9947 231.293L102.055 228.061L108.391 212.262C110.223 207.695 119.474 229.928 125.275 233.449C134.437 239.011 140.956 207.2 144.588 216.277L149.302 228.061L144.54 237.107C138.916 247.789 129.08 261.748 120.974 270.55L115.169 276.853L102.77 270.777ZM129.01 229.518C127.107 228.116 120.555 231.649 118.876 230.498C116.025 228.543 119.847 222.143 125.523 213.183C131.729 203.384 124.699 178.501 124.699 174.174C124.699 170.231 144.363 179.851 151.836 185.933C161.205 193.557 161.648 202.422 156.171 212.696C151.786 220.923 137.072 232.217 134.064 232.119C133.188 232.088 130.913 230.919 129.01 229.518ZM99.0289 218.717C94.1083 216.016 89.2374 213.223 89.2374 212.931C89.2374 212.64 94.6086 213.135 100.141 213.612C107.571 214.252 101.108 204.518 105.655 203.581L132.372 198.077L128.545 223.779C127.91 228.048 109.993 221.641 110.131 222.841C117.687 288.76 103.95 221.418 99.0289 218.717ZM126.483 194.183C126.397 188.774 122.261 185.258 113.327 182.997L106.295 181.218L95.7006 168.682C91.9599 164.255 105.867 156.176 106.161 155.863C107.384 154.563 130.209 170.476 131.859 173.407C133.864 176.97 132.699 185.001 129.004 193.085C126.645 198.244 126.548 198.286 126.483 194.183ZM85.3283 175.705L74.5188 172.131L77.8435 160.903C79.5916 155 84.2473 149.315 85.3552 148.664C88.3646 146.895 102.646 150.058 103.724 152.729C105.333 156.715 100.115 179.546 98.0495 179.408C96.998 179.337 91.2735 177.671 85.3283 175.705Z" fill="#FCFAF4"/>
<path d="M54.9226 353.099C31.2139 345.292 12.7408 331.51 4.48705 315.471C-5.14437 296.756 3.12046 283.445 26.3459 280.267L35.4366 279.023L39.8353 265.646C42.2546 258.289 45.112 251.263 46.185 250.033C50.0421 245.612 50.9725 239.271 50.4952 220.657C50.1603 207.599 50.8752 198.197 52.8039 190.295C55.7993 178.023 58.6277 173.801 64.8479 172.316C67.6696 171.643 70.0993 168.409 73.5024 160.797C79.9638 146.343 82.5732 144.364 93.8171 145.391C99.9001 145.947 103.724 147.255 105.558 149.409C107.054 151.165 113.196 155.094 119.206 158.14C125.217 161.186 132.217 166.041 134.763 168.929C137.308 171.817 141.726 175.344 144.581 176.766C152.617 180.77 162.476 190.273 163.801 195.291C166.126 204.097 150.868 240.399 136.206 260.948C131.057 268.163 129.295 272.187 129.635 275.945C129.94 279.305 129.204 281.409 127.506 282.028C125.352 282.814 125.253 283.836 126.924 288.044C128.261 291.412 128.368 293.901 127.243 295.459C126.312 296.75 118.993 306.908 110.98 318.034C102.966 329.16 92.8453 342.516 88.4882 347.715C81.1692 356.447 80.0399 357.159 73.6459 357.076C69.8397 357.026 61.4142 355.237 54.9226 353.099ZM83.7181 345.253C87.0061 341.409 96.0863 329.468 103.896 318.719C119.047 297.867 119.101 297.541 107.706 295.509C92.9863 292.884 74.7572 282.716 57.4344 267.469L47.2095 258.469L46.0166 263.002C43.0386 274.318 31.8506 299.939 24.8066 311.575C15.865 326.345 15.691 325.745 31.9611 336.25C45.2747 344.845 63.1901 351.596 73.9628 352.076C76.4404 352.186 79.7964 349.839 83.7181 345.253ZM122.955 291.385C122.955 290.48 122.222 289.74 121.327 289.74C120.431 289.74 119.217 290.48 118.629 291.385C118.041 292.29 118.774 293.03 120.257 293.03C121.741 293.03 122.955 292.29 122.955 291.385ZM115.055 287.751C118.163 283.532 117.643 282.919 107.921 279.349C97.0243 275.348 78.2914 263.409 66.168 252.738C60.2312 247.512 55.0165 243.577 54.5798 243.992C54.1428 244.408 53.309 247.013 52.7263 249.783C51.84 253.996 52.6871 255.891 57.915 261.393C67.9977 272.003 90.4542 285.611 105.653 290.321C110.604 291.855 112.391 291.367 115.055 287.751ZM123.359 268.329C131.662 259.306 146.186 237.061 148.041 230.526C149.156 226.602 148.961 226.658 143.78 231.76C137.024 238.411 133.43 238.457 123.588 232.019C117.934 228.321 114.652 227.209 111.562 227.947C109.225 228.505 105.966 228.276 104.32 227.437C101.625 226.066 101.328 226.986 101.328 236.702C101.328 243.861 100.601 247.725 99.1654 248.191C97.5972 248.7 97.0027 246.243 97.0027 239.253C97.0027 229.632 95.2126 225.534 88.0246 218.7C86.3016 217.062 84.8919 214.596 84.8919 213.22C84.8919 211.843 82.9254 209.865 80.5218 208.824C76.0816 206.901 75.5629 202.818 79.918 204.07C81.2264 204.446 87.7532 205.867 94.422 207.228C104.949 209.377 107.221 209.396 111.66 207.367C122.527 202.402 123.96 191.779 114.125 189.096C111.845 188.474 100.71 185.262 89.3812 181.958C65.6084 175.025 62.1386 175.442 58.8797 185.623C55.8446 195.105 54.675 227.335 57.1112 234.353C59.5487 241.374 73.8548 254.331 90.5136 264.604C101.158 271.167 111.643 276.353 114.602 276.517C115.242 276.554 119.183 272.868 123.359 268.329ZM144.56 223.621C153.692 213.965 159.287 204.546 159.287 198.827C159.287 194.618 155.689 190.337 146.631 183.769C139.844 178.847 138.526 178.581 138.526 182.134C138.526 186.123 129.884 205.773 124.397 214.26C121.701 218.431 119.494 222.29 119.494 222.836C119.494 224.309 132.083 232.171 134.442 232.171C135.56 232.171 140.113 228.324 144.56 223.621ZM115.078 218.815C117.576 215.992 120.859 211.366 122.372 208.535L125.125 203.386L121.012 206.977C114.786 212.414 107.965 214.264 98.5331 213.075C93.8852 212.489 90.0823 212.473 90.0823 213.037C90.0823 214.46 106.049 223.874 108.527 223.913C109.632 223.931 112.58 221.637 115.078 218.815ZM132.865 182.449C134.101 174.173 130.877 170.05 117.962 163.388C107.395 157.936 107.383 157.935 107.368 161.743C107.362 163.839 106.875 169.343 106.289 173.973L105.225 182.391L113.258 183.536C123.029 184.929 127.355 189.914 125.864 198.06C125.001 202.773 125.295 202.534 128.419 195.984C130.36 191.913 132.361 185.823 132.865 182.449ZM102.093 160.385C102.204 151.025 101.011 149.929 90.7149 149.929C85.0129 149.929 84.4427 150.472 79.4075 160.702C76.4912 166.626 74.4671 171.818 74.9096 172.239C75.3518 172.659 81.0879 174.733 87.656 176.847L99.5979 180.691L100.796 174.768C101.455 171.51 102.039 165.038 102.093 160.385Z" fill="#282728"/>
</g>
</svg>
