<svg width="450" height="362" viewBox="0 0 450 362" fill="none" xmlns="http://www.w3.org/2000/svg">
<mask id="mask0_306_44" style="mask-type:alpha" maskUnits="userSpaceOnUse" x="0" y="0" width="450" height="362">
<rect width="450" height="362" fill="#D9D9D9"/>
</mask>
<g mask="url(#mask0_306_44)">
<path d="M194.433 204.354C190.151 200.283 183.509 189.16 183.509 188.332C183.509 187.504 174.046 173.227 183.135 170.631C192.223 168.036 219.187 176.047 222.401 174.409L228.245 171.432L253.358 168.917C265.224 167.729 234.861 193.29 222.012 198.727C216.536 201.045 209.137 203.323 205.568 203.791C199.673 204.564 201.507 211.08 194.433 204.354ZM240.603 184.405C240.603 182.56 238.901 177.934 236.821 174.125C234.361 169.621 203.041 169.026 202.925 163.03C202.817 157.478 220.616 153.925 218.89 151.42L226.948 140.446L232.824 141.706C236.055 142.399 239.128 142.559 239.651 142.061C242.215 139.624 239.995 137.028 234.51 136.05C226.676 134.652 188.156 133.289 186.075 126.388C185.179 123.42 210.199 126.948 208.807 126.948C206.043 126.948 208.37 114.986 211.491 133.098C213.403 144.191 227.727 151.617 224.527 155.691C220.323 161.044 195.149 157.923 191.84 155.312C190.563 154.305 192.111 150.024 191.524 146.197C190.937 142.369 169.378 132.526 173.176 123.166L181.002 103.881L182.725 98.7991C184.326 94.0783 190.873 93.4877 214.99 93.4877C245.788 93.4877 254.533 97.5224 261.14 110.118C264.806 117.107 264.825 119.929 264.825 114.858C264.825 113.769 264.95 111.235 271.299 109.506C283.048 106.307 311.835 89.4998 323.556 81.9219C329.655 77.9784 335.71 81.8062 337.881 84.542C346.041 94.8256 361.306 120.395 358.976 137.196L357.694 146.439L351.223 150.833C338.01 159.803 297.016 159.877 283.133 165.392L277.122 167.78L251.731 156.55C247.197 154.544 273.948 155.668 273.511 154.041C271.538 146.697 284.944 156.089 284.917 163.752C284.891 170.23 265.284 182.96 263.395 185.701C259.719 191.036 247.143 190.743 239.104 190.743C233.991 190.743 240.603 187.161 240.603 184.405ZM170.064 180.08C168.047 178.693 161.118 174.652 159.088 168.395C158.098 165.342 155.649 161.481 158.75 161.481C160.818 161.481 172.96 161.94 178.652 160.538C186.662 158.565 187.868 153.378 189.772 154.881C191.279 156.069 196.527 154.398 201.018 153.831C209.494 152.762 218.111 152.002 218.111 145.102V140.973L221.812 144.491C224.241 146.801 225.794 150.798 226.332 156.127C227.087 163.594 226.756 164.512 222.199 167.593C211.762 174.652 187.811 192.285 181.41 187.883L170.064 180.08ZM150.355 148.996C146.409 142.703 143.065 136.497 143.042 129.607C143.029 124.961 153.423 113.519 162.641 109.458C171.881 105.388 184.001 103.113 185.669 109.861C186.667 113.896 180.783 121.102 172.694 123.867C163.489 127.014 156.585 127.365 158.273 129.961C158.868 130.877 162.96 130.193 168.189 128.304C173.085 126.535 178.025 125.428 179.165 125.844C180.305 126.26 305.694 139.11 298.303 139.898L190.783 160.826L185.399 165.959C183.503 167.767 182.987 186.694 178.486 187.099C170.063 187.858 153.605 154.178 150.355 148.996Z" fill="#FCFAF4"/>
<path d="M191.658 205.832C189.223 204.011 184.38 198.829 180.897 194.318C177.413 189.807 173.384 186.115 171.943 186.115C166.778 186.115 158.058 175.721 156.732 167.983C156.027 163.87 153.685 158.805 151.425 156.508C145.457 150.441 140.337 138.552 140.294 130.659C140.241 121.132 147.333 113.811 164.215 105.965C171.496 102.581 178.455 98.5266 179.679 96.9555C183.332 92.2684 195.207 90.166 218.111 90.1518C242.939 90.1393 249.609 92.0129 258.863 101.618L264.629 107.603L273.118 104.963C277.787 103.511 285.172 100.87 289.529 99.0949C297.038 96.0349 297.509 95.4537 298.579 87.945C301.14 69.963 305.724 63.6353 315.99 63.912C339.906 64.5565 368.706 124.61 362.259 160.391C359.311 176.753 352.885 183.229 342.247 180.561C338.062 179.511 326.25 169.653 321.589 163.32L318.734 159.441L304.323 163.985C280.655 171.449 276.384 173.636 272.786 180.13C268.795 187.334 257.803 192.858 247.188 192.993C241.601 193.064 238.367 194.23 234.257 197.657C227.442 203.338 211.498 209.143 202.709 209.143C198.692 209.143 194.344 207.84 191.658 205.832ZM222.455 199.267C233.018 194.962 236.507 189.497 233.925 181.302C231.369 173.191 227.768 170.115 224.161 172.961C222.73 174.09 212.564 177.712 201.57 181.01L181.58 187.006L186.972 194.083C196.175 206.16 203.068 207.167 222.455 199.267ZM259.638 185.267C268.005 181.2 270.685 176.701 271.438 165.462C272.13 155.132 273.76 152.201 275.885 157.465C276.463 158.896 276.935 161.919 276.935 164.182C276.935 166.835 277.704 167.991 279.098 167.438C289.902 163.149 327.393 152.599 339.165 150.535C360.045 146.874 358.722 147.663 357.416 139.645C354.987 124.739 349.076 107.449 342.235 95.2381C338.307 88.227 334.549 82.4906 333.885 82.4906C333.22 82.4906 325.473 86.5372 316.67 91.483C302.349 99.5282 280.318 108.758 268.97 111.465C266.69 112.009 264.825 113.484 264.825 114.743C264.825 119.028 259.914 117.052 258.823 112.329C255.581 98.2957 232.762 91.6232 201.526 95.5749C193.084 96.6431 185.187 98.2977 183.977 99.2518C180.871 101.703 181.268 109.596 185.099 121.572C186.91 127.235 189.319 137.094 190.453 143.482C191.686 150.434 193.486 155.451 194.935 155.98C198.789 157.386 205.59 155.139 209.578 151.143C212.812 147.903 213.131 146.181 212.236 136.77C211.678 130.89 210.736 123.673 210.144 120.733C208.543 112.782 212.42 114.004 216.333 122.683C219.892 130.577 225.444 134.948 234.029 136.618C240.935 137.96 242.612 141.705 236.308 141.705C233.787 141.705 230.211 140.935 228.361 139.993C225.079 138.324 225.082 138.413 228.468 143.694C230.894 147.477 231.941 152 231.946 158.716C231.95 165.848 232.85 169.411 235.434 172.533C237.348 174.848 239.402 179.638 239.998 183.179L241.081 189.618L248.195 188.494C252.108 187.877 257.257 186.424 259.638 185.267ZM198.534 177.089C222.419 169.898 226.764 166.901 226.755 157.623C226.752 153.462 225.274 148.48 223.01 144.994L219.271 139.238L217.718 144.798C215.197 153.826 211.338 157.988 203.649 159.971C197.947 161.442 195.602 161.352 192.159 159.531C188.639 157.669 186.707 157.617 181.779 159.25C178.448 160.354 172.317 161.299 168.154 161.35L160.585 161.443L161.691 166.702C163.634 175.937 169.95 182.296 177.6 182.721C178.632 182.777 188.053 180.244 198.534 177.089ZM179.94 154.891C183.806 153.902 186.969 152.429 186.969 151.618C186.969 148.977 181.771 126.575 180.818 125.109C180.308 124.324 175.838 125.146 170.886 126.936C160.523 130.681 156.976 131.025 157.971 128.188C158.357 127.087 162.899 124.552 168.063 122.556C176.964 119.114 177.428 118.645 176.968 113.542C176.701 110.582 176.135 107.828 175.709 107.424C173.85 105.656 158.436 113 152.237 118.605C144.172 125.899 143.34 132.547 149.047 144.088C153.71 153.521 163.004 159.104 170.857 157.191C171.987 156.915 176.075 155.881 179.94 154.891Z" fill="#282728"/>
</g>
</svg>
