<svg width="450" height="362" viewBox="0 0 450 362" fill="none" xmlns="http://www.w3.org/2000/svg">
<mask id="mask0_11_102" style="mask-type:alpha" maskUnits="userSpaceOnUse" x="0" y="0" width="450" height="362">
<rect width="450" height="362" fill="#D9D9D9"/>
</mask>
<g mask="url(#mask0_11_102)">
<path d="M58.5708 350.143C46.7898 346.535 28.7183 341.798 20.6743 330.188L16.87 324.698L18.1045 316.065C19.568 305.83 33.9737 290.516 39.7303 274.516C42.8224 265.922 49.4511 249.249 49.3549 252.998C49.1913 259.366 64.3316 252.25 69.7781 257.275C86.096 272.329 108.106 270.28 114.347 289.226L117.512 298.832L106.825 313.704C87.9368 339.989 77.7248 352.246 74.78 352.167C73.2049 352.123 65.7779 352.35 58.5708 350.143ZM116.251 291.329C116.251 290.371 120.742 287.813 121.694 288.372C122.646 288.931 122.955 291.906 122.955 292.305C122.955 292.704 122.048 294.774 121.096 294.774C120.145 294.774 116.251 292.287 116.251 291.329ZM100.175 287.406C86.8775 282.989 71.5941 273.372 60.2082 262.257C52.4123 254.647 52.0629 253.927 53.8298 249.108L55.6991 244.01L63.634 251.342C74.9414 261.79 93.5449 266.865 107.604 273.056C119.627 278.35 124.098 284.826 119.865 286.922L111.374 291.127L100.175 287.406ZM102.77 270.777C88.9391 264.002 67.858 248.7 61.1824 240.591C57.5613 236.192 56.6629 232.959 55.9214 221.659C54.9413 206.723 56.8672 184.72 60.8303 178.914C64.1159 174.102 73.4255 168.232 88.9145 173.241C95.6428 175.416 105.52 172.619 110.865 173.756C123.017 176.341 139.803 193.435 136.879 200.147C135.681 202.897 115.408 213.079 113.698 213.949C109.151 216.263 92.5809 247.553 83.0007 244.812C78.4049 243.497 78.4652 203.096 77.676 203.56C75.0173 205.122 94.5605 197.229 98.9133 199.115C101.292 200.145 78.7362 218.415 78.7362 219.939C78.7362 221.463 86.5288 218.266 88.5293 219.989C94.58 225.195 97.3259 231.956 96.7104 240.131C96.244 246.326 96.6973 247.841 99.1654 248.3C102.386 248.899 78.2502 234.441 89.9947 231.293L102.055 228.061L108.391 212.262C110.223 207.695 119.474 229.928 125.275 233.449C134.437 239.011 140.956 207.2 144.588 216.277L149.302 228.061L144.54 237.107C138.916 247.789 129.08 261.748 120.974 270.55L115.169 276.853L102.77 270.777ZM129.01 229.518C127.107 228.116 120.555 231.649 118.876 230.498C116.025 228.543 119.847 222.143 125.523 213.183C131.729 203.384 124.699 178.501 124.699 174.174C124.699 170.231 144.363 179.851 151.836 185.933C161.205 193.557 161.648 202.422 156.171 212.696C151.786 220.924 137.072 232.217 134.064 232.119C133.188 232.088 130.913 230.919 129.01 229.518ZM99.0289 218.717C94.1083 216.016 89.2374 213.223 89.2374 212.931C89.2374 212.64 94.6086 213.135 100.141 213.612C107.571 214.252 101.108 204.518 105.655 203.581L132.372 198.077L128.545 223.779C127.91 228.048 109.993 221.641 110.131 222.841C117.687 288.76 103.95 221.418 99.0289 218.717ZM194.433 204.355C190.151 200.283 183.509 189.16 183.509 188.332C183.509 187.504 174.046 173.227 183.135 170.631C192.223 168.036 219.187 176.047 222.401 174.409L228.245 171.432L253.357 168.917C265.224 167.729 234.861 193.29 222.012 198.727C216.536 201.045 209.136 203.323 205.568 203.791C199.673 204.564 201.507 211.08 194.433 204.355ZM126.483 194.183C126.397 188.774 122.261 185.258 113.327 182.997L106.295 181.218L95.7006 168.682C91.9599 164.255 105.867 156.176 106.161 155.863C107.384 154.563 130.209 170.476 131.859 173.407C133.864 176.97 132.699 185.001 129.004 193.085C126.645 198.244 126.548 198.286 126.483 194.183ZM240.603 184.405C240.603 182.56 238.901 177.934 236.821 174.125C234.36 169.621 203.041 169.026 202.925 163.03C202.817 157.478 220.616 153.925 218.89 151.42L226.948 140.446L232.824 141.706C236.055 142.399 239.128 142.559 239.651 142.061C242.215 139.624 239.995 137.028 234.51 136.05C226.676 134.652 188.156 133.289 186.075 126.388C185.179 123.42 210.199 126.948 208.807 126.948C206.043 126.948 208.37 114.986 211.491 133.098C213.402 144.191 227.727 151.617 224.527 155.691C220.323 161.044 195.149 157.923 191.84 155.312C190.563 154.305 192.111 150.024 191.524 146.197C190.937 142.369 169.378 132.526 173.176 123.166L181.001 103.881L182.725 98.7991C184.326 94.0783 190.873 93.4877 214.99 93.4877C245.788 93.4877 254.533 97.5224 261.14 110.118C264.806 117.107 264.824 119.929 264.824 114.858C264.824 113.769 264.95 111.235 271.299 109.506C283.048 106.307 311.835 89.4999 323.556 81.9219C329.655 77.9784 335.71 81.8062 337.881 84.542C346.041 94.8256 361.306 120.395 358.976 137.196L357.694 146.439L351.223 150.833C338.01 159.803 297.016 159.877 283.133 165.392L277.122 167.78L251.731 156.55C247.197 154.544 273.948 155.668 273.511 154.041C271.538 146.697 284.944 156.089 284.917 163.752C284.891 170.23 265.284 182.96 263.395 185.701C259.719 191.036 247.143 190.743 239.104 190.743C233.99 190.743 240.603 187.161 240.603 184.405ZM170.064 180.08C168.046 178.693 161.118 174.652 159.088 168.395C158.098 165.342 155.649 161.481 158.75 161.481C160.818 161.481 172.96 161.94 178.652 160.538C186.662 158.565 187.867 153.378 189.772 154.881C191.278 156.069 196.527 154.398 201.018 153.831C209.494 152.762 218.111 152.002 218.111 145.102V140.973L221.811 144.492C224.241 146.801 225.794 150.798 226.332 156.127C227.087 163.594 226.756 164.512 222.199 167.594C211.762 174.652 187.811 192.285 181.41 187.883L170.064 180.08ZM85.3283 175.705L74.5188 172.131L77.8435 160.903C79.5916 155 84.2473 149.315 85.3552 148.664C88.3646 146.895 102.646 150.058 103.724 152.729C105.333 156.715 100.115 179.546 98.0495 179.408C96.998 179.337 91.2735 177.671 85.3283 175.705ZM150.355 148.996C146.408 142.703 143.065 136.497 143.042 129.607C143.029 124.961 153.423 113.519 162.641 109.458C171.881 105.388 184.001 103.113 185.669 109.861C186.667 113.896 180.782 121.102 172.694 123.867C163.488 127.014 156.585 127.365 158.273 129.961C158.868 130.877 162.96 130.193 168.189 128.304C173.085 126.535 178.024 125.428 179.165 125.844C180.305 126.26 305.694 139.11 298.302 139.898L190.783 160.826L185.399 165.96C183.503 167.767 182.987 186.694 178.486 187.099C170.063 187.858 153.605 154.178 150.355 148.996Z" fill="#FCFAF4"/>
<path d="M54.9226 353.099C31.2139 345.292 12.7408 331.51 4.48705 315.471C-5.14437 296.756 3.12046 283.445 26.3459 280.267L35.4366 279.024L39.8353 265.646C42.2546 258.289 45.112 251.263 46.185 250.033C50.0421 245.612 50.9725 239.271 50.4952 220.657C50.1603 207.6 50.8752 198.197 52.8039 190.295C55.7993 178.023 58.6277 173.801 64.8479 172.317C67.6696 171.643 70.0993 168.409 73.5024 160.797C79.9638 146.343 82.5732 144.364 93.8171 145.391C99.9001 145.947 103.724 147.256 105.558 149.409C107.054 151.165 113.196 155.094 119.206 158.14C125.217 161.186 132.217 166.041 134.763 168.929C137.308 171.817 141.726 175.344 144.581 176.766C152.617 180.77 162.476 190.273 163.801 195.292C166.126 204.097 150.868 240.4 136.206 260.948C131.057 268.164 129.295 272.187 129.635 275.945C129.94 279.305 129.204 281.409 127.506 282.028C125.352 282.814 125.253 283.836 126.924 288.044C128.261 291.412 128.368 293.901 127.243 295.459C126.312 296.75 118.993 306.908 110.98 318.034C102.966 329.16 92.8453 342.516 88.4882 347.715C81.1692 356.447 80.0399 357.159 73.6459 357.076C69.8397 357.026 61.4142 355.237 54.9226 353.099ZM83.7181 345.254C87.0061 341.409 96.0863 329.468 103.896 318.72C119.047 297.867 119.101 297.541 107.706 295.509C92.9863 292.884 74.7572 282.716 57.4344 267.469L47.2095 258.469L46.0166 263.002C43.0386 274.318 31.8506 299.94 24.8066 311.575C15.865 326.345 15.691 325.745 31.9611 336.25C45.2747 344.845 63.1901 351.596 73.9628 352.076C76.4404 352.187 79.7965 349.839 83.7181 345.254ZM122.955 291.385C122.955 290.481 122.222 289.74 121.327 289.74C120.431 289.74 119.217 290.481 118.629 291.385C118.041 292.29 118.774 293.03 120.257 293.03C121.741 293.03 122.955 292.29 122.955 291.385ZM115.055 287.751C118.163 283.532 117.643 282.919 107.921 279.349C97.0243 275.348 78.2914 263.409 66.168 252.738C60.2312 247.513 55.0165 243.577 54.5798 243.992C54.1428 244.408 53.309 247.013 52.7264 249.783C51.84 253.996 52.6871 255.891 57.915 261.393C67.9977 272.003 90.4542 285.611 105.653 290.321C110.604 291.855 112.391 291.367 115.055 287.751ZM123.359 268.329C131.662 259.306 146.186 237.061 148.041 230.526C149.156 226.602 148.961 226.658 143.78 231.76C137.024 238.411 133.43 238.457 123.588 232.019C117.934 228.321 114.652 227.209 111.562 227.947C109.225 228.505 105.966 228.276 104.32 227.437C101.625 226.066 101.328 226.987 101.328 236.702C101.328 243.861 100.601 247.725 99.1654 248.191C97.5973 248.7 97.0027 246.243 97.0027 239.253C97.0027 229.632 95.2127 225.534 88.0246 218.7C86.3016 217.062 84.8919 214.596 84.8919 213.22C84.8919 211.843 82.9254 209.865 80.5218 208.824C76.0816 206.901 75.563 202.818 79.918 204.07C81.2264 204.446 87.7532 205.867 94.422 207.229C104.949 209.377 107.221 209.396 111.66 207.367C122.527 202.402 123.96 191.779 114.125 189.096C111.845 188.474 100.71 185.262 89.3812 181.958C65.6084 175.025 62.1386 175.442 58.8797 185.623C55.8446 195.105 54.675 227.335 57.1112 234.353C59.5487 241.374 73.8548 254.331 90.5136 264.604C101.158 271.168 111.643 276.353 114.603 276.517C115.242 276.554 119.183 272.868 123.359 268.329ZM144.56 223.621C153.692 213.965 159.287 204.546 159.287 198.827C159.287 194.618 155.689 190.337 146.631 183.769C139.844 178.847 138.526 178.581 138.526 182.134C138.526 186.123 129.884 205.773 124.397 214.26C121.701 218.431 119.494 222.29 119.494 222.836C119.494 224.309 132.083 232.171 134.442 232.171C135.56 232.171 140.113 228.324 144.56 223.621ZM115.078 218.815C117.576 215.993 120.859 211.366 122.372 208.535L125.125 203.386L121.012 206.978C114.786 212.414 107.965 214.264 98.5331 213.075C93.8852 212.489 90.0823 212.473 90.0823 213.038C90.0823 214.46 106.049 223.874 108.527 223.913C109.632 223.931 112.58 221.637 115.078 218.815ZM132.865 182.449C134.101 174.173 130.877 170.05 117.962 163.388C107.395 157.936 107.383 157.935 107.368 161.743C107.362 163.84 106.875 169.343 106.289 173.973L105.225 182.391L113.258 183.536C123.029 184.929 127.355 189.914 125.864 198.06C125.001 202.773 125.295 202.534 128.419 195.985C130.36 191.914 132.361 185.823 132.865 182.449ZM102.093 160.385C102.204 151.025 101.011 149.929 90.7149 149.929C85.0129 149.929 84.4427 150.472 79.4076 160.702C76.4912 166.626 74.4671 171.818 74.9096 172.239C75.3518 172.659 81.0879 174.734 87.656 176.848L99.5979 180.691L100.796 174.768C101.455 171.51 102.039 165.038 102.093 160.385ZM167.096 260.169C165.936 258.384 172.728 239.179 174.99 237.85C178.328 235.889 178.207 241.171 174.703 250.306C170.743 260.631 168.927 262.986 167.096 260.169ZM190.002 245.972C184.149 236.185 182.871 230.586 187.052 233.042C189.92 234.727 200.872 253.772 199.865 255.322C197.984 258.215 196.458 256.768 190.002 245.972ZM207.856 233.93C197.393 231.4 191.527 227.213 198.503 227.256C202.44 227.281 219.837 231.619 221.203 232.917C224.215 235.78 217.586 236.284 207.856 233.93ZM191.658 205.832C189.223 204.011 184.38 198.829 180.897 194.318C177.413 189.807 173.384 186.115 171.943 186.115C166.778 186.115 158.058 175.721 156.732 167.983C156.027 163.87 153.685 158.805 151.425 156.508C145.457 150.441 140.337 138.552 140.294 130.659C140.241 121.132 147.333 113.811 164.215 105.965C171.496 102.581 178.455 98.5266 179.679 96.9555C183.332 92.2684 195.207 90.166 218.111 90.1518C242.939 90.1393 249.609 92.0129 258.863 101.618L264.629 107.603L273.118 104.963C277.787 103.511 285.172 100.87 289.529 99.0949C297.038 96.0349 297.509 95.4537 298.579 87.945C301.14 69.963 305.724 63.6354 315.99 63.912C339.906 64.5565 368.706 124.61 362.259 160.391C359.311 176.753 352.885 183.229 342.247 180.561C338.062 179.511 326.25 169.653 321.589 163.32L318.734 159.441L304.323 163.985C280.655 171.449 276.384 173.636 272.786 180.13C268.795 187.334 257.803 192.858 247.188 192.993C241.601 193.064 238.367 194.23 234.257 197.657C227.442 203.338 211.498 209.143 202.709 209.143C198.692 209.143 194.344 207.84 191.658 205.832ZM222.455 199.267C233.018 194.962 236.507 189.497 233.925 181.302C231.369 173.191 227.768 170.115 224.161 172.961C222.73 174.09 212.564 177.712 201.57 181.01L181.58 187.006L186.972 194.083C196.175 206.16 203.068 207.167 222.455 199.267ZM259.638 185.267C268.005 181.2 270.685 176.701 271.438 165.462C272.13 155.132 273.76 152.201 275.885 157.465C276.463 158.896 276.935 161.919 276.935 164.182C276.935 166.835 277.704 167.991 279.098 167.438C289.902 163.149 327.393 152.599 339.165 150.535C360.045 146.874 358.722 147.663 357.416 139.645C354.987 124.739 349.076 107.449 342.235 95.2382C338.307 88.2271 334.549 82.4906 333.885 82.4906C333.22 82.4906 325.473 86.5372 316.67 91.483C302.349 99.5282 280.318 108.758 268.97 111.465C266.69 112.009 264.825 113.484 264.825 114.743C264.825 119.028 259.914 117.052 258.823 112.329C255.58 98.2957 232.762 91.6232 201.526 95.5749C193.084 96.6431 185.187 98.2977 183.977 99.2518C180.871 101.703 181.268 109.596 185.099 121.572C186.91 127.235 189.319 137.094 190.453 143.482C191.686 150.434 193.486 155.451 194.935 155.98C198.789 157.386 205.59 155.139 209.578 151.143C212.812 147.903 213.131 146.181 212.236 136.77C211.678 130.89 210.736 123.673 210.144 120.733C208.543 112.782 212.42 114.004 216.333 122.683C219.892 130.577 225.444 134.948 234.029 136.618C240.935 137.96 242.612 141.705 236.308 141.705C233.787 141.705 230.211 140.935 228.361 139.993C225.079 138.324 225.082 138.413 228.468 143.694C230.894 147.477 231.941 152 231.946 158.716C231.95 165.848 232.85 169.411 235.434 172.533C237.348 174.848 239.402 179.638 239.998 183.179L241.081 189.618L248.195 188.494C252.108 187.877 257.257 186.424 259.638 185.267ZM198.534 177.089C222.419 169.898 226.764 166.901 226.755 157.623C226.752 153.462 225.274 148.48 223.01 144.994L219.271 139.238L217.718 144.798C215.197 153.826 211.338 157.988 203.649 159.971C197.947 161.442 195.602 161.352 192.159 159.531C188.639 157.669 186.707 157.617 181.779 159.25C178.448 160.354 172.317 161.299 168.154 161.35L160.585 161.443L161.691 166.702C163.634 175.937 169.95 182.296 177.6 182.721C178.632 182.777 188.053 180.244 198.534 177.089ZM179.94 154.891C183.806 153.902 186.969 152.429 186.969 151.618C186.969 148.977 181.771 126.575 180.818 125.109C180.308 124.324 175.838 125.146 170.886 126.936C160.523 130.681 156.976 131.025 157.971 128.188C158.357 127.087 162.899 124.552 168.063 122.556C176.964 119.114 177.428 118.645 176.968 113.542C176.701 110.582 176.135 107.828 175.709 107.424C173.85 105.656 158.436 113 152.237 118.605C144.172 125.899 143.34 132.547 149.047 144.088C153.71 153.521 163.004 159.104 170.857 157.191C171.987 156.915 176.075 155.881 179.94 154.891Z" fill="#282728"/>
</g>
</svg>
