<svg width="419" height="395" viewBox="0 0 419 395" fill="none" xmlns="http://www.w3.org/2000/svg">
<path d="M77.6435 394.161C47.7068 388.829 23.4979 378.093 9.30512 363.855C2.87958 357.409 -0.00502537 351.867 6.57144e-06 345.976C0.00706541 338.031 4.57132 333.375 16.1307 329.522C20.4086 328.097 24.7018 327.671 34.9038 327.66L48.1306 327.646L54.0089 318.199C63.6849 302.65 70.1173 289.632 75.134 275.447C80.6508 259.848 84.3712 252.141 89.9132 244.829C92.9144 240.87 95.0247 236.089 98.4716 225.439C101.942 214.717 103.736 210.663 105.902 208.649L108.757 205.993L104.545 204.341C95.4649 200.78 55.8911 183.584 54.7022 182.682C52.9943 181.387 53.0871 171.805 54.8478 167.65C57.9158 160.409 64.4581 159.319 76.7739 163.995C85.3801 167.263 115.528 179.961 130.081 186.448C135.349 188.797 156.223 198.101 176.467 207.124C196.711 216.147 217.74 225.589 223.199 228.106C228.658 230.623 233.258 232.683 233.421 232.683C233.584 232.683 237.966 234.651 243.16 237.055C248.353 239.46 264.854 247.003 279.829 253.817C332.129 277.615 327.94 275.447 327.244 278.349C325.8 284.363 320.296 288.748 312.353 290.211C307.459 291.113 308.383 291.421 280.466 279.577C273.152 276.473 273.046 276.459 273.673 278.667C279.006 297.446 269.871 302.776 230.461 303.88C204.188 304.616 161.174 310.666 145.361 315.849C132.543 320.05 123.211 329.195 117.576 343.078L113.856 352.244L119.798 358.345C123.065 361.701 126.45 365.802 127.319 367.459C132.819 377.947 128.56 387.132 115.963 391.949C111.345 393.715 107.886 394.115 95.2906 394.34C86.9712 394.488 79.03 394.408 77.6435 394.161ZM99.8284 385.775C99.8284 378.386 108.763 348.382 114.505 336.488C120.39 324.299 130.165 315.494 142.595 311.186C158.113 305.808 199.785 299.728 227.389 298.815C248.526 298.116 260.54 296.468 265.486 293.588C268.617 291.766 268.733 291.469 268.635 285.497C268.561 280.979 267.989 278.572 266.526 276.624C258.811 266.352 244.309 266.055 209.745 275.459C194.634 279.57 186.296 280.741 171.929 280.772C155.11 280.808 144.342 278.593 132.877 272.739C128.843 270.679 125.137 268.82 124.64 268.606C124.14 268.392 123.976 270.301 124.271 272.886C124.81 277.597 128.07 282.402 130.729 282.402C131.517 282.402 131.808 283.092 131.465 284.142C131.152 285.099 130.72 286.457 130.506 287.16C129.898 289.155 124.657 286.063 121.309 281.733C118.808 278.499 118.503 277.318 118.652 271.442C118.818 264.884 119.172 263.676 127.956 239.644C129.668 234.961 131.048 229.196 131.051 226.717C131.06 218.002 124.181 210.807 115.838 210.807C109.458 210.807 108.235 212.713 102.445 231.689C101.027 236.337 99.0639 241.302 98.0828 242.722C87.9967 257.314 85.9156 261.465 79.7854 279.213C75.2629 292.307 70.8796 301.212 61.2467 316.877C43.7283 345.366 37.811 352.833 27.237 359.796L21.3283 363.687L25.0321 367.191C32.6952 374.443 45.3735 380.753 59.464 384.329C68.5915 386.645 76.4125 387.533 88.988 387.679C99.2725 387.799 99.8284 387.701 99.8284 385.775ZM317.644 282.515C319.031 281.514 320.165 280.103 320.165 279.378C320.165 278.274 285.277 261.848 234.955 239.26C229.686 236.895 210.173 228.147 191.593 219.819C173.013 211.492 153.5 202.745 148.23 200.381C120.014 187.724 79.8879 170.68 70.984 167.57C64.3827 165.264 61.0619 166.025 59.5929 170.18C58.9829 171.906 58.4838 174.527 58.4838 176.005C58.4838 179.092 57.6834 178.684 94.2822 194.213C106.484 199.39 128.492 208.768 143.19 215.052C221.425 248.501 255.22 262.978 279.829 273.582C303.435 283.754 307.592 285.249 311.089 284.825C313.308 284.555 316.257 283.516 317.644 282.515ZM151.509 212.612C140.361 207.874 137.139 206.088 137.139 204.647C137.139 203.625 137.757 202.556 138.511 202.27C139.266 201.985 146.186 204.409 153.89 207.658C166.045 212.784 167.896 213.864 167.896 215.832C167.896 217.079 167.442 218.239 166.887 218.41C166.333 218.581 159.413 215.972 151.509 212.612ZM110.938 195.277C101.796 191.162 93.741 187.324 93.0385 186.749C91.3176 185.341 91.4245 183.305 93.2558 182.612C94.7092 182.062 128.149 196.572 130.288 198.681C131.611 199.986 130.607 202.869 128.852 202.806C128.141 202.78 120.08 199.392 110.938 195.277ZM187.511 267.021C194.646 262.389 203.496 256.967 207.179 254.97C210.862 252.974 213.74 251.216 213.575 251.064C213.409 250.911 209.746 249.331 205.434 247.553L197.594 244.319L192.179 247.997C185.281 252.681 169.1 266.057 163.91 271.365L159.923 275.441H167.231H174.539L187.511 267.021ZM207.224 270.422C219.936 266.913 228.897 264.902 235.907 263.986L241.396 263.269L238.456 261.75C231.532 258.172 221.19 254.506 219.326 254.967C217.131 255.511 196.595 267.354 190.081 271.833L186.047 274.607L191.593 273.907C194.644 273.522 201.677 271.954 207.224 270.422ZM161.229 266.229C168.098 259.764 180.14 249.822 188.17 243.986C189.775 242.819 190.862 241.644 190.585 241.375C190.195 240.998 142.028 220.266 136.441 218.071C135.527 217.712 135.491 218.503 136.292 221.362C138.097 227.808 136.673 233.88 128.505 254.586C126.937 258.559 126.896 259.428 128.153 261.993C129.788 265.332 133.844 267.89 142.587 271.095C151.946 274.526 152.593 274.357 161.229 266.229ZM259.156 192.707C254.628 190.523 232.099 169.223 222.557 158.105L217.864 152.636L203.972 166.748C188.538 182.428 186.241 183.712 175.571 182.634C167.997 181.869 162.047 177.95 156.654 170.175C151.896 163.316 151.113 159.175 153.847 155.326C154.717 154.101 161.864 148.012 169.73 141.794C185.73 129.145 196.589 118.496 208.073 104.194C220.545 88.6612 234.972 78.0802 252.444 71.6528C264.12 67.3576 279.669 55.7751 294.371 40.4216C300.769 33.7402 309.099 22.0852 316.034 10.1115L321.891 0L326.574 0.099119C329.921 0.169958 330.582 0.385221 328.892 0.853509C327.231 1.31365 324.714 4.61535 320.44 11.9411C310.358 29.2219 304.634 36.7138 291.94 49.2418C279.335 61.6822 263.53 73.1522 255.627 75.5947C248.973 77.6512 237.895 83.4555 230.856 88.5727C223.467 93.9455 218.266 99.2675 205.746 114.271C195.381 126.691 186.162 135.291 169.754 147.844C155.332 158.879 155.043 159.553 161.089 168.056C167.177 176.618 176.381 179.999 185.278 176.94C187.117 176.308 193.831 170.178 202.094 161.587C215.674 147.468 229.747 135.235 232.41 135.235C235.694 135.235 234.345 138.114 228.641 143.279L222.502 148.837L227.972 152.796C230.981 154.974 237.896 159.745 243.341 163.397L253.239 170.038L260.484 170.024C273.528 170 294.388 160.605 300.65 151.932C303.509 147.974 304.199 141.39 302.162 137.507C300.68 134.679 294.591 128.798 293.877 129.503C293.7 129.677 293.986 131.708 294.512 134.017C295.541 138.533 294.466 145.34 291.988 150.003C287.317 158.794 274.078 164.706 267.198 161.075C266.147 160.52 263.238 156.154 260.734 151.372C255.943 142.226 252.455 138.098 245.133 132.913C239.122 128.655 235.007 123.395 234.293 119.055C233.123 111.946 234.499 109.109 244.252 98.5237C249.332 93.0102 254.098 88.4991 254.842 88.4991C258.655 88.4991 256.863 91.9981 248.169 101.527C239.847 110.647 238.988 111.958 238.988 115.546C238.988 120.814 242.922 126.151 250.178 130.727C256.499 134.712 260.204 139.321 265.594 149.902C269.131 156.846 269.399 157.111 272.897 157.111C281.777 157.111 289.841 148.334 289.841 138.668C289.841 131.724 285.139 122.523 277.255 114.039C273.878 110.404 271.4 106.974 271.75 106.417C273.167 104.156 276.368 105.696 281.29 111.006L286.483 116.609L292.38 116.082C298.494 115.535 307.298 111.859 311.29 108.186C312.533 107.043 314.195 106.406 315.072 106.738C321.008 108.984 307.975 118.149 295.186 120.722L289.142 121.937L293.785 123.686C300.32 126.147 307.232 133.891 308.123 139.75C308.493 142.182 308.497 145.74 308.132 147.658C307.54 150.768 307.76 151.277 310.163 152.357C312.741 153.515 313.139 153.274 319.398 146.76C333.944 131.62 337.733 111.413 328.709 97.0992C327.005 94.3954 325.858 91.545 326.162 90.7649C327.192 88.1176 330.234 89.9989 333.418 95.2526L336.59 100.488L340.701 93.1018C353.415 70.2589 375.225 50.1576 395.349 42.7366C398.645 41.5212 401.342 40.1571 401.342 39.7053C401.342 38.6273 392.434 28.207 388.101 24.216C377.526 14.4767 360.436 4.39921 349.623 1.527L344.367 0.130882L352.434 0.065492C360.22 0.00237919 360.789 0.160623 368.778 4.60953C390.488 16.7007 407.842 35.4372 415.601 55.1617C419.688 65.5516 420.13 76.75 416.707 83.1825C409.143 97.3981 390.219 99.3897 366.552 88.4609C363.224 86.9243 359.078 84.7266 357.339 83.5771L354.177 81.4872L350.543 86.8857C348.545 89.8548 345.095 95.6006 342.878 99.654C339.374 106.059 338.788 108.056 338.398 114.914C337.561 129.611 332.599 140.58 321.918 151.344C316.528 156.775 316.289 157.239 316.212 162.411C316.144 166.984 315.535 168.663 312.221 173.406C301.24 189.127 273.018 199.392 259.156 192.707ZM283.55 187.332C295.682 183.063 304.9 176.65 309.128 169.537C312.85 163.273 312.208 158.982 307.156 156.365C305.585 155.552 304.126 156.261 299.088 160.283C287.738 169.347 272.598 175.01 259.717 175.01C252.413 175.01 250.273 174.2 240.501 167.738L234.451 163.738L239.774 169.345C247.363 177.337 254.989 184.223 259.643 187.284C265.134 190.896 273.374 190.912 283.55 187.332Z" fill="#292929"/>
</svg>
