<?xml version="1.0" encoding="utf-8"?>
<!-- Generator: Adobe Illustrator 16.0.3, SVG Export Plug-In . SVG Version: 6.00 Build 0)  -->
<!DOCTYPE svg PUBLIC "-//W3C//DTD SVG 1.1//EN" "http://www.w3.org/Graphics/SVG/1.1/DTD/svg11.dtd">
<svg version="1.1"
	 id="svg1" xmlns:inkscape="http://www.inkscape.org/namespaces/inkscape" xmlns:sodipodi="http://sodipodi.sourceforge.net/DTD/sodipodi-0.dtd" xmlns:svg="http://www.w3.org/2000/svg" inkscape:version="1.4.3 (0d15f75, 2025-12-25)" sodipodi:docname="vector moneda.svg"
	 xmlns="http://www.w3.org/2000/svg" xmlns:xlink="http://www.w3.org/1999/xlink" x="0px" y="0px" width="303px" height="304px"
	 viewBox="0 0 303 304" enable-background="new 0 0 303 304" xml:space="preserve">
<sodipodi:namedview  id="namedview1" borderopacity="1" bordercolor="#eeeeee" pagecolor="#505050" inkscape:cy="435.90392" inkscape:cx="452.99819" inkscape:zoom="0.29249565" inkscape:current-layer="g1" inkscape:window-y="-8" inkscape:window-x="-8" inkscape:window-height="705" inkscape:window-width="1366" inkscape:deskcolor="#505050" inkscape:pageopacity="0" inkscape:showpageshadow="0" inkscape:window-maximized="1" inkscape:pagecheckerboard="0">
	</sodipodi:namedview>
<g id="g1" inkscape:label="Image" inkscape:groupmode="layer">
	<path id="path1" fill="#A4D322" d="M131.449,282.586c-24.437-5.188-54.951-24.43-75.769-47.775
		c-7.996-8.967-17.064-23.018-20.474-31.724c-2.322-5.929-2.757-8.539-2.757-16.54c0-10.691-0.137-10.373,9.878-23
		c14.457-18.225,16.62-19.515,32.622-19.443c10.223,0.046,12.521,0.403,20.703,3.213c45.938,15.779,90.39,61.899,90.275,93.662
		c-0.028,7.738-2.173,12.48-10.111,22.36c-14.277,17.768-16.927,19.472-30.866,19.843
		C139.724,283.321,133.649,283.053,131.449,282.586z M155.104,275.141c3.093-1.304,9.863-7.893,9.836-9.571
		c-0.005-0.287-3.717-0.574-8.25-0.638c-18.246-0.258-42.145-10.633-64.241-27.889c-15.438-12.057-36.176-35.721-35.306-40.287
		c0.179-0.939,1.277-1.846,2.44-2.012c1.624-0.232,3.232,1.274,6.933,6.5c6.377,9.004,22.9,25.469,33.209,33.093
		c31.713,23.454,65.399,31.245,76.126,17.607c3.666-4.661,4.451-9.792,2.691-17.585c-6.902-30.564-47.013-68.563-85.33-80.837
		c-11.755-3.766-24.962-4.19-31.209-1.003c-7.674,3.914-10.337,11.02-8.171,21.804c0.957,4.767,0.896,5.872-0.395,7.163
		c-2.461,2.462-4.854,0.127-5.921-5.78c-0.513-2.837-1.298-5.159-1.744-5.159c-1.759,0-6.76,8.399-7.343,12.333
		c-1.229,8.302,3.051,20.689,11.701,33.862c6.899,10.506,23.307,27.465,34.819,35.984
		C111.442,272.337,140.065,281.481,155.104,275.141z M140.201,229.361c-2.073-2.079-2.501-2.148-5.5-0.899
		c-5.66,2.358-10.187,2.429-15.144,0.236c-3.765-1.665-4.608-2.513-4.608-4.626c0-3.338,2.045-4.07,5.86-2.098
		c4.954,2.563,9.522,2.036,13.063-1.504c5.592-5.592,3.362-14.354-4.295-16.881c-4.13-1.363-6.744-0.459-12.452,4.311
		c-6.59,5.506-13.593,6.024-20.842,1.544c-6.041-3.733-9.325-14.308-6.237-20.078c0.932-1.742,0.618-2.486-2.095-4.965
		c-2.008-1.834-2.971-3.491-2.597-4.467c0.328-0.853,0.596-1.739,0.596-1.97c0-1.328,4.728-0.082,6.693,1.764
		c2.249,2.113,2.434,2.129,5.849,0.5c4.861-2.318,10.9-2.123,15.572,0.503c3.992,2.243,4.922,4.711,2.526,6.699
		c-1.029,0.854-2.427,0.659-5.75-0.8c-5.302-2.327-8.847-1.813-12.163,1.766c-3.229,3.485-3.926,6.742-2.281,10.678
		c3.103,7.425,10.745,8.661,17.687,2.861c5.073-4.238,7.733-5.389,12.463-5.389c11.133,0,19.123,10.112,16.433,20.797
		c-1.066,4.235-0.981,4.645,1.513,7.247C149.259,229.568,145.062,234.234,140.201,229.361z M184.633,186.098
		c-4.99-1.779-6.522-3.213-15.74-14.729c-8.789-10.979-10.619-15.986-8.988-24.586c5.131-27.053,37.935-59.732,72.545-72.271
		c7.764-2.813,10.373-3.274,19-3.363c13.224-0.136,15.705,1.194,25.914,13.887c9.736,12.105,10.953,14.924,10.358,24.005
		c-1.009,15.394-13.569,34.604-33.772,51.647C229.379,181.418,200.841,191.879,184.633,186.098z M205.949,179.5
		c17.678-4.229,35.245-15.004,52-31.895c15.869-15.998,23.463-29.292,23.465-41.076c0.002-4.259-0.56-6.306-2.457-8.97l-2.458-3.453
		l-1.306,4.625c-1.424,5.041-3.122,6.356-5.734,4.446c-1.463-1.07-1.549-1.972-0.646-6.855c2.324-12.573-3.12-18.901-16.262-18.901
		c-17.683,0-40.802,11.767-60.763,30.926c-24.706,23.713-33.184,49.563-18.295,55.783c11.184,4.672,32.43-1.421,53.344-15.298
		c9.594-6.366,27.059-23.228,31.635-30.543c4.014-6.416,8.49-7.702,8.467-2.434c-0.025,5.873-22.068,28.843-37.593,39.173
		c-15.684,10.436-34.126,17.518-45.621,17.518c-4.537,0-4.778,0.128-3.776,2c2.001,3.74,8.305,6.636,15,6.891
		C196.324,181.49,201.273,180.618,205.949,179.5z M194.529,139.985c-2.052-2.052-1.993-2.754,0.411-4.93
		c1.663-1.505,1.899-2.643,1.436-6.905c-0.894-8.201,4.466-16.139,8.303-12.301c1.685,1.685,1.686,1.91,0.019,4.814
		c-2.587,4.508-2.248,8.346,0.959,10.869c1.902,1.496,3.462,1.94,5.25,1.495c6.351-1.584,7.774-6.838,3.543-13.074
		c-7.512-11.069,2.899-25.358,15.351-21.068c3.682,1.268,4.148,1.22,5.987-0.62c3.852-3.852,8.037,0.658,4.301,4.635
		c-1.742,1.854-1.955,2.8-1.216,5.38c1.815,6.332-1.843,14.268-6.578,14.268c-2.77,0-3.187-3.303-0.813-6.441
		c3.268-4.32-0.173-11.559-5.493-11.559c-6.633,0-9.481,6.74-5.329,12.612c6.547,9.26,1.464,21.089-9.517,22.144
		c-2.814,0.271-5.851-0.037-7.13-0.722c-1.785-0.955-2.561-0.909-3.896,0.235C197.119,141.381,196.133,141.588,194.529,139.985
		L194.529,139.985z M88.574,110.496c-6.904-1.727-19.932-8.494-28.125-14.61C39.462,80.221,27.29,58,33.341,46.403
		c2.747-5.265,11.968-15.799,15.151-17.31c10.134-4.809,29.714,1.008,46.879,13.928c22.238,16.736,33.703,38.788,26.322,50.626
		c-3.986,6.393-10.169,13.66-13.143,15.447C105.125,111.152,94.252,111.915,88.574,110.496z M105.227,103.379
		c2.414-1.266,1.222-2.832-2.156-2.832c-15.146,0-45.073-20.242-55.132-37.291c-1.894-3.21-1.931-3.625-0.455-5.102
		c2.365-2.365,2.941-2.088,6.908,3.316c15.098,20.568,45.136,37.04,57.853,31.726c6.592-2.754,7.104-8.16,1.816-19.149
		c-8.106-16.841-29.991-34.285-49.037-39.085c-7.578-1.91-12.442-1.357-15.802,1.796c-2.187,2.052-2.405,2.964-2.106,8.789
		c0.324,6.336,0.271,6.5-2.138,6.5c-1.6,0-2.887-0.835-3.651-2.368l-1.181-2.369l-1.205,2.251
		c-3.978,7.433,6.755,25.973,22.337,38.586c9.157,7.412,23.848,15.096,31.264,16.352C97.66,105.366,102.2,104.965,105.227,103.379z
		 M96.468,80.578c-0.42-0.68-2.434-0.846-5.435-0.448c-6.106,0.81-11.371-1.553-10.896-4.891c0.322-2.26,3.395-2.84,6.897-1.301
		c0.943,0.415,2.523-0.063,3.901-1.178c1.797-1.456,2.167-2.469,1.649-4.529c-0.986-3.929-4.827-4.542-8.594-1.373
		c-4.185,3.521-8.17,4.196-12.539,2.123c-4.273-2.028-6.752-6.321-6.349-10.996c0.161-1.866-0.258-3.943-0.931-4.616
		c-1.663-1.663-1.539-4.316,0.272-5.819c1.201-0.997,1.95-0.943,3.808,0.275c1.678,1.1,2.809,1.238,4.117,0.506
		c2.375-1.329,8.341-0.311,10.704,1.827c2.265,2.05,2.326,2.795,0.387,4.734c-1.209,1.209-2.059,1.273-4.525,0.343
		c-2.191-0.827-3.517-0.845-4.761-0.065c-3.509,2.199-2.252,8.377,1.703,8.377c0.926,0,3.208-1.125,5.072-2.5
		c4.297-3.171,10.605-3.385,14.292-0.484c2.983,2.346,5.143,8.037,4.189,11.04c-0.429,1.353-0.03,2.787,1.136,4.074
		c1.372,1.517,1.545,2.388,0.733,3.678C100.012,81.4,97.387,82.064,96.468,80.578L96.468,80.578z"/>
</g>
</svg>
